<svg xmlns="http://www.w3.org/2000/svg" width="47.109" height="55.282" viewBox="0 0 47.109 55.282">
  <g id="그룹_38" data-name="그룹 38" transform="translate(-614.915 -301.548)">
    <path id="패스_58" data-name="패스 58" d="M650.418,331.894a16.9,16.9,0,1,0-23.9,0l11.948,11.948Z" fill="none" stroke="#fff" stroke-linecap="round" stroke-linejoin="round" stroke-width="3"/>
    <path id="패스_59" data-name="패스 59" d="M644.967,318.986a6.5,6.5,0,1,1-6.5-6.494A6.5,6.5,0,0,1,644.967,318.986Z" fill="none" stroke="#fff200" stroke-linecap="round" stroke-linejoin="round" stroke-width="3"/>
    <path id="패스_60" data-name="패스 60" d="M654.065,338.644c3.992,1.768,6.459,4.211,6.459,6.913s-2.467,5.14-6.459,6.91a43.9,43.9,0,0,1-31.189,0c-3.992-1.77-6.461-4.211-6.461-6.91s2.469-5.145,6.461-6.913" fill="none" stroke="#fff" stroke-linecap="round" stroke-linejoin="round" stroke-width="3"/>
  </g>
</svg>
