<svg xmlns="http://www.w3.org/2000/svg" width="47.109" height="55.282" viewBox="0 0 47.109 55.282">
  <g id="그룹_110" data-name="그룹 110" transform="translate(-614.915 -693.029)">
    <path id="패스_154" data-name="패스 154" d="M650.418,723.375a16.9,16.9,0,1,0-23.9,0l11.948,11.948Z" fill="none" stroke="#8d8d8d" stroke-linecap="round" stroke-linejoin="round" stroke-width="3"/>
    <path id="패스_155" data-name="패스 155" d="M644.967,710.467a6.5,6.5,0,1,1-6.5-6.494A6.5,6.5,0,0,1,644.967,710.467Z" fill="none" stroke="#363dc2" stroke-linecap="round" stroke-linejoin="round" stroke-width="3"/>
    <path id="패스_156" data-name="패스 156" d="M654.065,730.125c3.992,1.768,6.459,4.211,6.459,6.913s-2.467,5.14-6.459,6.91a43.9,43.9,0,0,1-31.189,0c-3.992-1.77-6.461-4.211-6.461-6.91s2.469-5.145,6.461-6.913" fill="none" stroke="#8d8d8d" stroke-linecap="round" stroke-linejoin="round" stroke-width="3"/>
  </g>
</svg>
