<svg xmlns="http://www.w3.org/2000/svg" width="53.481" height="51.749" viewBox="0 0 53.481 51.749">
  <g id="그룹_28" data-name="그룹 28" transform="translate(-602.897 -72.666)">
    <g id="그룹_27" data-name="그룹 27">
      <g id="그룹_25" data-name="그룹 25">
        <path id="패스_37" data-name="패스 37" d="M644.468,105.55h10.094c.053,0,.1,0,.158,0s.106.006.158.01V74.18l-.158-.01c-.053,0-.1,0-.158,0H634.376a5.084,5.084,0,0,0-3.347,1.209,3.873,3.873,0,0,0-1.387,2.92V93.987" fill="none" stroke="#fff" stroke-linecap="round" stroke-linejoin="round" stroke-width="3"/>
      </g>
      <g id="그룹_26" data-name="그룹 26">
        <path id="패스_38" data-name="패스 38" d="M614.807,105.55H604.713c-.052,0-.105,0-.158,0s-.1.006-.158.01V74.18l.158-.01c.053,0,.106,0,.158,0H624.9a5.078,5.078,0,0,1,3.345,1.209,3.872,3.872,0,0,1,1.386,2.92V93.987" fill="none" stroke="#fff" stroke-linecap="round" stroke-linejoin="round" stroke-width="3"/>
      </g>
    </g>
    <path id="패스_39" data-name="패스 39" d="M621.687,99.8v23.117l7.949-5.381,7.952,5.381V99.8Z" fill="none" stroke="#fff200" stroke-linecap="round" stroke-linejoin="round" stroke-width="3"/>
    <line id="선_4" data-name="선 4" x2="7.269" transform="translate(640.864 81.231)" fill="none" stroke="#fff" stroke-linecap="round" stroke-linejoin="round" stroke-width="3"/>
    <line id="선_5" data-name="선 5" x2="7.269" transform="translate(640.864 87.461)" fill="none" stroke="#fff" stroke-linecap="round" stroke-linejoin="round" stroke-width="3"/>
  </g>
</svg>
