<svg xmlns="http://www.w3.org/2000/svg" width="50.33" height="47.131" viewBox="0 0 50.33 47.131">
  <g id="그룹_102" data-name="그룹 102" transform="translate(-736.878 -462.135)">
    <path id="패스_140" data-name="패스 140" d="M778.947,467.873a6.762,6.762,0,0,1,6.761,6.762V501a6.76,6.76,0,0,1-6.761,6.762H745.14A6.762,6.762,0,0,1,738.378,501V474.635a6.764,6.764,0,0,1,6.762-6.762" fill="none" stroke="#8d8d8d" stroke-linecap="round" stroke-linejoin="round" stroke-width="3"/>
    <rect id="사각형_20" data-name="사각형 20" width="19" height="9" transform="translate(752.544 463.635)" fill="none" stroke="#8d8d8d" stroke-linecap="round" stroke-linejoin="round" stroke-width="3"/>
    <path id="패스_141" data-name="패스 141" d="M763.658,483.739a6.372,6.372,0,1,1-9.012,0A6.373,6.373,0,0,1,763.658,483.739Z" fill="none" stroke="#363dc2" stroke-linecap="round" stroke-linejoin="round" stroke-width="3"/>
    <line id="선_42" data-name="선 42" x2="4.728" y2="4.729" transform="translate(764.544 493.635)" fill="none" stroke="#363dc2" stroke-linecap="round" stroke-linejoin="round" stroke-width="3"/>
  </g>
</svg>
