<svg xmlns="http://www.w3.org/2000/svg" width="51.668" height="55.926" viewBox="0 0 51.668 55.926">
  <g id="그룹_67" data-name="그룹 67" transform="translate(-858.539 -70.78)">
    <g id="그룹_66" data-name="그룹 66">
      <path id="패스_92" data-name="패스 92" d="M908.707,75.653a3.374,3.374,0,0,1-3.374,3.373h-41.92a3.372,3.372,0,0,1-3.374-3.373h0a3.373,3.373,0,0,1,3.374-3.373h41.92a3.374,3.374,0,0,1,3.374,3.373Z" fill="none" stroke="#fff" stroke-linecap="round" stroke-linejoin="round" stroke-width="3"/>
      <path id="패스_93" data-name="패스 93" d="M905.333,83.9v19.388a3.311,3.311,0,0,1-3.309,3.31h-35.3a3.311,3.311,0,0,1-3.31-3.31V83.9" fill="none" stroke="#fff" stroke-linecap="round" stroke-linejoin="round" stroke-width="3"/>
      <line id="선_31" data-name="선 31" y2="5.528" transform="translate(884.373 111.383)" fill="none" stroke="#fff" stroke-linecap="round" stroke-linejoin="round" stroke-width="3"/>
      <path id="패스_94" data-name="패스 94" d="M888.016,121.561a3.643,3.643,0,1,1-3.643-3.643A3.644,3.644,0,0,1,888.016,121.561Z" fill="none" stroke="#fff" stroke-linecap="round" stroke-linejoin="round" stroke-width="3"/>
    </g>
    <line id="선_32" data-name="선 32" x2="15" transform="translate(876.873 93.253)" fill="none" stroke="#fff200" stroke-linecap="round" stroke-linejoin="round" stroke-width="3"/>
  </g>
</svg>
