<svg xmlns="http://www.w3.org/2000/svg" width="40.574" height="50.788" viewBox="0 0 40.574 50.788">
  <g id="그룹_125" data-name="그룹 125" transform="translate(-106.599 -695.175)">
    <path id="패스_182" data-name="패스 182" d="M126.886,696.675A18.786,18.786,0,0,0,108.1,715.463h12.18C120.279,705.084,123.238,696.675,126.886,696.675Z" fill="none" stroke="#8d8d8d" stroke-linecap="round" stroke-linejoin="round" stroke-width="3"/>
    <path id="패스_183" data-name="패스 183" d="M120.279,715.463H108.1a18.787,18.787,0,0,0,18.787,18.787C123.238,734.25,120.279,725.84,120.279,715.463Z" fill="none" stroke="#8d8d8d" stroke-linecap="round" stroke-linejoin="round" stroke-width="3"/>
    <path id="패스_184" data-name="패스 184" d="M126.886,696.675c3.651,0,6.61,8.409,6.61,18.788h12.177A18.784,18.784,0,0,0,126.886,696.675Z" fill="none" stroke="#8d8d8d" stroke-linecap="round" stroke-linejoin="round" stroke-width="3"/>
    <path id="패스_185" data-name="패스 185" d="M126.886,734.25a18.784,18.784,0,0,0,18.787-18.787H133.5C133.5,725.84,130.537,734.25,126.886,734.25Z" fill="none" stroke="#8d8d8d" stroke-linecap="round" stroke-linejoin="round" stroke-width="3"/>
    <path id="패스_186" data-name="패스 186" d="M120.279,715.463H133.5c0-10.379-2.959-18.788-6.61-18.788S120.279,705.084,120.279,715.463Z" fill="none" stroke="#8d8d8d" stroke-linecap="round" stroke-linejoin="round" stroke-width="3"/>
    <path id="패스_187" data-name="패스 187" d="M133.5,715.463H120.279c0,10.377,2.959,18.787,6.607,18.787S133.5,725.84,133.5,715.463Z" fill="none" stroke="#8d8d8d" stroke-linecap="round" stroke-linejoin="round" stroke-width="3"/>
    <line id="선_66" data-name="선 66" x2="33" transform="translate(110.386 744.463)" fill="none" stroke="#363dc2" stroke-linecap="round" stroke-linejoin="round" stroke-width="3"/>
  </g>
</svg>
