<svg xmlns="http://www.w3.org/2000/svg" width="52.177" height="52.179" viewBox="0 0 52.177 52.179">
  <g id="그룹_89" data-name="그룹 89" transform="translate(-975.577 -692.277)">
    <path id="패스_122" data-name="패스 122" d="M1018.221,723.544h8.033V713.19h-8.033a17.3,17.3,0,0,0-1.193-2.868l5.685-5.684-7.322-7.323-5.682,5.69a16.752,16.752,0,0,0-2.867-1.193v-8.035H996.489v8.035a16.884,16.884,0,0,0-2.864,1.193l-5.687-5.69-7.32,7.323,5.685,5.684a17.3,17.3,0,0,0-1.193,2.868h-8.033v10.354h8.033a17.263,17.263,0,0,0,1.193,2.864l-5.685,5.683,7.32,7.323,5.687-5.686a17.313,17.313,0,0,0,2.864,1.193v8.035h10.353v-8.035a17.173,17.173,0,0,0,2.867-1.193l5.682,5.686,7.322-7.323-5.685-5.683A17.263,17.263,0,0,0,1018.221,723.544Z" fill="none" stroke="#8d8d8d" stroke-linecap="round" stroke-linejoin="round" stroke-width="3"/>
    <circle id="타원_3" data-name="타원 3" cx="5" cy="5" r="5" transform="translate(996.665 713.367)" fill="none" stroke="#363dc2" stroke-linecap="round" stroke-linejoin="round" stroke-width="3"/>
  </g>
</svg>
