<svg xmlns="http://www.w3.org/2000/svg" width="57.387" height="57.286" viewBox="0 0 57.387 57.286">
  <g id="그룹_130" data-name="그룹 130" transform="translate(-475.37 -693.479)">
    <g id="그룹_128" data-name="그룹 128">
      <g id="그룹_127" data-name="그룹 127">
        <path id="패스_191" data-name="패스 191" d="M502.955,740.711h25.966a2.311,2.311,0,0,0,.91-.183,2.324,2.324,0,0,0,1.426-2.153V704.748l-2.442-2.443-2.442-2.441-2.443-2.443-2.442-2.442H494.3a2.327,2.327,0,0,0-1.652.685,2.3,2.3,0,0,0-.5.741,2.322,2.322,0,0,0-.184.91v26.109" fill="none" stroke="#8d8d8d" stroke-linecap="round" stroke-linejoin="round" stroke-width="3"/>
      </g>
      <path id="패스_192" data-name="패스 192" d="M526.235,707.289h-6.5v-6.5" fill="none" stroke="#8d8d8d" stroke-linecap="round" stroke-linejoin="round" stroke-width="3"/>
    </g>
    <g id="그룹_129" data-name="그룹 129">
      <line id="선_69" data-name="선 69" x2="8.301" transform="translate(516.565 721.672)" fill="none" stroke="#8d8d8d" stroke-linecap="round" stroke-linejoin="round" stroke-width="3"/>
      <line id="선_70" data-name="선 70" x2="8.301" transform="translate(516.565 727.821)" fill="none" stroke="#8d8d8d" stroke-linecap="round" stroke-linejoin="round" stroke-width="3"/>
    </g>
    <circle id="타원_4" data-name="타원 4" cx="11.461" cy="11.461" r="11.461" transform="translate(476.888 748.96) rotate(-89.284)" fill="none" stroke="#363dc2" stroke-linecap="round" stroke-linejoin="round" stroke-width="3"/>
    <line id="선_71" data-name="선 71" x1="9.443" transform="translate(483.771 737.643)" fill="none" stroke="#363dc2" stroke-linecap="round" stroke-linejoin="round" stroke-width="3"/>
    <line id="선_72" data-name="선 72" y2="9.443" transform="translate(488.492 732.922)" fill="none" stroke="#363dc2" stroke-linecap="round" stroke-linejoin="round" stroke-width="3"/>
  </g>
</svg>
