<svg xmlns="http://www.w3.org/2000/svg" width="56.566" height="49.993" viewBox="0 0 56.566 49.993">
  <g id="그룹_15" data-name="그룹 15" transform="translate(-218.64 -69.804)">
    <path id="패스_18" data-name="패스 18" d="M267.132,94.8a23.5,23.5,0,1,1-23.5-23.5A23.5,23.5,0,0,1,267.132,94.8Z" fill="none" stroke="#fff" stroke-linecap="round" stroke-linejoin="round" stroke-width="3"/>
    <path id="패스_19" data-name="패스 19" d="M254.711,99.941a5.142,5.142,0,1,1,5.142-5.142A5.143,5.143,0,0,1,254.711,99.941Z" fill="none" stroke="#fff200" stroke-linecap="round" stroke-linejoin="round" stroke-width="3"/>
    <path id="패스_20" data-name="패스 20" d="M232.562,99.941a5.142,5.142,0,1,1,5.143-5.142A5.141,5.141,0,0,1,232.562,99.941Z" fill="none" stroke="#fff200" stroke-linecap="round" stroke-linejoin="round" stroke-width="3"/>
    <path id="패스_21" data-name="패스 21" d="M248.779,83.727a5.143,5.143,0,1,1-5.143-5.144A5.142,5.142,0,0,1,248.779,83.727Z" fill="none" stroke="#fff200" stroke-linecap="round" stroke-linejoin="round" stroke-width="3"/>
    <path id="패스_22" data-name="패스 22" d="M248.779,105.873a5.143,5.143,0,1,1-5.143-5.143A5.143,5.143,0,0,1,248.779,105.873Z" fill="none" stroke="#fff200" stroke-linecap="round" stroke-linejoin="round" stroke-width="3"/>
    <path id="패스_23" data-name="패스 23" d="M262.373,109.383h7.333a4,4,0,0,1,0,8h-7.333" fill="none" stroke="#fff" stroke-linecap="round" stroke-linejoin="round" stroke-width="3"/>
  </g>
</svg>
