<svg xmlns="http://www.w3.org/2000/svg" width="52.534" height="51.521" viewBox="0 0 52.534 51.521">
  <g id="그룹_36" data-name="그룹 36" transform="translate(-738.924 -303.157)">
    <g id="그룹_35" data-name="그룹 35">
      <g id="그룹_32" data-name="그룹 32">
        <line id="선_7" data-name="선 7" y1="6.717" transform="translate(749.681 339.348)" fill="none" stroke="#fff200" stroke-linecap="round" stroke-linejoin="round" stroke-width="3"/>
        <path id="패스_49" data-name="패스 49" d="M753.435,349.424a3.754,3.754,0,1,1-3.754-3.754A3.753,3.753,0,0,1,753.435,349.424Z" fill="none" stroke="#fff200" stroke-linecap="round" stroke-linejoin="round" stroke-width="3"/>
      </g>
      <g id="그룹_33" data-name="그룹 33">
        <line id="선_8" data-name="선 8" y1="6.717" transform="translate(765.192 339.348)" fill="none" stroke="#fff200" stroke-linecap="round" stroke-linejoin="round" stroke-width="3"/>
        <path id="패스_50" data-name="패스 50" d="M768.946,349.424a3.753,3.753,0,1,1-3.754-3.754A3.754,3.754,0,0,1,768.946,349.424Z" fill="none" stroke="#fff200" stroke-linecap="round" stroke-linejoin="round" stroke-width="3"/>
      </g>
      <g id="그룹_34" data-name="그룹 34">
        <line id="선_9" data-name="선 9" y1="6.717" transform="translate(780.702 339.348)" fill="none" stroke="#fff200" stroke-linecap="round" stroke-linejoin="round" stroke-width="3"/>
        <path id="패스_51" data-name="패스 51" d="M784.456,349.424a3.754,3.754,0,1,1-3.754-3.754A3.754,3.754,0,0,1,784.456,349.424Z" fill="none" stroke="#fff200" stroke-linecap="round" stroke-linejoin="round" stroke-width="3"/>
      </g>
    </g>
    <path id="패스_52" data-name="패스 52" d="M789.958,321.782a10.6,10.6,0,0,0-10.6-10.6h-1.494a13.84,13.84,0,0,0-25.408,5.1h-3.979a8.05,8.05,0,1,0,0,16.1h31.8a8.017,8.017,0,0,0,5.469-2.152A10.575,10.575,0,0,0,789.958,321.782Z" fill="none" stroke="#fff" stroke-linecap="round" stroke-linejoin="round" stroke-width="3"/>
  </g>
</svg>
