<svg xmlns="http://www.w3.org/2000/svg" width="50.875" height="50.875" viewBox="0 0 50.875 50.875">
  <g id="그룹_14" data-name="그룹 14" transform="translate(-478.796 -68.546)">
    <g id="그룹_7" data-name="그룹 7">
      <path id="패스_7" data-name="패스 7" d="M519.238,70.046h-15V93.983h23.938v-15A8.933,8.933,0,0,0,519.238,70.046Z" fill="none" stroke="#fff" stroke-linecap="round" stroke-linejoin="round" stroke-width="3"/>
      <path id="패스_8" data-name="패스 8" d="M504.233,70.046h-15a8.933,8.933,0,0,0-8.933,8.933v15h23.937Z" fill="none" stroke="#fff" stroke-linecap="round" stroke-linejoin="round" stroke-width="3"/>
      <path id="패스_9" data-name="패스 9" d="M480.3,93.983v15.006a8.933,8.933,0,0,0,8.933,8.932h15V93.983Z" fill="none" stroke="#fff" stroke-linecap="round" stroke-linejoin="round" stroke-width="3"/>
      <path id="패스_10" data-name="패스 10" d="M504.233,117.921h15a8.933,8.933,0,0,0,8.933-8.932V93.983H504.233Z" fill="none" stroke="#fff" stroke-linecap="round" stroke-linejoin="round" stroke-width="3"/>
    </g>
    <g id="그룹_13" data-name="그룹 13">
      <g id="그룹_10" data-name="그룹 10">
        <g id="그룹_8" data-name="그룹 8">
          <path id="패스_11" data-name="패스 11" d="M492.156,78.866V86.79" fill="none" stroke="#fff200" stroke-linecap="round" stroke-linejoin="round" stroke-width="3"/>
          <path id="패스_12" data-name="패스 12" d="M488.193,82.829h7.923" fill="none" stroke="#fff200" stroke-linecap="round" stroke-linejoin="round" stroke-width="3"/>
        </g>
        <g id="그룹_9" data-name="그룹 9">
          <path id="패스_13" data-name="패스 13" d="M494.956,103.5l-2.8,2.8-2.8,2.8" fill="none" stroke="#fff200" stroke-linecap="round" stroke-linejoin="round" stroke-width="3"/>
          <path id="패스_14" data-name="패스 14" d="M489.354,103.5l2.8,2.8,2.8,2.8" fill="none" stroke="#fff200" stroke-linecap="round" stroke-linejoin="round" stroke-width="3"/>
        </g>
      </g>
      <g id="그룹_12" data-name="그룹 12">
        <g id="그룹_11" data-name="그룹 11">
          <path id="패스_15" data-name="패스 15" d="M512.35,103.886h7.924" fill="none" stroke="#fff200" stroke-linecap="round" stroke-linejoin="round" stroke-width="3"/>
          <path id="패스_16" data-name="패스 16" d="M512.35,109.1h7.924" fill="none" stroke="#fff200" stroke-linecap="round" stroke-linejoin="round" stroke-width="3"/>
        </g>
        <path id="패스_17" data-name="패스 17" d="M512.35,83.5h7.924" fill="none" stroke="#fff200" stroke-linecap="round" stroke-linejoin="round" stroke-width="3"/>
      </g>
    </g>
  </g>
</svg>
