<svg xmlns="http://www.w3.org/2000/svg" width="51.957" height="54.479" viewBox="0 0 51.957 54.479">
  <g id="그룹_120" data-name="그룹 120" transform="translate(-353.528 -581.302)">
    <path id="패스_172" data-name="패스 172" d="M400.036,593.017h2.388a1.56,1.56,0,0,1,1.561,1.561v8.629a1.561,1.561,0,0,1-1.561,1.561h-2.388" fill="none" stroke="#363dc2" stroke-linecap="round" stroke-linejoin="round" stroke-width="3"/>
    <path id="패스_173" data-name="패스 173" d="M400.036,610.966h2.388a1.56,1.56,0,0,1,1.561,1.56v8.631a1.56,1.56,0,0,1-1.561,1.56h-2.388" fill="none" stroke="#363dc2" stroke-linecap="round" stroke-linejoin="round" stroke-width="3"/>
    <rect id="사각형_31" data-name="사각형 31" width="41.035" height="51.479" rx="5.202" transform="translate(355.028 582.802)" fill="none" stroke="#8d8d8d" stroke-linecap="round" stroke-linejoin="round" stroke-width="3"/>
    <line id="선_61" data-name="선 61" x2="11.939" transform="translate(363.686 623.837)" fill="none" stroke="#8d8d8d" stroke-linecap="round" stroke-linejoin="round" stroke-width="3"/>
    <path id="패스_174" data-name="패스 174" d="M372.826,596.973A3.824,3.824,0,1,1,369,593.149,3.824,3.824,0,0,1,372.826,596.973Z" fill="none" stroke="#8d8d8d" stroke-linecap="round" stroke-linejoin="round" stroke-width="3"/>
    <path id="패스_175" data-name="패스 175" d="M373.521,604.968a3.475,3.475,0,0,0-3.476-3.475h-2.087a3.475,3.475,0,0,0-3.476,3.475v5.91h9.039Z" fill="none" stroke="#8d8d8d" stroke-linecap="round" stroke-linejoin="round" stroke-width="3"/>
  </g>
</svg>
