<svg xmlns="http://www.w3.org/2000/svg" width="60.084" height="53.958" viewBox="0 0 60.084 53.958">
  <g id="그룹_63" data-name="그룹 63" transform="translate(-858.075 -183.031)">
    <g id="그룹_62" data-name="그룹 62">
      <g id="그룹_61" data-name="그룹 61">
        <path id="패스_83" data-name="패스 83" d="M902.887,190.3v-5.765H865.172a5.591,5.591,0,0,0-5.6,5.6v39.06a5.595,5.595,0,0,1,5.6-5.6h37.715v-8.765" fill="none" stroke="#fff" stroke-linecap="round" stroke-linejoin="round" stroke-width="3"/>
        <path id="패스_84" data-name="패스 84" d="M859.575,229.186v.707a5.6,5.6,0,0,0,5.6,5.6h37.715v-11.9H865.172A5.6,5.6,0,0,0,859.575,229.186Z" fill="none" stroke="#fff" stroke-linecap="round" stroke-linejoin="round" stroke-width="3"/>
      </g>
    </g>
    <path id="패스_85" data-name="패스 85" d="M895.852,212.6l-9.729.333,4.834-8.45,10.4-6.274,10.4-6.272L914.211,196l2.447,4.059-10.4,6.273Z" fill="none" stroke="#fff200" stroke-linecap="round" stroke-linejoin="round" stroke-width="3"/>
    <line id="선_29" data-name="선 29" x2="10.293" transform="translate(866.897 195.674)" fill="none" stroke="#fff" stroke-linecap="round" stroke-linejoin="round" stroke-width="3"/>
  </g>
</svg>
