<svg xmlns="http://www.w3.org/2000/svg" width="52.534" height="51.522" viewBox="0 0 52.534 51.522">
  <g id="그룹_108" data-name="그룹 108" transform="translate(-738.924 -694.637)">
    <g id="그룹_107" data-name="그룹 107">
      <g id="그룹_104" data-name="그룹 104">
        <line id="선_43" data-name="선 43" y1="6.717" transform="translate(749.681 730.829)" fill="none" stroke="#363dc2" stroke-linecap="round" stroke-linejoin="round" stroke-width="3"/>
        <path id="패스_145" data-name="패스 145" d="M753.435,740.905a3.754,3.754,0,1,1-3.754-3.754A3.753,3.753,0,0,1,753.435,740.905Z" fill="none" stroke="#363dc2" stroke-linecap="round" stroke-linejoin="round" stroke-width="3"/>
      </g>
      <g id="그룹_105" data-name="그룹 105">
        <line id="선_44" data-name="선 44" y1="6.717" transform="translate(765.192 730.829)" fill="none" stroke="#363dc2" stroke-linecap="round" stroke-linejoin="round" stroke-width="3"/>
        <path id="패스_146" data-name="패스 146" d="M768.946,740.905a3.753,3.753,0,1,1-3.754-3.754A3.754,3.754,0,0,1,768.946,740.905Z" fill="none" stroke="#363dc2" stroke-linecap="round" stroke-linejoin="round" stroke-width="3"/>
      </g>
      <g id="그룹_106" data-name="그룹 106">
        <line id="선_45" data-name="선 45" y1="6.717" transform="translate(780.702 730.829)" fill="none" stroke="#363dc2" stroke-linecap="round" stroke-linejoin="round" stroke-width="3"/>
        <path id="패스_147" data-name="패스 147" d="M784.456,740.905a3.754,3.754,0,1,1-3.754-3.754A3.754,3.754,0,0,1,784.456,740.905Z" fill="none" stroke="#363dc2" stroke-linecap="round" stroke-linejoin="round" stroke-width="3"/>
      </g>
    </g>
    <path id="패스_148" data-name="패스 148" d="M789.958,713.262a10.6,10.6,0,0,0-10.6-10.6h-1.494a13.839,13.839,0,0,0-25.408,5.1h-3.979a8.051,8.051,0,1,0,0,16.1h31.8a8.018,8.018,0,0,0,5.469-2.153A10.574,10.574,0,0,0,789.958,713.262Z" fill="none" stroke="#8d8d8d" stroke-linecap="round" stroke-linejoin="round" stroke-width="3"/>
  </g>
</svg>
