<svg xmlns="http://www.w3.org/2000/svg" width="52.637" height="49.253" viewBox="0 0 52.637 49.253">
  <g id="그룹_16" data-name="그룹 16" transform="translate(-861.595 -301.85)">
    <path id="사각형_2" data-name="사각형 2" d="M5.225,0h.91A5.225,5.225,0,0,1,11.36,5.225v3.12A5.226,5.226,0,0,1,6.135,13.57h-.91A5.225,5.225,0,0,1,0,8.346V5.225A5.225,5.225,0,0,1,5.225,0Z" transform="translate(863.095 316.76)" fill="none" stroke="#fff200" stroke-linecap="round" stroke-linejoin="round" stroke-width="3"/>
    <path id="패스_24" data-name="패스 24" d="M912.732,306.9c0-2.873-2.152-4.277-4.783-3.121L883.24,314.654a8.721,8.721,0,0,0-4.784,7.33v3.121a8.721,8.721,0,0,0,4.784,7.33l24.709,10.874c2.631,1.157,4.783-.249,4.783-3.122Z" fill="none" stroke="#fff" stroke-linecap="round" stroke-linejoin="round" stroke-width="3"/>
    <path id="패스_25" data-name="패스 25" d="M865.984,333.717v8.6a6.069,6.069,0,0,0,5.186,5.858l11.386,1.383a4.525,4.525,0,0,0,5.188-4.588V339.75" fill="none" stroke="#fff" stroke-linecap="round" stroke-linejoin="round" stroke-width="3"/>
  </g>
</svg>
