<svg xmlns="http://www.w3.org/2000/svg" width="52.177" height="52.18" viewBox="0 0 52.177 52.18">
  <g id="그룹_17" data-name="그룹 17" transform="translate(-975.577 -300.796)">
    <path id="패스_26" data-name="패스 26" d="M1018.221,332.064h8.033V321.709h-8.033a17.3,17.3,0,0,0-1.193-2.868l5.685-5.683-7.322-7.324-5.682,5.691a16.683,16.683,0,0,0-2.867-1.194V302.3H996.489v8.035a16.811,16.811,0,0,0-2.864,1.194l-5.687-5.691-7.32,7.324,5.685,5.683a17.3,17.3,0,0,0-1.193,2.868h-8.033v10.355h8.033a17.25,17.25,0,0,0,1.193,2.863l-5.685,5.684,7.32,7.322,5.687-5.685a17.389,17.389,0,0,0,2.864,1.193v8.035h10.353v-8.035a17.25,17.25,0,0,0,2.867-1.193l5.682,5.685,7.322-7.322-5.685-5.684A17.25,17.25,0,0,0,1018.221,332.064Z" fill="none" stroke="#fff" stroke-linecap="round" stroke-linejoin="round" stroke-width="3"/>
    <circle id="타원_1" data-name="타원 1" cx="5" cy="5" r="5" transform="translate(996.665 321.886)" fill="none" stroke="#fff200" stroke-linecap="round" stroke-linejoin="round" stroke-width="3"/>
  </g>
</svg>
