<svg xmlns="http://www.w3.org/2000/svg" width="39.78" height="56.804" viewBox="0 0 39.78 56.804">
  <g id="그룹_19" data-name="그룹 19" transform="translate(-743.074 -182.48)">
    <g id="그룹_18" data-name="그룹 18">
      <path id="패스_27" data-name="패스 27" d="M769.94,221.373v-1.986a18.391,18.391,0,1,0-13.951,0v1.986" fill="none" stroke="#fff" stroke-linecap="round" stroke-linejoin="round" stroke-width="3"/>
      <path id="사각형_3" data-name="사각형 3" d="M2.656,0H15.312a2.654,2.654,0,0,1,2.654,2.654v.4a2.655,2.655,0,0,1-2.655,2.655H2.656A2.656,2.656,0,0,1,0,3.051V2.656A2.656,2.656,0,0,1,2.656,0Z" transform="translate(753.981 225.834)" fill="none" stroke="#fff" stroke-linecap="round" stroke-linejoin="round" stroke-width="3"/>
      <path id="패스_28" data-name="패스 28" d="M767.19,231.892v1.666a4.226,4.226,0,0,1-4.227,4.226h0a4.226,4.226,0,0,1-4.226-4.226v-1.666" fill="none" stroke="#fff" stroke-linecap="round" stroke-linejoin="round" stroke-width="3"/>
    </g>
    <path id="패스_29" data-name="패스 29" d="M759.915,205.8l-3.049-4.307h12.2l-3.049,4.307-3.049,4.308v9.307" fill="none" stroke="#fff200" stroke-linecap="round" stroke-linejoin="round" stroke-width="3"/>
  </g>
</svg>
