<svg xmlns="http://www.w3.org/2000/svg" width="52.117" height="49.303" viewBox="0 0 52.117 49.303">
  <g id="그룹_103" data-name="그룹 103" transform="translate(-1100.156 -578.69)">
    <path id="패스_142" data-name="패스 142" d="M1126.216,581.409a5.5,5.5,0,0,0-2.062,4.3v4.231h-16.979a5.52,5.52,0,0,0-5.519,5.518v-9.749a5.518,5.518,0,0,1,5.519-5.517h14.041" fill="none" stroke="#8d8d8d" stroke-linecap="round" stroke-linejoin="round" stroke-width="3"/>
    <path id="패스_143" data-name="패스 143" d="M1145.255,580.19h-15.584a5.523,5.523,0,0,0-5.517,5.517v4.231h-16.979a5.52,5.52,0,0,0-5.519,5.518v25.519a5.52,5.52,0,0,0,5.519,5.518h38.08a5.519,5.519,0,0,0,5.518-5.518V585.707A5.517,5.517,0,0,0,1145.255,580.19Z" fill="none" stroke="#8d8d8d" stroke-linecap="round" stroke-linejoin="round" stroke-width="3"/>
    <path id="패스_144" data-name="패스 144" d="M1132.855,613.768a4.357,4.357,0,0,0,.094-8.713,7.008,7.008,0,1,0-13.84,2.131h-1.563a3.291,3.291,0,1,0,0,6.582Z" fill="none" stroke="#363dc2" stroke-linecap="round" stroke-linejoin="round" stroke-width="3"/>
  </g>
</svg>
