<svg xmlns="http://www.w3.org/2000/svg" width="50.33" height="47.131" viewBox="0 0 50.33 47.131">
  <g id="그룹_30" data-name="그룹 30" transform="translate(-736.878 -70.655)">
    <path id="패스_44" data-name="패스 44" d="M778.947,76.393a6.76,6.76,0,0,1,6.761,6.762v26.369a6.762,6.762,0,0,1-6.761,6.762H745.14a6.764,6.764,0,0,1-6.762-6.762V83.155a6.762,6.762,0,0,1,6.762-6.762" fill="none" stroke="#fff" stroke-linecap="round" stroke-linejoin="round" stroke-width="3"/>
    <rect id="사각형_5" data-name="사각형 5" width="19" height="9" transform="translate(752.544 72.155)" fill="none" stroke="#fff" stroke-linecap="round" stroke-linejoin="round" stroke-width="3"/>
    <path id="패스_45" data-name="패스 45" d="M763.658,92.258a6.372,6.372,0,1,1-9.012,0A6.374,6.374,0,0,1,763.658,92.258Z" fill="none" stroke="#fff200" stroke-linecap="round" stroke-linejoin="round" stroke-width="3"/>
    <line id="선_6" data-name="선 6" x2="4.728" y2="4.728" transform="translate(764.544 102.155)" fill="none" stroke="#fff200" stroke-linecap="round" stroke-linejoin="round" stroke-width="3"/>
  </g>
</svg>
