<svg xmlns="http://www.w3.org/2000/svg" width="50.621" height="52.26" viewBox="0 0 50.621 52.26">
  <g id="그룹_46" data-name="그룹 46" transform="translate(-223.232 -187.055)">
    <path id="사각형_8" data-name="사각형 8" d="M3.526,0H17.011a3.525,3.525,0,0,1,3.525,3.525V45.733A3.526,3.526,0,0,1,17.01,49.26H3.524A3.524,3.524,0,0,1,0,45.735V3.526A3.526,3.526,0,0,1,3.526,0Z" transform="translate(224.732 188.555)" fill="none" stroke="#fff" stroke-linecap="round" stroke-linejoin="round" stroke-width="3"/>
    <rect id="사각형_9" data-name="사각형 9" width="5.358" height="11.253" transform="translate(232.321 197.273)" fill="none" stroke="#fff200" stroke-linecap="round" stroke-linejoin="round" stroke-width="3"/>
    <line id="선_16" data-name="선 16" y2="4.523" transform="translate(235.001 218.56)" fill="none" stroke="#fff" stroke-linecap="round" stroke-linejoin="round" stroke-width="3"/>
    <path id="사각형_10" data-name="사각형 10" d="M3.526,0H17.012a3.524,3.524,0,0,1,3.524,3.524V45.733A3.526,3.526,0,0,1,17.01,49.26H3.526A3.526,3.526,0,0,1,0,45.733V3.526A3.526,3.526,0,0,1,3.526,0Z" transform="translate(251.816 188.555)" fill="none" stroke="#fff" stroke-linecap="round" stroke-linejoin="round" stroke-width="3"/>
    <rect id="사각형_11" data-name="사각형 11" width="5.357" height="11.253" transform="translate(259.406 197.273)" fill="none" stroke="#fff200" stroke-linecap="round" stroke-linejoin="round" stroke-width="3"/>
    <line id="선_17" data-name="선 17" y2="4.523" transform="translate(262.085 218.56)" fill="none" stroke="#fff" stroke-linecap="round" stroke-linejoin="round" stroke-width="3"/>
  </g>
</svg>
