<svg xmlns="http://www.w3.org/2000/svg" width="52.522" height="46.86" viewBox="0 0 52.522 46.86">
  <g id="그룹_116" data-name="그룹 116" transform="translate(-99.384 -583.213)">
    <path id="사각형_27" data-name="사각형 27" d="M2.993,0H6.92A2.99,2.99,0,0,1,9.91,2.99V21.426a2.99,2.99,0,0,1-2.99,2.99H2.992A2.992,2.992,0,0,1,0,21.424V2.993A2.993,2.993,0,0,1,2.993,0Z" transform="translate(103.533 594.702)" fill="none" stroke="#8d8d8d" stroke-linecap="round" stroke-linejoin="round" stroke-width="3"/>
    <path id="사각형_28" data-name="사각형 28" d="M2.99,0H6.916A2.992,2.992,0,0,1,9.908,2.992V31.411A2.993,2.993,0,0,1,6.915,34.4H2.99A2.99,2.99,0,0,1,0,31.414V2.99A2.99,2.99,0,0,1,2.99,0Z" transform="translate(119.785 584.713)" fill="none" stroke="#363dc2" stroke-linecap="round" stroke-linejoin="round" stroke-width="3"/>
    <path id="사각형_29" data-name="사각형 29" d="M2.993,0H6.919A2.993,2.993,0,0,1,9.912,2.993V25.307A2.993,2.993,0,0,1,6.919,28.3H2.994A2.994,2.994,0,0,1,0,25.306V2.993A2.993,2.993,0,0,1,2.993,0Z" transform="translate(136.037 590.818)" fill="none" stroke="#8d8d8d" stroke-linecap="round" stroke-linejoin="round" stroke-width="3"/>
    <line id="선_54" data-name="선 54" x2="49.521" transform="translate(100.884 628.574)" fill="none" stroke="#8d8d8d" stroke-linecap="round" stroke-linejoin="round" stroke-width="3"/>
  </g>
</svg>
