<svg xmlns="http://www.w3.org/2000/svg" width="52.117" height="49.303" viewBox="0 0 52.117 49.303">
  <g id="그룹_31" data-name="그룹 31" transform="translate(-1100.156 -187.209)">
    <path id="패스_46" data-name="패스 46" d="M1126.216,189.928a5.5,5.5,0,0,0-2.062,4.3v4.23h-16.979a5.52,5.52,0,0,0-5.519,5.518v-9.748a5.518,5.518,0,0,1,5.519-5.518h14.041" fill="none" stroke="#fff" stroke-linecap="round" stroke-linejoin="round" stroke-width="3"/>
    <path id="패스_47" data-name="패스 47" d="M1145.255,188.709h-15.584a5.523,5.523,0,0,0-5.517,5.518v4.23h-16.979a5.52,5.52,0,0,0-5.519,5.518v25.52a5.519,5.519,0,0,0,5.519,5.517h38.08a5.518,5.518,0,0,0,5.518-5.517V194.227A5.517,5.517,0,0,0,1145.255,188.709Z" fill="none" stroke="#fff" stroke-linecap="round" stroke-linejoin="round" stroke-width="3"/>
    <path id="패스_48" data-name="패스 48" d="M1132.855,222.288a4.357,4.357,0,0,0,.094-8.713,7.008,7.008,0,1,0-13.84,2.131h-1.563a3.291,3.291,0,1,0,0,6.582Z" fill="none" stroke="#fff200" stroke-linecap="round" stroke-linejoin="round" stroke-width="3"/>
  </g>
</svg>
