<svg xmlns="http://www.w3.org/2000/svg" width="52.522" height="46.86" viewBox="0 0 52.522 46.86">
  <g id="그룹_47" data-name="그룹 47" transform="translate(-99.384 -191.733)">
    <path id="사각형_12" data-name="사각형 12" d="M2.993,0H6.92A2.99,2.99,0,0,1,9.91,2.99V21.423a2.993,2.993,0,0,1-2.993,2.993H2.992A2.992,2.992,0,0,1,0,21.424V2.993A2.993,2.993,0,0,1,2.993,0Z" transform="translate(103.533 203.221)" fill="none" stroke="#fff" stroke-linecap="round" stroke-linejoin="round" stroke-width="3"/>
    <path id="사각형_13" data-name="사각형 13" d="M2.993,0H6.916A2.992,2.992,0,0,1,9.908,2.992V31.411A2.993,2.993,0,0,1,6.915,34.4H2.99A2.99,2.99,0,0,1,0,31.414V2.993A2.993,2.993,0,0,1,2.993,0Z" transform="translate(119.785 193.233)" fill="none" stroke="#fff200" stroke-linecap="round" stroke-linejoin="round" stroke-width="3"/>
    <path id="사각형_14" data-name="사각형 14" d="M2.993,0H6.919A2.993,2.993,0,0,1,9.912,2.993V25.307A2.993,2.993,0,0,1,6.919,28.3H2.994A2.994,2.994,0,0,1,0,25.306V2.993A2.993,2.993,0,0,1,2.993,0Z" transform="translate(136.037 199.337)" fill="none" stroke="#fff" stroke-linecap="round" stroke-linejoin="round" stroke-width="3"/>
    <line id="선_18" data-name="선 18" x2="49.521" transform="translate(100.884 237.093)" fill="none" stroke="#fff" stroke-linecap="round" stroke-linejoin="round" stroke-width="3"/>
  </g>
</svg>
