<svg xmlns="http://www.w3.org/2000/svg" width="49.46" height="54.332" viewBox="0 0 49.46 54.332">
  <g id="그룹_117" data-name="그룹 117" transform="translate(-355.807 -692.326)">
    <path id="사각형_30" data-name="사각형 30" d="M4.034,0H42.426A4.034,4.034,0,0,1,46.46,4.034v11.22a4.035,4.035,0,0,1-4.035,4.035H4.034A4.034,4.034,0,0,1,0,15.255V4.034A4.034,4.034,0,0,1,4.034,0Z" transform="translate(357.307 708.418)" fill="none" stroke="#8d8d8d" stroke-linecap="round" stroke-linejoin="round" stroke-width="3"/>
    <line id="선_55" data-name="선 55" x2="2.062" transform="translate(383.419 715.462)" fill="none" stroke="#8d8d8d" stroke-linecap="round" stroke-linejoin="round" stroke-width="3"/>
    <line id="선_56" data-name="선 56" x2="4.711" transform="translate(392.482 715.462)" fill="none" stroke="#8d8d8d" stroke-linecap="round" stroke-linejoin="round" stroke-width="3"/>
    <path id="패스_164" data-name="패스 164" d="M368.667,704.868V697a3.179,3.179,0,0,1,3.18-3.178h17.379A3.178,3.178,0,0,1,392.4,697v7.864" fill="none" stroke="#8d8d8d" stroke-linecap="round" stroke-linejoin="round" stroke-width="3"/>
    <path id="패스_165" data-name="패스 165" d="M392.4,732.325v9.654a3.179,3.179,0,0,1-3.179,3.179H371.847a3.18,3.18,0,0,1-3.18-3.179v-9.654" fill="none" stroke="#363dc2" stroke-linecap="round" stroke-linejoin="round" stroke-width="3"/>
    <line id="선_57" data-name="선 57" x2="10.148" transform="translate(375.463 738.144)" fill="none" stroke="#363dc2" stroke-linecap="round" stroke-linejoin="round" stroke-width="3"/>
  </g>
</svg>
