<svg xmlns="http://www.w3.org/2000/svg" width="52.172" height="54.207" viewBox="0 0 52.172 54.207">
  <g id="그룹_37" data-name="그룹 37" transform="translate(-1223.299 -304.966)">
    <path id="패스_53" data-name="패스 53" d="M1249.385,323.7Z" fill="none" stroke="#fff" stroke-linecap="round" stroke-linejoin="round" stroke-width="3"/>
    <path id="패스_54" data-name="패스 54" d="M1249.385,323.7l-14.925-8.615v17.233h0l14.925,8.617V323.7Z" fill="none" stroke="#fff" stroke-linecap="round" stroke-linejoin="round" stroke-width="3"/>
    <path id="패스_55" data-name="패스 55" d="M1249.385,306.466l-14.925,8.619,14.925,8.615h0l14.925-8.617Z" fill="none" stroke="#fff" stroke-linecap="round" stroke-linejoin="round" stroke-width="3"/>
    <path id="패스_56" data-name="패스 56" d="M1264.31,315.083l-14.925,8.617h0v17.234l14.925-8.617h0V315.083Z" fill="none" stroke="#fff" stroke-linecap="round" stroke-linejoin="round" stroke-width="3"/>
    <path id="패스_57" data-name="패스 57" d="M1266.771,339.072c4.45,1.972,7.2,4.7,7.2,7.705s-2.75,5.732-7.2,7.7a48.953,48.953,0,0,1-34.77,0c-4.45-1.973-7.2-4.7-7.2-7.7s2.752-5.733,7.2-7.705" fill="none" stroke="#fff200" stroke-linecap="round" stroke-linejoin="round" stroke-width="3"/>
  </g>
</svg>
