<svg xmlns="http://www.w3.org/2000/svg" width="57.227" height="57.126" viewBox="0 0 57.227 57.126">
  <g id="그룹_73" data-name="그룹 73" transform="translate(-475.53 -301.998)">
    <g id="그룹_71" data-name="그룹 71">
      <g id="그룹_69" data-name="그룹 69">
        <g id="그룹_68" data-name="그룹 68">
          <path id="패스_95" data-name="패스 95" d="M502.955,349.23h25.966a2.311,2.311,0,0,0,.91-.183,2.324,2.324,0,0,0,1.426-2.153V313.268l-2.442-2.443-2.442-2.442-2.443-2.442-2.442-2.443H494.3a2.351,2.351,0,0,0-.91.184,2.334,2.334,0,0,0-1.426,2.152v26.109" fill="none" stroke="#fff" stroke-linecap="round" stroke-linejoin="round" stroke-width="3"/>
        </g>
        <path id="패스_96" data-name="패스 96" d="M526.235,315.809h-6.5v-6.5" fill="none" stroke="#fff" stroke-linecap="round" stroke-linejoin="round" stroke-width="3"/>
      </g>
      <g id="그룹_70" data-name="그룹 70">
        <line id="선_33" data-name="선 33" x2="8.301" transform="translate(516.565 330.192)" fill="none" stroke="#fff" stroke-linecap="round" stroke-linejoin="round" stroke-width="3"/>
        <line id="선_34" data-name="선 34" x2="8.301" transform="translate(516.565 336.34)" fill="none" stroke="#fff" stroke-linecap="round" stroke-linejoin="round" stroke-width="3"/>
      </g>
    </g>
    <g id="그룹_72" data-name="그룹 72">
      <circle id="타원_2" data-name="타원 2" cx="11.461" cy="11.461" r="11.461" transform="translate(477.03 334.701)" fill="none" stroke="#fff200" stroke-linecap="round" stroke-linejoin="round" stroke-width="3"/>
      <line id="선_35" data-name="선 35" x1="9.443" transform="translate(483.771 346.162)" fill="none" stroke="#fff200" stroke-linecap="round" stroke-linejoin="round" stroke-width="3"/>
      <line id="선_36" data-name="선 36" y2="9.443" transform="translate(488.492 341.441)" fill="none" stroke="#fff200" stroke-linecap="round" stroke-linejoin="round" stroke-width="3"/>
    </g>
  </g>
</svg>
