<svg xmlns="http://www.w3.org/2000/svg" width="39.78" height="56.803" viewBox="0 0 39.78 56.803">
  <g id="그룹_91" data-name="그룹 91" transform="translate(-743.074 -573.961)">
    <g id="그룹_90" data-name="그룹 90">
      <path id="패스_123" data-name="패스 123" d="M769.94,612.854v-1.986a18.391,18.391,0,1,0-13.951,0v1.986" fill="none" stroke="#8d8d8d" stroke-linecap="round" stroke-linejoin="round" stroke-width="3"/>
      <path id="사각형_18" data-name="사각형 18" d="M2.656,0H15.312a2.654,2.654,0,0,1,2.654,2.654v.4a2.654,2.654,0,0,1-2.654,2.654H2.656A2.656,2.656,0,0,1,0,3.051V2.656A2.656,2.656,0,0,1,2.656,0Z" transform="translate(753.981 617.315)" fill="none" stroke="#8d8d8d" stroke-linecap="round" stroke-linejoin="round" stroke-width="3"/>
      <path id="패스_124" data-name="패스 124" d="M767.19,623.372v1.666a4.226,4.226,0,0,1-4.227,4.226h0a4.226,4.226,0,0,1-4.226-4.226v-1.666" fill="none" stroke="#8d8d8d" stroke-linecap="round" stroke-linejoin="round" stroke-width="3"/>
    </g>
    <path id="패스_125" data-name="패스 125" d="M759.915,597.276l-3.049-4.307h12.2l-3.049,4.307-3.049,4.309v9.307" fill="none" stroke="#363dc2" stroke-linecap="round" stroke-linejoin="round" stroke-width="3"/>
  </g>
</svg>
