<svg xmlns="http://www.w3.org/2000/svg" width="63.719" height="55.875" viewBox="0 0 63.719 55.875">
    <g id="그룹_6" data-name="그룹 6" transform="translate(-91.452 -61.546)">
        <g id="그룹_5" data-name="그룹 5">
            <path id="패스_4"
                  data-name="패스 4"
                  d="M135.779,78.583h14.465a3.428,3.428,0,0,1,3.427,3.43v30.48a3.426,3.426,0,0,1-3.427,3.428H96.38a3.427,3.427,0,0,1-3.428-3.428V82.013a3.429,3.429,0,0,1,3.428-3.43h14.146"
                  fill="none"
                  stroke="#fff"
                  stroke-linecap="round"
                  stroke-linejoin="round"
                  stroke-width="3"
            />
        </g>
        <path id="패스_5" data-name="패스 5" d="M135.6,115.921H111.024V72.028l12.288-8.982L135.6,72.028v43.893Z" fill="none"
              stroke="#fff" stroke-linecap="round" stroke-linejoin="round" stroke-width="3"/>
        <path id="패스_6" data-name="패스 6"
              d="M127.883,88.872a4.572,4.572,0,1,1-4.571-4.573A4.572,4.572,0,0,1,127.883,88.872Z" fill="none"
              stroke="#fff200" stroke-linecap="round" stroke-linejoin="round" stroke-width="3"/>
        <line id="선_2" data-name="선 2" x2="8.001" transform="translate(119.312 102.209)" fill="none" stroke="#fff200"
              stroke-linecap="round" stroke-linejoin="round" stroke-width="3"/>
    </g>
</svg>
