<svg xmlns="http://www.w3.org/2000/svg" width="60.084" height="53.957" viewBox="0 0 60.084 53.957">
  <g id="그룹_124" data-name="그룹 124" transform="translate(-858.075 -574.512)">
    <g id="그룹_123" data-name="그룹 123">
      <path id="패스_179" data-name="패스 179" d="M902.887,581.776v-5.764H865.172a5.59,5.59,0,0,0-5.6,5.595v39.059a5.592,5.592,0,0,1,5.6-5.6h37.715V606.3" fill="none" stroke="#8d8d8d" stroke-linecap="round" stroke-linejoin="round" stroke-width="3"/>
      <path id="패스_180" data-name="패스 180" d="M859.575,620.666v.707a5.6,5.6,0,0,0,5.6,5.6h37.715v-11.9H865.172A5.6,5.6,0,0,0,859.575,620.666Z" fill="none" stroke="#8d8d8d" stroke-linecap="round" stroke-linejoin="round" stroke-width="3"/>
    </g>
    <path id="패스_181" data-name="패스 181" d="M895.852,604.084l-9.729.334,4.834-8.45,10.4-6.274,10.4-6.271,2.447,4.059,2.447,4.059-10.4,6.273Z" fill="none" stroke="#363dc2" stroke-linecap="round" stroke-linejoin="round" stroke-width="3"/>
    <line id="선_65" data-name="선 65" x2="10.293" transform="translate(866.897 587.155)" fill="none" stroke="#8d8d8d" stroke-linecap="round" stroke-linejoin="round" stroke-width="3"/>
  </g>
</svg>
