<svg xmlns="http://www.w3.org/2000/svg" width="63.719" height="55.875" viewBox="0 0 63.719 55.875">
  <g id="그룹_78" data-name="그룹 78" transform="translate(-91.452 -453.026)">
    <path id="패스_100" data-name="패스 100" d="M135.779,470.063h14.465a3.429,3.429,0,0,1,3.427,3.431v30.479a3.426,3.426,0,0,1-3.427,3.428H96.38a3.427,3.427,0,0,1-3.428-3.428V473.494a3.43,3.43,0,0,1,3.428-3.431h14.146" fill="none" stroke="#8d8d8d" stroke-linecap="round" stroke-linejoin="round" stroke-width="3"/>
    <path id="패스_101" data-name="패스 101" d="M135.6,507.4H111.024V463.508l12.288-8.982,12.288,8.982V507.4Z" fill="none" stroke="#8d8d8d" stroke-linecap="round" stroke-linejoin="round" stroke-width="3"/>
    <path id="패스_102" data-name="패스 102" d="M127.883,480.352a4.572,4.572,0,1,1-4.571-4.572A4.572,4.572,0,0,1,127.883,480.352Z" fill="none" stroke="#363dc2" stroke-linecap="round" stroke-linejoin="round" stroke-width="3"/>
    <line id="선_38" data-name="선 38" x2="8.001" transform="translate(119.312 493.689)" fill="none" stroke="#363dc2" stroke-linecap="round" stroke-linejoin="round" stroke-width="3"/>
  </g>
</svg>
