<svg xmlns="http://www.w3.org/2000/svg" width="51.668" height="55.925" viewBox="0 0 51.668 55.925">
  <g id="그룹_126" data-name="그룹 126" transform="translate(-858.539 -462.261)">
    <path id="패스_188" data-name="패스 188" d="M908.707,467.134a3.374,3.374,0,0,1-3.374,3.373h-41.92a3.373,3.373,0,0,1-3.374-3.373h0a3.373,3.373,0,0,1,3.374-3.373h41.92a3.374,3.374,0,0,1,3.374,3.373Z" fill="none" stroke="#8d8d8d" stroke-linecap="round" stroke-linejoin="round" stroke-width="3"/>
    <path id="패스_189" data-name="패스 189" d="M905.333,475.385v19.387a3.31,3.31,0,0,1-3.309,3.31h-35.3a3.31,3.31,0,0,1-3.31-3.31V475.385" fill="none" stroke="#8d8d8d" stroke-linecap="round" stroke-linejoin="round" stroke-width="3"/>
    <line id="선_67" data-name="선 67" y2="5.528" transform="translate(884.373 502.864)" fill="none" stroke="#8d8d8d" stroke-linecap="round" stroke-linejoin="round" stroke-width="3"/>
    <path id="패스_190" data-name="패스 190" d="M888.016,513.042a3.643,3.643,0,1,1-3.643-3.644A3.643,3.643,0,0,1,888.016,513.042Z" fill="none" stroke="#8d8d8d" stroke-linecap="round" stroke-linejoin="round" stroke-width="3"/>
    <line id="선_68" data-name="선 68" x2="15" transform="translate(876.873 484.733)" fill="none" stroke="#363dc2" stroke-linecap="round" stroke-linejoin="round" stroke-width="3"/>
  </g>
</svg>
