<svg xmlns="http://www.w3.org/2000/svg" width="52.172" height="54.207" viewBox="0 0 52.172 54.207">
  <g id="그룹_109" data-name="그룹 109" transform="translate(-1223.299 -696.447)">
    <path id="패스_149" data-name="패스 149" d="M1249.385,715.181Z" fill="none" stroke="#8d8d8d" stroke-linecap="round" stroke-linejoin="round" stroke-width="3"/>
    <path id="패스_150" data-name="패스 150" d="M1249.385,715.181l-14.925-8.615V723.8h0l14.925,8.617V715.181Z" fill="none" stroke="#8d8d8d" stroke-linecap="round" stroke-linejoin="round" stroke-width="3"/>
    <path id="패스_151" data-name="패스 151" d="M1249.385,697.947l-14.925,8.619,14.925,8.615h0l14.925-8.617Z" fill="none" stroke="#8d8d8d" stroke-linecap="round" stroke-linejoin="round" stroke-width="3"/>
    <path id="패스_152" data-name="패스 152" d="M1264.31,706.564l-14.925,8.617h0v17.234l14.925-8.617h0V706.564Z" fill="none" stroke="#8d8d8d" stroke-linecap="round" stroke-linejoin="round" stroke-width="3"/>
    <path id="패스_153" data-name="패스 153" d="M1266.771,730.552c4.45,1.973,7.2,4.7,7.2,7.705s-2.75,5.733-7.2,7.7a48.939,48.939,0,0,1-34.77,0c-4.45-1.972-7.2-4.695-7.2-7.7s2.752-5.732,7.2-7.705" fill="none" stroke="#363dc2" stroke-linecap="round" stroke-linejoin="round" stroke-width="3"/>
  </g>
</svg>
