<svg xmlns="http://www.w3.org/2000/svg" width="40.574" height="50.787" viewBox="0 0 40.574 50.787">
  <g id="그룹_65" data-name="그룹 65" transform="translate(-106.599 -303.695)">
    <g id="그룹_64" data-name="그룹 64">
      <path id="패스_86" data-name="패스 86" d="M126.886,305.2A18.785,18.785,0,0,0,108.1,323.982h12.18C120.279,313.6,123.238,305.2,126.886,305.2Z" fill="none" stroke="#fff" stroke-linecap="round" stroke-linejoin="round" stroke-width="3"/>
      <path id="패스_87" data-name="패스 87" d="M120.279,323.982H108.1a18.787,18.787,0,0,0,18.787,18.787C123.238,342.769,120.279,334.359,120.279,323.982Z" fill="none" stroke="#fff" stroke-linecap="round" stroke-linejoin="round" stroke-width="3"/>
      <path id="패스_88" data-name="패스 88" d="M126.886,305.2c3.651,0,6.61,8.408,6.61,18.787h12.177A18.783,18.783,0,0,0,126.886,305.2Z" fill="none" stroke="#fff" stroke-linecap="round" stroke-linejoin="round" stroke-width="3"/>
      <path id="패스_89" data-name="패스 89" d="M126.886,342.769a18.784,18.784,0,0,0,18.787-18.787H133.5C133.5,334.359,130.537,342.769,126.886,342.769Z" fill="none" stroke="#fff" stroke-linecap="round" stroke-linejoin="round" stroke-width="3"/>
      <path id="패스_90" data-name="패스 90" d="M120.279,323.982H133.5c0-10.379-2.959-18.787-6.61-18.787S120.279,313.6,120.279,323.982Z" fill="none" stroke="#fff" stroke-linecap="round" stroke-linejoin="round" stroke-width="3"/>
      <path id="패스_91" data-name="패스 91" d="M133.5,323.982H120.279c0,10.377,2.959,18.787,6.607,18.787S133.5,334.359,133.5,323.982Z" fill="none" stroke="#fff" stroke-linecap="round" stroke-linejoin="round" stroke-width="3"/>
    </g>
    <line id="선_30" data-name="선 30" x2="33" transform="translate(110.386 352.982)" fill="none" stroke="#fff200" stroke-linecap="round" stroke-linejoin="round" stroke-width="3"/>
  </g>
</svg>
