<svg xmlns="http://www.w3.org/2000/svg" width="52.637" height="49.252" viewBox="0 0 52.637 49.252">
  <g id="그룹_88" data-name="그룹 88" transform="translate(-861.595 -693.331)">
    <path id="사각형_17" data-name="사각형 17" d="M5.225,0h.909A5.225,5.225,0,0,1,11.36,5.225V8.345A5.226,5.226,0,0,1,6.135,13.57h-.91A5.225,5.225,0,0,1,0,8.346V5.225A5.225,5.225,0,0,1,5.225,0Z" transform="translate(863.095 708.241)" fill="none" stroke="#363dc2" stroke-linecap="round" stroke-linejoin="round" stroke-width="3"/>
    <path id="패스_120" data-name="패스 120" d="M912.732,698.383c0-2.873-2.152-4.277-4.783-3.121L883.24,706.135a8.721,8.721,0,0,0-4.784,7.33v3.121a8.721,8.721,0,0,0,4.784,7.33l24.709,10.873c2.631,1.157,4.783-.248,4.783-3.121Z" fill="none" stroke="#8d8d8d" stroke-linecap="round" stroke-linejoin="round" stroke-width="3"/>
    <path id="패스_121" data-name="패스 121" d="M865.984,725.2v8.6a6.069,6.069,0,0,0,5.186,5.858l11.386,1.382a4.523,4.523,0,0,0,5.188-4.587v-5.221" fill="none" stroke="#8d8d8d" stroke-linecap="round" stroke-linejoin="round" stroke-width="3"/>
  </g>
</svg>
