<svg xmlns="http://www.w3.org/2000/svg" width="56.566" height="49.993" viewBox="0 0 56.566 49.993">
  <g id="그룹_87" data-name="그룹 87" transform="translate(-218.64 -461.284)">
    <path id="패스_114" data-name="패스 114" d="M267.132,486.28a23.5,23.5,0,1,1-23.5-23.5A23.5,23.5,0,0,1,267.132,486.28Z" fill="none" stroke="#8d8d8d" stroke-linecap="round" stroke-linejoin="round" stroke-width="3"/>
    <path id="패스_115" data-name="패스 115" d="M254.711,491.422a5.141,5.141,0,1,1,5.142-5.142A5.144,5.144,0,0,1,254.711,491.422Z" fill="none" stroke="#363dc2" stroke-linecap="round" stroke-linejoin="round" stroke-width="3"/>
    <path id="패스_116" data-name="패스 116" d="M232.562,491.422a5.141,5.141,0,1,1,5.143-5.142A5.142,5.142,0,0,1,232.562,491.422Z" fill="none" stroke="#363dc2" stroke-linecap="round" stroke-linejoin="round" stroke-width="3"/>
    <path id="패스_117" data-name="패스 117" d="M248.779,475.207a5.143,5.143,0,1,1-5.143-5.143A5.142,5.142,0,0,1,248.779,475.207Z" fill="none" stroke="#363dc2" stroke-linecap="round" stroke-linejoin="round" stroke-width="3"/>
    <path id="패스_118" data-name="패스 118" d="M248.779,497.353a5.143,5.143,0,1,1-5.143-5.143A5.144,5.144,0,0,1,248.779,497.353Z" fill="none" stroke="#363dc2" stroke-linecap="round" stroke-linejoin="round" stroke-width="3"/>
    <path id="패스_119" data-name="패스 119" d="M262.373,500.864h7.333a4,4,0,0,1,0,8h-7.333" fill="none" stroke="#8d8d8d" stroke-linecap="round" stroke-linejoin="round" stroke-width="3"/>
  </g>
</svg>
