<svg xmlns="http://www.w3.org/2000/svg" width="51.957" height="54.479" viewBox="0 0 51.957 54.479">
  <g id="그룹_56" data-name="그룹 56" transform="translate(-353.528 -189.822)">
    <g id="그룹_54" data-name="그룹 54">
      <path id="패스_76" data-name="패스 76" d="M400.036,201.537h2.388a1.56,1.56,0,0,1,1.561,1.56v8.63a1.561,1.561,0,0,1-1.561,1.561h-2.388" fill="none" stroke="#fff200" stroke-linecap="round" stroke-linejoin="round" stroke-width="3"/>
      <path id="패스_77" data-name="패스 77" d="M400.036,219.486h2.388a1.56,1.56,0,0,1,1.561,1.559v8.631a1.561,1.561,0,0,1-1.561,1.561h-2.388" fill="none" stroke="#fff200" stroke-linecap="round" stroke-linejoin="round" stroke-width="3"/>
    </g>
    <rect id="사각형_16" data-name="사각형 16" width="41.035" height="51.479" rx="5.202" transform="translate(355.028 191.322)" fill="none" stroke="#fff" stroke-linecap="round" stroke-linejoin="round" stroke-width="3"/>
    <line id="선_25" data-name="선 25" x2="11.939" transform="translate(363.686 232.357)" fill="none" stroke="#fff" stroke-linecap="round" stroke-linejoin="round" stroke-width="3"/>
    <path id="패스_78" data-name="패스 78" d="M372.826,205.493A3.824,3.824,0,1,1,369,201.668,3.824,3.824,0,0,1,372.826,205.493Z" fill="none" stroke="#fff" stroke-linecap="round" stroke-linejoin="round" stroke-width="3"/>
    <g id="그룹_55" data-name="그룹 55">
      <path id="패스_79" data-name="패스 79" d="M373.521,213.488a3.476,3.476,0,0,0-3.476-3.476h-2.087a3.476,3.476,0,0,0-3.476,3.476v5.91h9.039Z" fill="none" stroke="#fff" stroke-linecap="round" stroke-linejoin="round" stroke-width="3"/>
    </g>
  </g>
</svg>
