<?xml version="1.0" encoding="UTF-8" standalone="no"?>
<svg
   xmlns:dc="http://purl.org/dc/elements/1.1/"
   xmlns:cc="http://creativecommons.org/ns#"
   xmlns:rdf="http://www.w3.org/1999/02/22-rdf-syntax-ns#"
   xmlns:svg="http://www.w3.org/2000/svg"
   xmlns="http://www.w3.org/2000/svg"
   viewBox="0 0 332.77466 39.080002"
   height="39.080002"
   width="332.77466"
   xml:space="preserve"
   id="svg2"
   version="1.1"><metadata
     id="metadata8"><rdf:RDF><cc:Work
         rdf:about=""><dc:format>image/svg+xml</dc:format><dc:type
           rdf:resource="http://purl.org/dc/dcmitype/StillImage" /></cc:Work></rdf:RDF></metadata><defs
     id="defs6"><linearGradient
       id="linearGradient34"
       spreadMethod="pad"
       gradientTransform="matrix(95.360489,0,0,95.360489,3.0141602,15.454102)"
       gradientUnits="userSpaceOnUse"
       y2="0"
       x2="1"
       y1="0"
       x1="0"><stop
         id="stop24"
         offset="0"
         style="stop-opacity:1;stop-color:#008dd1" /><stop
         id="stop26"
         offset="0.107529"
         style="stop-opacity:1;stop-color:#008dd1" /><stop
         id="stop28"
         offset="0.4617761"
         style="stop-opacity:1;stop-color:#00b0f0" /><stop
         id="stop30"
         offset="0.7258"
         style="stop-opacity:1;stop-color:#00b0f0" /><stop
         id="stop32"
         offset="1"
         style="stop-opacity:1;stop-color:#00b0f0" /></linearGradient><clipPath
       id="clipPath44"
       clipPathUnits="userSpaceOnUse"><path
         id="path42"
         d="M 0,29.31 H 249.581 V 0 H 0 Z" /></clipPath></defs><g
     transform="matrix(1.3333333,0,0,-1.3333333,0,39.08)"
     id="g10"><g
       id="g12"><g
         id="g14"><g
           id="g20"><g
             id="g22"><path
               id="path36"
               style="fill:url(#linearGradient34);stroke:none"
               d="M 8.56,28.354 C 6.933,27.689 5.467,26.714 4.175,25.415 v 0 C 2.804,24.071 1.767,22.55 1.059,20.855 v 0 C 0.353,19.158 0,17.362 0,15.475 v 0 c 0,-1.79 0.293,-3.511 0.881,-5.165 v 0 C 1.47,8.709 2.323,7.263 3.431,5.962 v 0 C 4.773,4.477 6.317,3.333 8.063,2.533 v 0 C 9.808,1.732 11.671,1.328 13.654,1.328 v 0 c 3.841,0 7.037,1.323 9.583,3.962 v 0 c 2.057,2.151 3.334,4.881 3.893,8.134 v 0 h 1.71 L 32.502,1.308 h 4.443 L 41.24,19.264 45.427,1.308 h 4.481 l 6.89,23.134 h 7.321 V 1.308 h 5.108 v 23.134 h 9.1 c -0.944,-1.101 -1.745,-2.278 -2.276,-3.599 v 0 c -0.707,-1.697 -1.06,-3.484 -1.06,-5.368 v 0 c 0,-1.785 0.294,-3.504 0.882,-5.153 v 0 c 0.588,-1.6 1.435,-3.044 2.543,-4.34 v 0 c 1.34,-1.481 2.882,-2.621 4.625,-3.423 v 0 c 1.74,-0.8 3.598,-1.198 5.575,-1.198 v 0 c 1.977,0 3.835,0.386 5.576,1.162 v 0 c 1.717,0.779 3.271,1.895 4.66,3.355 v 0 c 1.151,1.269 2.034,2.717 2.645,4.341 v 0 c 0.636,1.642 0.954,3.4 0.954,5.256 v 0 c 0,1.884 -0.364,3.671 -1.093,5.368 v 0 c -0.704,1.669 -1.728,3.175 -3.069,4.516 v 0 c -1.32,1.295 -2.79,2.274 -4.414,2.931 v 0 c -1.583,0.633 -3.258,0.94 -5.013,0.969 v 0 0.033 H 58.242 55.539 53.028 L 47.777,10.527 43.188,29.292 h -3.893 l -4.664,-18.8 -2.037,7.767 H 32.589 27.38 16.392 v -4.835 h 5.663 c -0.324,-1.649 -1.057,-3.135 -2.093,-4.33 v 0 C 19.919,9.039 19.872,8.987 19.828,8.932 v 0 C 19.736,8.831 19.64,8.735 19.543,8.639 v 0 C 19.115,8.188 18.659,7.779 18.145,7.451 v 0 C 17.801,7.232 17.441,7.052 17.065,6.895 v 0 C 16.019,6.413 14.865,6.142 13.654,6.142 v 0 c -2.989,0 -5.618,1.621 -7.161,4.088 v 0 c -0.327,0.51 -0.611,1.053 -0.836,1.64 v 0 c -0.163,0.458 -0.286,0.928 -0.382,1.413 v 0 c -0.017,0.077 -0.035,0.149 -0.05,0.23 v 0 c -0.022,0.124 -0.037,0.253 -0.056,0.384 v 0 c -0.027,0.19 -0.054,0.382 -0.071,0.575 v 0 c -0.01,0.107 -0.01,0.221 -0.014,0.332 v 0 c -0.009,0.162 -0.025,0.322 -0.025,0.488 v 0 c 0,0.012 0.002,0.024 0.002,0.042 v 0 c 0,0.038 -0.002,0.068 -0.002,0.105 v 0 c 0,1.205 0.222,2.362 0.668,3.469 v 0 c 0.305,0.746 0.71,1.435 1.206,2.074 v 0 c 0.045,0.058 0.085,0.118 0.128,0.172 v 0 c 0.041,0.05 0.08,0.097 0.121,0.147 v 0 c 1.578,1.918 3.89,3.138 6.472,3.138 v 0 c 0.973,0 1.905,-0.179 2.779,-0.499 v 0 c 0.319,-0.101 0.634,-0.222 0.931,-0.361 v 0 c 1.084,-0.52 2.076,-1.359 2.971,-2.513 v 0 h 5.838 c -1.23,2.735 -2.887,4.796 -4.988,6.19 v 0 c -2.075,1.366 -4.48,2.053 -7.216,2.053 v 0 c -1.978,0 -3.782,-0.321 -5.409,-0.955 M 82.385,17.605 c 0,3.56 2.884,6.448 6.443,6.448 v 0 c 3.561,0 6.447,-2.888 6.447,-6.448 v 0 c 0,-4.762 -5.996,-11.096 -6.391,-11.096 v 0 c -0.586,0 -6.499,6.277 -6.499,11.096" /></g></g></g></g><g
       id="g38"><g
         clip-path="url(#clipPath44)"
         id="g40"><g
           transform="translate(92.3535,17.8008)"
           id="g46"><path
             id="path48"
             style="fill:#ee3338;fill-opacity:1;fill-rule:nonzero;stroke:none"
             d="m 0,0 c 0,-1.945 -1.577,-3.522 -3.526,-3.522 -1.945,0 -3.523,1.577 -3.523,3.522 0,1.949 1.578,3.525 3.523,3.525 C -1.577,3.525 0,1.949 0,0" /></g><g
           transform="translate(129.7461,18.5791)"
           id="g50"><path
             id="path52"
             style="fill:#5e5f60;fill-opacity:1;fill-rule:nonzero;stroke:none"
             d="M 0,0 H -3.225 V 9.751 H 0 V 6.522 h 0.91 c 0.111,0 0.246,0.008 0.406,0.023 0.161,0.014 0.303,0.059 0.428,0.131 V 3.688 C 1.607,3.614 1.453,3.567 1.279,3.545 1.107,3.523 0.953,3.513 0.816,3.513 H 0 Z m -5.673,-5.082 c 0.889,0 1.523,0.061 1.9,0.186 0.378,0.123 0.566,0.395 0.566,0.817 0,0.422 -0.188,0.702 -0.566,0.84 -0.377,0.138 -1.011,0.208 -1.9,0.208 h -4.488 c -0.889,0 -1.522,-0.07 -1.899,-0.208 -0.377,-0.138 -0.566,-0.418 -0.566,-0.84 0,-0.422 0.189,-0.694 0.566,-0.817 0.377,-0.125 1.01,-0.186 1.899,-0.186 z m -4.488,-2.727 c -0.964,0 -1.807,0.055 -2.531,0.163 -0.723,0.11 -1.325,0.306 -1.808,0.589 -0.481,0.286 -0.845,0.666 -1.092,1.146 -0.248,0.479 -0.371,1.091 -0.371,1.832 0,0.742 0.123,1.352 0.371,1.833 0.247,0.479 0.611,0.861 1.092,1.144 0.483,0.285 1.085,0.481 1.808,0.589 0.724,0.11 1.567,0.164 2.531,0.164 h 4.488 c 0.965,0 1.807,-0.054 2.53,-0.164 0.725,-0.108 1.327,-0.304 1.809,-0.589 0.482,-0.283 0.846,-0.665 1.094,-1.144 0.246,-0.481 0.371,-1.091 0.371,-1.833 0,-0.741 -0.125,-1.353 -0.371,-1.832 -0.248,-0.48 -0.612,-0.86 -1.094,-1.146 -0.482,-0.283 -1.084,-0.479 -1.809,-0.589 -0.723,-0.108 -1.565,-0.163 -2.53,-0.163 z M -4.375,9.38 c 0,-1.323 -0.17,-2.469 -0.51,-3.436 C -5.225,4.979 -5.692,4.156 -6.286,3.479 -6.878,2.804 -7.568,2.254 -8.352,1.833 -9.137,1.411 -9.972,1.084 -10.856,0.852 -11.74,0.618 -12.655,0.466 -13.599,0.393 -14.545,0.32 -15.462,0.291 -16.353,0.306 v 2.618 c 1.125,0.014 2.153,0.097 3.087,0.25 0.933,0.153 1.759,0.382 2.475,0.687 0.717,0.306 1.317,0.695 1.798,1.167 0.483,0.473 0.835,1.051 1.058,1.735 h -7.824 V 9.38 Z" /></g><g
           transform="translate(150.0313,15.0889)"
           id="g54"><path
             id="path56"
             style="fill:#5e5f60;fill-opacity:1;fill-rule:nonzero;stroke:none"
             d="m 0,0 h -3.227 v 0.219 h -4.154 v 2.378 h 4.154 V 13.241 H 0 Z m -10.125,8.944 c 0.742,0 1.297,0.069 1.66,0.207 0.365,0.138 0.547,0.389 0.547,0.753 0,0.364 -0.182,0.617 -0.547,0.763 -0.363,0.146 -0.918,0.219 -1.66,0.219 h -1.223 c -0.742,0 -1.295,-0.073 -1.66,-0.219 -0.363,-0.146 -0.547,-0.399 -0.547,-0.763 0,-0.364 0.184,-0.615 0.547,-0.753 0.365,-0.138 0.918,-0.207 1.66,-0.207 z M 0.186,-4.014 h -14.038 c -0.628,0 -1.074,0.15 -1.334,0.448 -0.259,0.298 -0.388,0.746 -0.388,1.341 v 2.989 h 3.224 v -1.702 c 0,-0.204 0.1,-0.305 0.297,-0.305 H 0.186 Z M -11.348,6.479 c -0.927,0 -1.73,0.04 -2.41,0.12 -0.68,0.08 -1.236,0.244 -1.67,0.491 -0.431,0.247 -0.754,0.593 -0.963,1.036 -0.211,0.443 -0.314,1.036 -0.314,1.778 0,0.742 0.103,1.337 0.314,1.788 0.209,0.452 0.532,0.8 0.963,1.047 0.434,0.247 0.99,0.411 1.67,0.491 0.68,0.081 1.483,0.121 2.41,0.121 h 1.223 c 0.928,0 1.73,-0.04 2.412,-0.121 0.68,-0.08 1.234,-0.244 1.668,-0.491 0.434,-0.247 0.754,-0.595 0.965,-1.047 0.209,-0.451 0.314,-1.046 0.314,-1.788 0,-0.742 -0.105,-1.335 -0.314,-1.778 C -5.291,7.683 -5.611,7.337 -6.045,7.09 -6.479,6.843 -7.033,6.679 -7.713,6.599 -8.395,6.519 -9.197,6.479 -10.125,6.479 Z M -3.783,3.534 C -4.092,3.49 -4.43,3.45 -4.793,3.414 -5.158,3.378 -5.535,3.353 -5.924,3.338 -6.313,3.323 -6.699,3.313 -7.084,3.306 -7.467,3.298 -7.83,3.294 -8.178,3.294 H -9.346 V 1.113 h -3.133 v 2.181 h -4.375 v 2.553 h 8.676 c 0.285,0 0.619,0.003 1.002,0.01 0.383,0.007 0.776,0.018 1.176,0.033 0.402,0.014 0.799,0.036 1.187,0.065 0.391,0.029 0.733,0.066 1.03,0.109 z" /></g><g
           transform="translate(169.8711,11.5557)"
           id="g58"><path
             id="path60"
             style="fill:#5e5f60;fill-opacity:1;fill-rule:nonzero;stroke:none"
             d="m 0,0 h -17.355 v 2.901 h 7.212 v 3.185 h -4.06 c -0.371,0 -0.68,0.032 -0.928,0.098 -0.246,0.065 -0.445,0.178 -0.592,0.337 -0.15,0.161 -0.254,0.375 -0.316,0.645 -0.063,0.269 -0.092,0.6 -0.092,0.992 v 8.399 H -1.225 V 13.655 H -12.906 V 9.619 c 0,-0.247 0.035,-0.414 0.103,-0.501 0.067,-0.088 0.207,-0.131 0.416,-0.131 H -1.094 V 6.086 H -6.842 V 2.901 l 6.842,0 z" /></g><g
           transform="translate(188.5801,15.918)"
           id="g62"><path
             id="path64"
             style="fill:#5e5f60;fill-opacity:1;fill-rule:nonzero;stroke:none"
             d="M 0,0 H -3.227 V 12.412 H 0 V 8.573 h 0.908 c 0.112,0 0.246,0.007 0.406,0.022 0.163,0.014 0.303,0.057 0.428,0.131 V 5.737 C 1.605,5.664 1.451,5.617 1.277,5.596 1.105,5.573 0.951,5.562 0.814,5.562 H 0 Z M 0.186,-4.843 H -13.76 c -0.629,0 -1.074,0.15 -1.334,0.447 -0.26,0.299 -0.388,0.747 -0.388,1.342 v 3.708 h 3.224 v -2.311 c 0,-0.204 0.1,-0.306 0.299,-0.306 H 0.186 Z m -8.29,10.188 c 0.038,0.232 0.071,0.523 0.104,0.872 0.029,0.349 0.061,0.717 0.092,1.101 0.029,0.386 0.053,0.764 0.064,1.135 0.012,0.371 0.018,0.694 0.018,0.971 h -8.158 v 2.748 H -4.6 c 0.012,-0.524 0.012,-1.123 0,-1.799 C -4.611,9.696 -4.633,9.031 -4.664,8.377 -4.695,7.723 -4.732,7.122 -4.775,6.577 -4.818,6.031 -4.865,5.621 -4.914,5.345 Z M -3.783,1.833 C -4.092,1.789 -4.43,1.749 -4.795,1.713 -5.158,1.676 -5.535,1.647 -5.926,1.625 -6.314,1.604 -6.701,1.585 -7.084,1.571 -7.467,1.557 -7.832,1.549 -8.178,1.549 h -8.418 v 2.814 h 3.078 v 3.141 h 3.227 V 4.363 h 2.113 c 0.283,0 0.617,0.003 1.002,0.011 0.383,0.007 0.776,0.022 1.178,0.044 0.4,0.02 0.797,0.051 1.185,0.087 0.389,0.036 0.733,0.076 1.03,0.12 z" /></g><g
           transform="translate(208.4746,17.6855)"
           id="g66"><path
             id="path68"
             style="fill:#5e5f60;fill-opacity:1;fill-rule:nonzero;stroke:none"
             d="M 0,0 H -3.227 V 10.645 H 0 V 7.569 h 0.908 c 0.112,0 0.248,0.007 0.408,0.022 0.161,0.014 0.303,0.057 0.426,0.131 V 4.733 C 1.607,4.66 1.451,4.613 1.279,4.592 1.105,4.569 0.951,4.559 0.816,4.559 H 0 Z m -5.785,-4.516 c 0.494,0 0.908,0.018 1.242,0.055 0.334,0.036 0.6,0.09 0.797,0.163 0.197,0.072 0.336,0.171 0.418,0.295 0.08,0.123 0.119,0.273 0.119,0.447 0,0.174 -0.039,0.324 -0.119,0.448 -0.082,0.123 -0.221,0.22 -0.418,0.294 -0.197,0.072 -0.463,0.126 -0.797,0.164 -0.334,0.036 -0.748,0.053 -1.242,0.053 h -4.654 c -0.495,0 -0.903,-0.017 -1.225,-0.053 -0.32,-0.038 -0.574,-0.092 -0.76,-0.164 -0.185,-0.074 -0.312,-0.171 -0.379,-0.294 -0.068,-0.124 -0.103,-0.274 -0.103,-0.448 0,-0.174 0.035,-0.324 0.103,-0.447 0.067,-0.124 0.194,-0.223 0.379,-0.295 0.186,-0.073 0.44,-0.127 0.76,-0.163 0.322,-0.037 0.73,-0.055 1.225,-0.055 z m -2.319,8.791 c 0.075,0.465 0.141,1.025 0.196,1.68 0.054,0.654 0.082,1.257 0.082,1.811 h -8.158 v 2.638 h 11.386 c 0.012,-0.523 0.012,-1.087 0,-1.69 C -4.611,8.11 -4.633,7.525 -4.664,6.958 -4.695,6.391 -4.732,5.871 -4.775,5.398 -4.818,4.926 -4.865,4.551 -4.914,4.275 Z m -2.335,-11.19 c -1.038,0 -1.926,0.058 -2.661,0.174 -0.736,0.117 -1.336,0.305 -1.798,0.567 -0.465,0.262 -0.805,0.608 -1.02,1.036 -0.217,0.429 -0.324,0.956 -0.324,1.582 0,0.625 0.107,1.153 0.324,1.581 0.215,0.429 0.555,0.775 1.02,1.037 0.462,0.261 1.062,0.45 1.798,0.567 0.735,0.116 1.623,0.175 2.661,0.175 h 4.654 c 1.037,0 1.93,-0.059 2.68,-0.175 0.746,-0.117 1.359,-0.306 1.835,-0.567 0.475,-0.262 0.827,-0.608 1.057,-1.037 0.229,-0.428 0.342,-0.956 0.342,-1.581 0,-0.626 -0.113,-1.153 -0.342,-1.582 -0.23,-0.428 -0.582,-0.774 -1.057,-1.036 -0.476,-0.262 -1.089,-0.45 -1.835,-0.567 -0.75,-0.116 -1.643,-0.174 -2.68,-0.174 z m 6.656,7.874 C -4.092,0.916 -4.43,0.876 -4.793,0.84 -5.158,0.803 -5.535,0.774 -5.924,0.752 -6.314,0.73 -6.701,0.712 -7.084,0.697 -7.467,0.683 -7.832,0.676 -8.178,0.676 h -8.418 v 2.617 h 3.078 v 3.251 h 3.227 V 3.293 h 2.113 c 0.285,0 0.619,0.004 1.002,0.012 0.383,0.007 0.776,0.021 1.178,0.043 0.4,0.022 0.797,0.05 1.185,0.088 0.391,0.036 0.733,0.076 1.03,0.12 z" /></g><g
           transform="translate(228.7949,10.748)"
           id="g70"><path
             id="path72"
             style="fill:#5e5f60;fill-opacity:1;fill-rule:nonzero;stroke:none"
             d="m 0,0 h -3.002 v 8.158 h -1.15 V 0.327 h -3.004 v 17.255 h 3.004 v -6.413 h 1.15 v 6.413 H 0 Z m -7.545,1.462 c -0.482,0.059 -0.961,0.2 -1.437,0.426 -0.477,0.224 -0.918,0.515 -1.327,0.872 -0.408,0.356 -0.767,0.766 -1.074,1.232 -0.31,0.465 -0.539,0.967 -0.687,1.505 C -12.293,4.843 -12.576,4.258 -12.922,3.741 -13.27,3.225 -13.658,2.785 -14.09,2.422 -14.523,2.058 -14.996,1.771 -15.51,1.56 -16.023,1.35 -16.557,1.215 -17.113,1.156 v 3.142 c 0.482,0.174 0.937,0.494 1.363,0.96 0.426,0.465 0.797,1.036 1.113,1.712 0.315,0.676 0.565,1.443 0.75,2.301 0.186,0.858 0.278,1.759 0.278,2.705 v 2.16 h -3.096 v 2.923 h 8.752 v -2.923 h -2.652 v -2.16 c 0,-0.946 0.056,-1.822 0.167,-2.628 0.11,-0.808 0.288,-1.528 0.528,-2.161 0.242,-0.631 0.556,-1.169 0.945,-1.614 0.391,-0.443 0.863,-0.766 1.42,-0.97 z" /></g><g
           transform="translate(247.7441,15.918)"
           id="g74"><path
             id="path76"
             style="fill:#5e5f60;fill-opacity:1;fill-rule:nonzero;stroke:none"
             d="M 0,0 H -3.225 V 12.412 H 0 V 8.747 H 1.002 C 1.113,8.747 1.25,8.755 1.41,8.77 1.57,8.783 1.713,8.827 1.836,8.9 V 5.912 C 1.701,5.839 1.545,5.792 1.373,5.77 1.199,5.748 1.045,5.737 0.91,5.737 H 0 Z m 0.186,-4.843 h -13.647 c -0.629,0 -1.076,0.15 -1.334,0.447 -0.26,0.299 -0.391,0.747 -0.391,1.342 v 4.385 h 3.227 v -2.88 c 0,-0.203 0.1,-0.305 0.297,-0.305 H 0.186 Z M -3.967,2.813 C -4.141,2.771 -4.363,2.734 -4.635,2.705 -4.906,2.676 -5.197,2.658 -5.506,2.65 -5.816,2.644 -6.127,2.636 -6.443,2.629 -6.758,2.621 -7.045,2.618 -7.305,2.618 h -6.972 c -0.371,0 -0.68,0.032 -0.926,0.098 -0.248,0.065 -0.445,0.178 -0.594,0.338 -0.148,0.16 -0.254,0.375 -0.314,0.643 -0.063,0.27 -0.094,0.601 -0.094,0.993 v 7.351 H -5.377 V 9.206 h -7.527 v -3.12 c 0,-0.247 0.033,-0.414 0.101,-0.501 0.069,-0.088 0.207,-0.131 0.418,-0.131 h 5.08 c 0.235,0 0.508,0.003 0.817,0.011 0.308,0.007 0.617,0.017 0.925,0.032 0.311,0.015 0.606,0.033 0.891,0.055 0.285,0.021 0.52,0.054 0.705,0.098 z" /></g><g
           transform="translate(119.2339,7.3818)"
           id="g78"><path
             id="path80"
             style="fill:#5e5f60;fill-opacity:1;fill-rule:nonzero;stroke:none"
             d="m 0,0 c -0.496,0.321 -1.123,0.482 -1.881,0.482 -0.416,0 -0.793,-0.07 -1.132,-0.211 -0.339,-0.14 -0.625,-0.335 -0.859,-0.584 -0.241,-0.248 -0.428,-0.541 -0.559,-0.879 -0.131,-0.338 -0.196,-0.705 -0.196,-1.101 0,-0.416 0.067,-0.795 0.201,-1.137 0.135,-0.341 0.325,-0.636 0.573,-0.884 0.249,-0.249 0.543,-0.44 0.885,-0.574 0.343,-0.134 0.722,-0.201 1.138,-0.201 0.167,0 0.357,0.006 0.572,0.02 0.215,0.013 0.4,0.053 0.554,0.121 v 2.363 H -1.479 -1.86 c -0.116,0 -0.24,-0.007 -0.372,-0.02 v 0.825 c 0.154,-0.014 0.288,-0.021 0.402,-0.021 h 0.401 1.651 C 0.207,-1.975 0.2,-2.145 0.2,-2.309 v -0.498 -2.785 c -0.193,-0.067 -0.466,-0.135 -0.813,-0.201 -0.35,-0.067 -0.788,-0.101 -1.319,-0.101 -0.529,0 -1.015,0.084 -1.458,0.251 -0.442,0.168 -0.825,0.41 -1.146,0.725 -0.321,0.308 -0.571,0.684 -0.749,1.126 -0.178,0.442 -0.267,0.942 -0.267,1.499 0,0.543 0.089,1.034 0.267,1.473 0.178,0.439 0.428,0.816 0.749,1.133 0.321,0.307 0.704,0.546 1.146,0.717 0.443,0.171 0.929,0.257 1.458,0.257 0.356,0 0.692,-0.025 1.006,-0.075 0.316,-0.051 0.651,-0.14 1.006,-0.267 z" /></g><g
           transform="translate(123.7192,4.0527)"
           id="g82"><path
             id="path84"
             style="fill:#5e5f60;fill-opacity:1;fill-rule:nonzero;stroke:none"
             d="M 0,0 C -0.101,0.007 -0.215,0.012 -0.342,0.015 -0.469,0.019 -0.583,0.02 -0.684,0.02 -0.818,0.02 -0.991,0.012 -1.202,-0.005 -1.413,-0.021 -1.619,-0.063 -1.82,-0.131 -2.021,-0.198 -2.196,-0.3 -2.343,-0.437 c -0.148,-0.138 -0.221,-0.324 -0.221,-0.559 0,-0.141 0.033,-0.265 0.1,-0.372 0.067,-0.108 0.151,-0.197 0.252,-0.272 0.1,-0.073 0.211,-0.129 0.331,-0.166 0.121,-0.036 0.238,-0.054 0.352,-0.054 0.483,0 0.859,0.131 1.127,0.396 C -0.134,-1.198 0,-0.872 0,-0.482 Z m -3.007,2.232 c 0.235,0.155 0.514,0.279 0.84,0.372 0.325,0.094 0.648,0.141 0.97,0.141 0.751,0 1.286,-0.176 1.604,-0.527 C 0.726,1.865 0.885,1.344 0.885,0.653 v -2.242 c 0,-0.154 0.003,-0.315 0.01,-0.483 0.007,-0.167 0.017,-0.291 0.03,-0.372 H 0.09 L 0.07,-1.74 c -0.06,-0.087 -0.144,-0.18 -0.251,-0.277 -0.108,-0.097 -0.231,-0.185 -0.372,-0.266 -0.141,-0.08 -0.299,-0.148 -0.473,-0.201 -0.174,-0.054 -0.362,-0.08 -0.563,-0.08 -0.288,0 -0.55,0.03 -0.785,0.089 -0.234,0.061 -0.432,0.155 -0.593,0.283 -0.167,0.127 -0.297,0.29 -0.387,0.487 -0.09,0.198 -0.136,0.434 -0.136,0.709 0,0.315 0.081,0.579 0.241,0.79 0.162,0.211 0.363,0.384 0.603,0.518 0.242,0.126 0.502,0.217 0.78,0.271 0.279,0.054 0.538,0.081 0.78,0.081 L 0,0.644 c -0.014,0.442 -0.119,0.786 -0.317,1.031 -0.198,0.244 -0.538,0.367 -1.02,0.367 -0.255,0 -0.536,-0.055 -0.84,-0.161 C -2.482,1.773 -2.742,1.64 -2.957,1.479 Z" /></g><g
           transform="translate(126.4434,5.833)"
           id="g86"><path
             id="path88"
             style="fill:#5e5f60;fill-opacity:1;fill-rule:nonzero;stroke:none"
             d="m 0,0 c 0.021,0.066 0.039,0.119 0.057,0.155 0.015,0.037 0.039,0.074 0.064,0.107 0.336,0.468 0.861,0.703 1.58,0.703 0.656,0 1.137,-0.191 1.438,-0.573 0.302,-0.382 0.453,-0.915 0.453,-1.599 v -2.012 -0.508 c 0,-0.164 0.006,-0.33 0.019,-0.498 H 2.676 c 0.019,0.329 0.031,0.664 0.031,1.006 V -1.6 c 0,0.624 -0.082,1.083 -0.242,1.378 C 2.305,0.073 2.01,0.234 1.58,0.262 1.324,0.262 1.102,0.209 0.906,0.105 0.713,0.001 0.547,-0.145 0.414,-0.332 0.279,-0.526 0.178,-0.755 0.107,-1.016 0.035,-1.277 0,-1.565 0,-1.881 v -1.338 -0.508 c 0,-0.164 0.008,-0.33 0.021,-0.498 h -0.936 c 0.021,0.329 0.031,0.664 0.031,1.006 v 3.058 c 0,0.174 -0.002,0.342 -0.005,0.503 -0.004,0.161 -0.012,0.328 -0.026,0.503 H 0.021 C 0.016,0.758 0.01,0.693 0.006,0.653 0.004,0.613 0,0.576 0,0.543 Z" /></g><g
           transform="translate(131.6543,4.374)"
           id="g90"><path
             id="path92"
             style="fill:#5e5f60;fill-opacity:1;fill-rule:nonzero;stroke:none"
             d="m 0,0 c 0,-0.482 0.121,-0.88 0.367,-1.191 0.244,-0.312 0.617,-0.468 1.121,-0.468 0.502,0 0.879,0.154 1.131,0.463 C 2.871,-0.888 2.996,-0.489 2.996,0 2.996,0.222 2.965,0.435 2.9,0.639 2.836,0.844 2.746,1.026 2.625,1.188 2.498,1.348 2.338,1.478 2.146,1.574 1.955,1.672 1.736,1.721 1.488,1.721 1.232,1.721 1.012,1.677 0.824,1.59 0.637,1.502 0.482,1.382 0.361,1.228 0.24,1.066 0.15,0.882 0.09,0.674 0.029,0.467 0,0.242 0,0 m 3.902,-2.102 c 0,-0.737 -0.218,-1.3 -0.654,-1.689 -0.435,-0.389 -1.096,-0.583 -1.982,-0.583 -0.133,0 -0.266,0.003 -0.397,0.01 -0.131,0.007 -0.265,0.023 -0.408,0.05 -0.139,0.027 -0.293,0.062 -0.457,0.106 -0.164,0.043 -0.346,0.102 -0.547,0.176 l 0.1,0.794 c 0.168,-0.075 0.324,-0.139 0.472,-0.196 0.147,-0.057 0.293,-0.102 0.432,-0.136 0.143,-0.034 0.287,-0.059 0.434,-0.076 0.146,-0.016 0.308,-0.025 0.482,-0.025 0.502,0 0.902,0.142 1.197,0.423 0.295,0.281 0.442,0.697 0.442,1.247 v 0.563 C 2.99,-1.512 2.963,-1.568 2.938,-1.608 2.762,-1.823 2.537,-2.003 2.262,-2.146 1.988,-2.291 1.656,-2.363 1.266,-2.363 c -0.348,0 -0.659,0.06 -0.93,0.181 -0.272,0.119 -0.502,0.288 -0.688,0.503 -0.189,0.207 -0.332,0.452 -0.427,0.734 -0.098,0.282 -0.147,0.58 -0.147,0.895 0,0.349 0.049,0.674 0.147,0.976 0.095,0.302 0.238,0.563 0.427,0.784 0.186,0.222 0.416,0.395 0.688,0.523 0.271,0.127 0.582,0.191 0.93,0.191 0.248,0 0.461,-0.022 0.64,-0.066 C 2.082,2.315 2.236,2.257 2.363,2.183 2.49,2.109 2.6,2.027 2.689,1.938 2.781,1.846 2.865,1.757 2.947,1.67 2.98,1.637 3.014,1.572 3.047,1.479 L 3.037,1.7 C 3.029,1.761 3.029,1.85 3.031,1.967 3.035,2.084 3.029,2.196 3.016,2.304 H 3.932 C 3.912,1.968 3.902,1.633 3.902,1.298 Z" /></g><g
           transform="translate(142.1836,1.6084)"
           id="g94"><path
             id="path96"
             style="fill:#5e5f60;fill-opacity:1;fill-rule:nonzero;stroke:none"
             d="M 0,0 H -1.066 L -2.303,4.174 C -2.316,4.229 -2.326,4.278 -2.332,4.325 -2.34,4.372 -2.348,4.422 -2.354,4.476 -2.359,4.442 -2.367,4.391 -2.373,4.32 -2.381,4.249 -2.391,4.197 -2.404,4.164 L -3.58,0 h -1.086 l -1.498,5.069 h 0.943 l 1.098,-4.083 c 0.006,-0.027 0.014,-0.062 0.019,-0.106 0.006,-0.043 0.014,-0.099 0.022,-0.165 0.006,0.059 0.012,0.111 0.019,0.155 0.006,0.044 0.012,0.079 0.02,0.106 l 1.166,4.093 h 1.137 l 1.187,-4.103 c 0.006,-0.027 0.014,-0.064 0.02,-0.111 0.008,-0.046 0.013,-0.087 0.019,-0.121 0,0.034 0.006,0.079 0.016,0.131 0.01,0.054 0.019,0.091 0.025,0.111 l 1.086,4.093 h 0.866 z" /></g><g
           transform="translate(144.7891,4.1436)"
           id="g98"><path
             id="path100"
             style="fill:#5e5f60;fill-opacity:1;fill-rule:nonzero;stroke:none"
             d="M 0,0 C 0,-0.235 0.029,-0.468 0.09,-0.699 0.15,-0.931 0.244,-1.141 0.371,-1.328 0.5,-1.516 0.664,-1.667 0.865,-1.78 c 0.201,-0.115 0.442,-0.171 0.723,-0.171 0.283,0 0.521,0.056 0.719,0.171 0.199,0.113 0.365,0.264 0.498,0.452 0.127,0.187 0.222,0.397 0.281,0.629 C 3.148,-0.468 3.178,-0.235 3.178,0 3.178,0.248 3.143,0.489 3.072,0.724 3.002,0.958 2.898,1.166 2.766,1.348 2.631,1.528 2.465,1.674 2.268,1.785 2.07,1.896 1.844,1.951 1.588,1.951 1.334,1.951 1.107,1.896 0.91,1.785 0.711,1.674 0.545,1.528 0.412,1.348 0.277,1.166 0.176,0.958 0.105,0.724 0.035,0.489 0,0.248 0,0 m -0.926,0 c 0,0.389 0.061,0.745 0.182,1.07 0.119,0.326 0.291,0.606 0.514,0.84 0.22,0.236 0.484,0.418 0.793,0.549 0.308,0.13 0.65,0.195 1.025,0.195 0.375,0 0.717,-0.065 1.027,-0.195 C 2.922,2.328 3.188,2.146 3.408,1.91 3.629,1.676 3.801,1.396 3.922,1.07 4.043,0.745 4.104,0.389 4.104,0 4.104,-0.369 4.041,-0.715 3.916,-1.036 3.793,-1.358 3.621,-1.64 3.398,-1.881 3.178,-2.122 2.912,-2.313 2.604,-2.449 2.295,-2.587 1.957,-2.655 1.588,-2.655 c -0.375,0 -0.717,0.068 -1.025,0.206 -0.309,0.136 -0.573,0.327 -0.793,0.568 -0.223,0.241 -0.395,0.523 -0.514,0.845 -0.121,0.321 -0.182,0.667 -0.182,1.036" /></g><g
           transform="translate(150.5313,5.833)"
           id="g102"><path
             id="path104"
             style="fill:#5e5f60;fill-opacity:1;fill-rule:nonzero;stroke:none"
             d="M 0,0 C 0.021,0.066 0.039,0.119 0.055,0.155 0.072,0.192 0.094,0.229 0.121,0.262 0.455,0.73 0.982,0.965 1.699,0.965 2.357,0.965 2.836,0.774 3.137,0.392 3.439,0.01 3.59,-0.523 3.59,-1.207 v -2.012 -0.508 c 0,-0.164 0.006,-0.33 0.021,-0.498 H 2.674 c 0.021,0.329 0.031,0.664 0.031,1.006 V -1.6 c 0,0.624 -0.08,1.083 -0.242,1.378 C 2.303,0.073 2.008,0.234 1.578,0.262 1.324,0.262 1.1,0.209 0.904,0.105 0.711,0.001 0.545,-0.145 0.412,-0.332 0.277,-0.526 0.176,-0.755 0.105,-1.016 0.035,-1.277 0,-1.565 0,-1.881 v -1.338 -0.508 c 0,-0.164 0.006,-0.33 0.021,-0.498 h -0.937 c 0.021,0.329 0.031,0.664 0.031,1.006 v 3.058 c 0,0.174 -0.002,0.342 -0.006,0.503 -0.004,0.161 -0.011,0.328 -0.025,0.503 H 0.021 C 0.014,0.758 0.008,0.693 0.004,0.653 0.002,0.613 0,0.576 0,0.543 Z" /></g><g
           transform="translate(160.2773,7.7432)"
           id="g106"><path
             id="path108"
             style="fill:#5e5f60;fill-opacity:1;fill-rule:nonzero;stroke:none"
             d="m 0,0 v -5.129 c 0,-0.174 0,-0.342 0.004,-0.503 0.004,-0.16 0.012,-0.328 0.025,-0.503 h -0.996 c 0.022,0.128 0.031,0.283 0.035,0.468 0.004,0.185 0.006,0.364 0.006,0.538 V 0 h -1.449 -0.383 c -0.113,0 -0.236,-0.006 -0.371,-0.02 v 0.845 c 0.154,-0.013 0.287,-0.02 0.402,-0.02 h 0.403 3.72 0.399 c 0.115,0 0.252,0.007 0.406,0.02 V -0.02 C 2.061,-0.006 1.936,0 1.824,0 H 1.447 Z" /></g><g
           transform="translate(163.6152,4.1436)"
           id="g110"><path
             id="path112"
             style="fill:#5e5f60;fill-opacity:1;fill-rule:nonzero;stroke:none"
             d="M 0,0 C 0,-0.235 0.029,-0.468 0.09,-0.699 0.15,-0.931 0.244,-1.141 0.371,-1.328 0.5,-1.516 0.664,-1.667 0.865,-1.78 1.066,-1.895 1.307,-1.951 1.59,-1.951 c 0.281,0 0.519,0.056 0.719,0.171 0.197,0.113 0.363,0.264 0.498,0.452 0.127,0.187 0.22,0.397 0.281,0.629 0.06,0.231 0.09,0.464 0.09,0.699 0,0.248 -0.035,0.489 -0.106,0.724 C 3.002,0.958 2.898,1.166 2.766,1.348 2.631,1.528 2.465,1.674 2.268,1.785 2.07,1.896 1.844,1.951 1.59,1.951 1.334,1.951 1.107,1.896 0.91,1.785 0.713,1.674 0.547,1.528 0.412,1.348 0.277,1.166 0.176,0.958 0.105,0.724 0.035,0.489 0,0.248 0,0 m -0.926,0 c 0,0.389 0.061,0.745 0.182,1.07 0.121,0.326 0.291,0.606 0.514,0.84 0.22,0.236 0.484,0.418 0.793,0.549 0.308,0.13 0.65,0.195 1.027,0.195 0.375,0 0.717,-0.065 1.025,-0.195 C 2.924,2.328 3.188,2.146 3.408,1.91 3.631,1.676 3.801,1.396 3.922,1.07 4.043,0.745 4.104,0.389 4.104,0 4.104,-0.369 4.041,-0.715 3.916,-1.036 3.793,-1.358 3.621,-1.64 3.398,-1.881 3.178,-2.122 2.912,-2.313 2.604,-2.449 2.297,-2.587 1.957,-2.655 1.59,-2.655 c -0.377,0 -0.719,0.068 -1.027,0.206 -0.309,0.136 -0.573,0.327 -0.793,0.568 -0.223,0.241 -0.393,0.523 -0.514,0.845 -0.121,0.321 -0.182,0.667 -0.182,1.036" /></g><g
           transform="translate(172.0137,2.4531)"
           id="g114"><path
             id="path116"
             style="fill:#5e5f60;fill-opacity:1;fill-rule:nonzero;stroke:none"
             d="m 0,0 c -0.021,-0.066 -0.039,-0.119 -0.057,-0.155 -0.015,-0.037 -0.039,-0.073 -0.064,-0.106 -0.336,-0.469 -0.861,-0.704 -1.58,-0.704 -0.656,0 -1.137,0.191 -1.438,0.573 -0.3,0.382 -0.453,0.915 -0.453,1.599 v 2.012 0.508 c 0,0.164 -0.006,0.33 -0.019,0.498 h 0.935 C -2.695,3.889 -2.707,3.554 -2.707,3.219 V 1.6 c 0,-0.624 0.082,-1.083 0.242,-1.378 0.16,-0.295 0.455,-0.456 0.885,-0.483 0.248,0 0.471,0.052 0.67,0.156 0.197,0.104 0.363,0.252 0.496,0.448 0.135,0.187 0.236,0.412 0.309,0.674 C -0.035,1.277 0,1.565 0,1.881 v 1.338 0.508 c 0,0.164 -0.008,0.33 -0.021,0.498 H 0.914 C 0.895,3.889 0.885,3.554 0.885,3.219 V 0.161 c 0,-0.174 0.002,-0.342 0.004,-0.503 0.004,-0.16 0.011,-0.328 0.025,-0.503 h -0.935 c 0.005,0.088 0.011,0.152 0.015,0.192 0.002,0.04 0.006,0.077 0.006,0.11 z" /></g><g
           transform="translate(176.3164,6.0342)"
           id="g118"><path
             id="path120"
             style="fill:#5e5f60;fill-opacity:1;fill-rule:nonzero;stroke:none"
             d="m 0,0 c -0.215,0 -0.414,-0.049 -0.598,-0.146 -0.185,-0.097 -0.343,-0.233 -0.478,-0.408 -0.141,-0.18 -0.252,-0.398 -0.332,-0.653 -0.08,-0.255 -0.121,-0.54 -0.121,-0.856 V -3.42 -3.928 c 0,-0.164 0.008,-0.33 0.021,-0.498 h -0.935 c 0.019,0.329 0.029,0.664 0.029,1.006 v 3.158 c 0,0.174 -0.002,0.325 -0.004,0.452 -0.004,0.128 -0.012,0.279 -0.025,0.454 h 0.925 C -1.525,0.557 -1.529,0.492 -1.533,0.452 -1.537,0.412 -1.539,0.375 -1.539,0.342 v -0.594 l 0.041,0.131 c 0.041,0.141 0.113,0.267 0.221,0.377 0.107,0.111 0.232,0.203 0.373,0.277 0.134,0.072 0.277,0.13 0.427,0.171 0.151,0.04 0.293,0.06 0.428,0.06 0.133,0 0.281,-0.007 0.442,-0.02 C 0.553,0.73 0.691,0.7 0.805,0.653 L 0.674,-0.151 C 0.586,-0.111 0.486,-0.076 0.373,-0.046 0.258,-0.016 0.135,0 0,0" /></g><g
           transform="translate(178.5293,2.6143)"
           id="g122"><path
             id="path124"
             style="fill:#5e5f60;fill-opacity:1;fill-rule:nonzero;stroke:none"
             d="m 0,0 v -0.508 c 0,-0.164 0.008,-0.33 0.021,-0.498 h -0.957 c 0.022,0.329 0.032,0.664 0.032,1.006 v 3.058 c 0,0.172 -0.002,0.341 -0.006,0.503 -0.004,0.161 -0.012,0.328 -0.026,0.502 H 0.021 C 0.008,3.889 0,3.72 0,3.556 V 3.058 Z m 0.061,5.17 h -1.025 v 1.025 h 1.025 z" /></g><g
           transform="translate(179.2344,2.5342)"
           id="g126"><path
             id="path128"
             style="fill:#5e5f60;fill-opacity:1;fill-rule:nonzero;stroke:none"
             d="m 0,0 c 0.1,-0.061 0.225,-0.11 0.377,-0.151 0.15,-0.04 0.303,-0.074 0.457,-0.101 0.154,-0.033 0.297,-0.057 0.428,-0.07 0.131,-0.014 0.228,-0.02 0.297,-0.02 0.146,0 0.296,0.012 0.451,0.035 0.154,0.024 0.295,0.066 0.424,0.125 0.121,0.061 0.218,0.14 0.295,0.237 0.078,0.097 0.117,0.219 0.117,0.367 0,0.107 -0.041,0.206 -0.121,0.297 C 2.645,0.81 2.543,0.892 2.424,0.965 2.303,1.039 2.168,1.105 2.02,1.166 1.873,1.227 1.734,1.283 1.607,1.338 1.387,1.425 1.176,1.514 0.975,1.604 0.773,1.694 0.6,1.793 0.451,1.9 0.297,2.008 0.176,2.13 0.084,2.268 c -0.09,0.137 -0.135,0.296 -0.135,0.477 0,0.262 0.051,0.488 0.151,0.679 0.099,0.191 0.244,0.35 0.431,0.478 0.182,0.119 0.403,0.211 0.66,0.272 0.258,0.06 0.547,0.09 0.87,0.09 0.173,0 0.328,-0.005 0.462,-0.015 C 2.656,4.239 2.781,4.224 2.895,4.204 3.002,4.184 3.102,4.16 3.191,4.134 3.283,4.105 3.375,4.079 3.469,4.053 L 3.389,3.288 C 3.201,3.369 2.986,3.435 2.75,3.484 2.512,3.535 2.314,3.561 2.16,3.561 1.986,3.561 1.82,3.547 1.664,3.52 1.506,3.493 1.369,3.453 1.256,3.399 1.135,3.346 1.041,3.278 0.975,3.198 0.906,3.117 0.875,3.021 0.875,2.906 0.875,2.792 0.914,2.69 0.994,2.6 1.074,2.509 1.176,2.427 1.297,2.354 1.418,2.279 1.549,2.214 1.688,2.157 1.83,2.1 1.961,2.052 2.08,2.012 2.25,1.951 2.43,1.882 2.625,1.805 2.818,1.728 3.002,1.633 3.178,1.519 3.346,1.404 3.484,1.267 3.6,1.105 3.713,0.945 3.77,0.751 3.77,0.521 3.77,0.255 3.721,0.021 3.619,-0.176 3.52,-0.374 3.381,-0.537 3.207,-0.664 3.025,-0.791 2.813,-0.887 2.568,-0.95 2.324,-1.015 2.055,-1.046 1.76,-1.046 c -0.115,0 -0.252,0.003 -0.412,0.01 -0.162,0.007 -0.327,0.02 -0.494,0.04 -0.168,0.02 -0.333,0.049 -0.493,0.086 -0.162,0.036 -0.298,0.085 -0.412,0.145 z" /></g><g
           transform="translate(189.5117,4.6357)"
           id="g130"><path
             id="path132"
             style="fill:#5e5f60;fill-opacity:1;fill-rule:nonzero;stroke:none"
             d="m 0,0 c 0,0.161 -0.008,0.329 -0.025,0.503 -0.018,0.175 -0.055,0.332 -0.116,0.473 -0.06,0.14 -0.146,0.256 -0.255,0.346 -0.112,0.091 -0.258,0.137 -0.438,0.137 -0.215,0 -0.398,-0.058 -0.555,-0.172 C -1.543,1.174 -1.674,1.026 -1.779,0.845 -1.887,0.657 -1.967,0.444 -2.016,0.206 -2.066,-0.031 -2.092,-0.271 -2.092,-0.513 v -1.508 -0.508 c 0,-0.164 0.006,-0.33 0.02,-0.498 h -0.936 c 0.022,0.329 0.031,0.664 0.031,1.006 V 0 c 0,0.161 -0.007,0.329 -0.025,0.503 -0.018,0.175 -0.053,0.332 -0.105,0.473 -0.061,0.14 -0.147,0.256 -0.256,0.346 -0.112,0.091 -0.26,0.137 -0.45,0.137 -0.22,0 -0.41,-0.053 -0.568,-0.156 C -4.537,1.198 -4.668,1.06 -4.768,0.885 -4.867,0.711 -4.941,0.512 -4.988,0.287 -5.035,0.063 -5.063,-0.171 -5.068,-0.412 v -1.609 -0.508 c 0,-0.164 0.005,-0.33 0.019,-0.498 h -0.935 c 0.019,0.329 0.031,0.664 0.031,1.006 v 3.057 c 0,0.174 -0.002,0.342 -0.006,0.503 -0.004,0.161 -0.012,0.328 -0.025,0.503 h 0.935 C -5.055,1.955 -5.061,1.891 -5.063,1.851 -5.066,1.811 -5.068,1.773 -5.068,1.74 V 1.247 c 0.013,0.04 0.025,0.075 0.041,0.106 0.011,0.03 0.025,0.055 0.039,0.076 0.187,0.26 0.384,0.448 0.593,0.562 0.207,0.114 0.483,0.171 0.825,0.171 0.295,0 0.556,-0.082 0.785,-0.246 0.226,-0.164 0.416,-0.435 0.562,-0.81 0.094,0.195 0.202,0.359 0.323,0.494 0.121,0.133 0.248,0.244 0.38,0.332 0.135,0.08 0.268,0.138 0.399,0.175 0.131,0.037 0.254,0.055 0.367,0.055 0.295,0 0.545,-0.048 0.754,-0.145 0.207,-0.098 0.379,-0.23 0.514,-0.398 0.127,-0.174 0.22,-0.38 0.281,-0.618 0.06,-0.238 0.09,-0.494 0.09,-0.77 v -2.252 -0.508 c 0,-0.164 0.008,-0.33 0.019,-0.498 H -0.029 C -0.01,-2.698 0,-2.363 0,-2.021 Z" /></g><g
           transform="translate(194.6602,5.0781)"
           id="g134"><path
             id="path136"
             style="fill:#5e5f60;fill-opacity:1;fill-rule:nonzero;stroke:none"
             d="m 0,0 c 0,-0.355 0.035,-0.7 0.105,-1.035 0.073,-0.336 0.188,-0.631 0.348,-0.886 0.16,-0.261 0.375,-0.471 0.645,-0.628 0.267,-0.158 0.599,-0.236 0.996,-0.236 0.394,0 0.726,0.078 0.994,0.236 0.267,0.157 0.482,0.367 0.644,0.628 0.161,0.255 0.278,0.55 0.346,0.886 C 4.148,-0.7 4.186,-0.355 4.186,0 4.186,0.362 4.148,0.713 4.074,1.052 4,1.39 3.879,1.687 3.713,1.941 3.545,2.196 3.328,2.4 3.064,2.555 2.799,2.709 2.475,2.786 2.094,2.786 1.711,2.786 1.387,2.709 1.121,2.555 0.857,2.4 0.641,2.196 0.475,1.941 0.307,1.687 0.186,1.39 0.111,1.052 0.037,0.713 0,0.362 0,0 m -0.924,0 c 0,0.543 0.07,1.034 0.215,1.474 0.145,0.439 0.348,0.816 0.609,1.131 0.262,0.315 0.579,0.558 0.952,0.729 0.371,0.171 0.785,0.257 1.242,0.257 0.455,0 0.869,-0.086 1.242,-0.257 C 3.707,3.163 4.023,2.92 4.285,2.605 4.547,2.29 4.75,1.913 4.895,1.474 5.037,1.034 5.109,0.543 5.109,0 5.109,-0.557 5.037,-1.056 4.895,-1.498 4.75,-1.94 4.547,-2.316 4.285,-2.625 4.023,-2.933 3.707,-3.171 3.336,-3.339 2.963,-3.506 2.549,-3.59 2.094,-3.59 c -0.457,0 -0.871,0.084 -1.242,0.251 -0.373,0.168 -0.69,0.406 -0.952,0.714 -0.261,0.309 -0.464,0.685 -0.609,1.127 -0.145,0.442 -0.215,0.941 -0.215,1.498" /></g><g
           transform="translate(202.9375,6.0342)"
           id="g138"><path
             id="path140"
             style="fill:#5e5f60;fill-opacity:1;fill-rule:nonzero;stroke:none"
             d="m 0,0 c -0.215,0 -0.414,-0.049 -0.598,-0.146 -0.185,-0.097 -0.343,-0.233 -0.478,-0.408 -0.141,-0.18 -0.252,-0.398 -0.332,-0.653 -0.08,-0.255 -0.121,-0.54 -0.121,-0.856 V -3.42 -3.928 c 0,-0.164 0.008,-0.33 0.021,-0.498 h -0.935 c 0.019,0.329 0.029,0.664 0.029,1.006 v 3.158 c 0,0.174 -0.002,0.325 -0.004,0.452 -0.004,0.128 -0.012,0.279 -0.025,0.454 h 0.925 C -1.525,0.557 -1.529,0.492 -1.533,0.452 -1.537,0.412 -1.539,0.375 -1.539,0.342 v -0.594 l 0.041,0.131 c 0.041,0.141 0.113,0.267 0.221,0.377 0.107,0.111 0.232,0.203 0.373,0.277 0.134,0.072 0.277,0.13 0.427,0.171 0.151,0.04 0.293,0.06 0.428,0.06 0.133,0 0.281,-0.007 0.442,-0.02 C 0.553,0.73 0.691,0.7 0.805,0.653 L 0.674,-0.151 C 0.586,-0.111 0.486,-0.076 0.373,-0.046 0.258,-0.016 0.135,0 0,0" /></g><g
           transform="translate(204.8184,4.374)"
           id="g142"><path
             id="path144"
             style="fill:#5e5f60;fill-opacity:1;fill-rule:nonzero;stroke:none"
             d="m 0,0 c 0,-0.482 0.121,-0.88 0.367,-1.191 0.244,-0.312 0.617,-0.468 1.121,-0.468 0.502,0 0.879,0.154 1.131,0.463 C 2.871,-0.888 2.996,-0.489 2.996,0 2.996,0.222 2.965,0.435 2.9,0.639 2.838,0.844 2.746,1.026 2.625,1.188 2.498,1.348 2.338,1.478 2.146,1.574 1.955,1.672 1.736,1.721 1.488,1.721 1.232,1.721 1.012,1.677 0.824,1.59 0.637,1.502 0.482,1.382 0.361,1.228 0.24,1.066 0.15,0.882 0.09,0.674 0.029,0.467 0,0.242 0,0 m 3.902,-2.102 c 0,-0.737 -0.218,-1.3 -0.652,-1.689 -0.437,-0.389 -1.098,-0.583 -1.982,-0.583 -0.135,0 -0.268,0.003 -0.399,0.01 -0.131,0.007 -0.265,0.023 -0.406,0.05 -0.141,0.027 -0.293,0.062 -0.457,0.106 -0.166,0.043 -0.348,0.102 -0.549,0.176 l 0.102,0.794 c 0.166,-0.075 0.324,-0.139 0.47,-0.196 0.149,-0.057 0.293,-0.102 0.434,-0.136 0.141,-0.034 0.285,-0.059 0.432,-0.076 0.148,-0.016 0.308,-0.025 0.484,-0.025 0.502,0 0.9,0.142 1.195,0.423 0.295,0.281 0.444,0.697 0.444,1.247 v 0.563 C 2.99,-1.512 2.963,-1.568 2.938,-1.608 2.762,-1.823 2.537,-2.003 2.264,-2.146 1.988,-2.291 1.656,-2.363 1.268,-2.363 c -0.35,0 -0.661,0.06 -0.93,0.181 -0.274,0.119 -0.502,0.288 -0.69,0.503 -0.187,0.207 -0.332,0.452 -0.427,0.734 -0.098,0.282 -0.147,0.58 -0.147,0.895 0,0.349 0.049,0.674 0.147,0.976 0.095,0.302 0.24,0.563 0.427,0.784 0.188,0.222 0.416,0.395 0.69,0.523 0.269,0.127 0.58,0.191 0.93,0.191 0.248,0 0.461,-0.022 0.638,-0.066 C 2.084,2.315 2.236,2.257 2.363,2.183 2.49,2.109 2.6,2.027 2.689,1.938 2.781,1.846 2.865,1.757 2.947,1.67 2.98,1.637 3.014,1.572 3.047,1.479 L 3.037,1.7 C 3.029,1.761 3.029,1.85 3.031,1.967 3.035,2.084 3.029,2.196 3.018,2.304 H 3.932 C 3.912,1.968 3.902,1.633 3.902,1.298 Z" /></g><g
           transform="translate(212.9238,4.0527)"
           id="g146"><path
             id="path148"
             style="fill:#5e5f60;fill-opacity:1;fill-rule:nonzero;stroke:none"
             d="M 0,0 C -0.1,0.007 -0.215,0.012 -0.342,0.015 -0.469,0.019 -0.582,0.02 -0.684,0.02 -0.818,0.02 -0.99,0.012 -1.201,-0.005 -1.412,-0.021 -1.619,-0.063 -1.82,-0.131 -2.02,-0.198 -2.195,-0.3 -2.342,-0.437 -2.49,-0.575 -2.564,-0.761 -2.564,-0.996 c 0,-0.141 0.033,-0.265 0.101,-0.372 0.067,-0.108 0.15,-0.197 0.252,-0.272 0.1,-0.073 0.211,-0.129 0.33,-0.166 0.121,-0.036 0.238,-0.054 0.352,-0.054 0.484,0 0.859,0.131 1.127,0.396 C -0.133,-1.198 0,-0.872 0,-0.482 Z m -3.006,2.232 c 0.235,0.155 0.514,0.279 0.84,0.372 0.324,0.094 0.648,0.141 0.969,0.141 0.752,0 1.287,-0.176 1.605,-0.527 C 0.727,1.865 0.885,1.344 0.885,0.653 v -2.242 c 0,-0.154 0.004,-0.315 0.01,-0.483 0.007,-0.167 0.017,-0.291 0.031,-0.372 H 0.09 L 0.07,-1.74 c -0.06,-0.087 -0.144,-0.18 -0.25,-0.277 -0.109,-0.097 -0.232,-0.185 -0.373,-0.266 -0.14,-0.08 -0.299,-0.148 -0.472,-0.201 -0.174,-0.054 -0.362,-0.08 -0.563,-0.08 -0.289,0 -0.551,0.03 -0.785,0.089 -0.234,0.061 -0.432,0.155 -0.594,0.283 -0.166,0.127 -0.297,0.29 -0.387,0.487 -0.089,0.198 -0.136,0.434 -0.136,0.709 0,0.315 0.082,0.579 0.242,0.79 0.162,0.211 0.363,0.384 0.603,0.518 0.241,0.126 0.502,0.217 0.78,0.271 0.279,0.054 0.537,0.081 0.779,0.081 L 0,0.644 c -0.014,0.442 -0.119,0.786 -0.316,1.031 -0.198,0.244 -0.539,0.367 -1.02,0.367 -0.256,0 -0.537,-0.055 -0.84,-0.161 C -2.482,1.773 -2.742,1.64 -2.957,1.479 Z" /></g><g
           transform="translate(215.6504,5.833)"
           id="g150"><path
             id="path152"
             style="fill:#5e5f60;fill-opacity:1;fill-rule:nonzero;stroke:none"
             d="M 0,0 C 0.02,0.066 0.037,0.119 0.055,0.155 0.07,0.192 0.094,0.229 0.119,0.262 0.455,0.73 0.98,0.965 1.699,0.965 2.355,0.965 2.836,0.774 3.137,0.392 3.439,0.01 3.59,-0.523 3.59,-1.207 v -2.012 -0.508 c 0,-0.164 0.006,-0.33 0.019,-0.498 H 2.674 c 0.019,0.329 0.031,0.664 0.031,1.006 V -1.6 c 0,0.624 -0.08,1.083 -0.242,1.378 C 2.303,0.073 2.008,0.234 1.578,0.262 1.322,0.262 1.1,0.209 0.904,0.105 0.711,0.001 0.545,-0.145 0.412,-0.332 0.277,-0.526 0.176,-0.755 0.105,-1.016 0.033,-1.277 0,-1.565 0,-1.881 v -1.338 -0.508 c 0,-0.164 0.006,-0.33 0.02,-0.498 h -0.936 c 0.02,0.329 0.029,0.664 0.029,1.006 v 3.058 c 0,0.174 -0.002,0.342 -0.004,0.503 -0.004,0.161 -0.011,0.328 -0.025,0.503 H 0.02 C 0.014,0.758 0.008,0.693 0.004,0.653 0.002,0.613 0,0.576 0,0.543 Z" /></g><g
           transform="translate(221.1914,2.6143)"
           id="g154"><path
             id="path156"
             style="fill:#5e5f60;fill-opacity:1;fill-rule:nonzero;stroke:none"
             d="m 0,0 v -0.508 c 0,-0.164 0.006,-0.33 0.02,-0.498 h -0.956 c 0.02,0.329 0.03,0.664 0.03,1.006 v 3.058 c 0,0.172 -0.002,0.341 -0.004,0.503 -0.004,0.161 -0.012,0.328 -0.026,0.502 H 0.02 C 0.006,3.889 0,3.72 0,3.556 V 3.058 Z m 0.061,5.17 h -1.025 v 1.025 h 1.025 z" /></g><g
           transform="translate(224.8105,5.8633)"
           id="g158"><path
             id="path160"
             style="fill:#5e5f60;fill-opacity:1;fill-rule:nonzero;stroke:none"
             d="M 0,0 0.152,0.11 H -2.01 -2.393 c -0.115,0 -0.238,-0.006 -0.373,-0.02 v 0.744 c 0.157,-0.013 0.289,-0.021 0.405,-0.021 h 0.4 2.264 0.396 c 0.117,0 0.254,0.008 0.408,0.021 V 0.07 L -1.85,-3.41 -2.01,-3.551 h 2.463 0.399 c 0.117,0 0.252,0.007 0.406,0.021 V -4.274 C 1.117,-4.262 0.992,-4.255 0.881,-4.255 H 0.504 -2.16 -2.568 c -0.131,0 -0.264,-0.007 -0.399,-0.019 V -3.5 Z" /></g><g
           transform="translate(229.9609,4.0527)"
           id="g162"><path
             id="path164"
             style="fill:#5e5f60;fill-opacity:1;fill-rule:nonzero;stroke:none"
             d="M 0,0 C -0.102,0.007 -0.215,0.012 -0.342,0.015 -0.469,0.019 -0.584,0.02 -0.684,0.02 -0.818,0.02 -0.99,0.012 -1.201,-0.005 -1.412,-0.021 -1.619,-0.063 -1.82,-0.131 -2.021,-0.198 -2.195,-0.3 -2.344,-0.437 c -0.146,-0.138 -0.22,-0.324 -0.22,-0.559 0,-0.141 0.033,-0.265 0.099,-0.372 0.069,-0.108 0.152,-0.197 0.252,-0.272 0.102,-0.073 0.211,-0.129 0.332,-0.166 0.121,-0.036 0.238,-0.054 0.352,-0.054 0.482,0 0.859,0.131 1.127,0.396 C -0.135,-1.198 0,-0.872 0,-0.482 Z m -3.008,2.232 c 0.237,0.155 0.516,0.279 0.84,0.372 0.326,0.094 0.648,0.141 0.971,0.141 0.752,0 1.287,-0.176 1.603,-0.527 C 0.727,1.865 0.885,1.344 0.885,0.653 v -2.242 c 0,-0.154 0.004,-0.315 0.01,-0.483 0.007,-0.167 0.017,-0.291 0.031,-0.372 H 0.09 L 0.07,-1.74 c -0.06,-0.087 -0.144,-0.18 -0.252,-0.277 -0.107,-0.097 -0.23,-0.185 -0.371,-0.266 -0.14,-0.08 -0.299,-0.148 -0.472,-0.201 -0.174,-0.054 -0.364,-0.08 -0.565,-0.08 -0.287,0 -0.549,0.03 -0.783,0.089 -0.234,0.061 -0.434,0.155 -0.594,0.283 -0.168,0.127 -0.297,0.29 -0.387,0.487 -0.089,0.198 -0.136,0.434 -0.136,0.709 0,0.315 0.082,0.579 0.242,0.79 0.16,0.211 0.361,0.384 0.603,0.518 0.241,0.126 0.5,0.217 0.78,0.271 0.277,0.054 0.537,0.081 0.779,0.081 L 0,0.644 c -0.014,0.442 -0.119,0.786 -0.316,1.031 -0.2,0.244 -0.539,0.367 -1.022,0.367 -0.254,0 -0.535,-0.055 -0.84,-0.161 C -2.482,1.773 -2.742,1.64 -2.957,1.479 Z" /></g><g
           transform="translate(232.4043,7.1807)"
           id="g166"><path
             id="path168"
             style="fill:#5e5f60;fill-opacity:1;fill-rule:nonzero;stroke:none"
             d="m 0,0 c 0,0.174 -0.002,0.342 -0.004,0.503 -0.004,0.16 -0.012,0.328 -0.025,0.503 H 0.906 C 0.893,0.831 0.885,0.662 0.885,0.498 V 0 -0.503 h 0.574 0.396 c 0.118,0 0.254,0.007 0.409,0.02 V -1.229 C 2.123,-1.214 1.996,-1.207 1.887,-1.207 H 1.508 0.885 v -2.856 c 0,-0.356 0.068,-0.599 0.201,-0.73 0.135,-0.13 0.342,-0.195 0.623,-0.195 0.236,0 0.439,0.053 0.615,0.16 V -5.563 C 2.217,-5.596 2.098,-5.626 1.967,-5.652 1.836,-5.68 1.697,-5.692 1.549,-5.692 1.066,-5.692 0.688,-5.58 0.412,-5.355 0.137,-5.131 0,-4.768 0,-4.265 v 3.058 h -0.402 -0.383 c -0.113,0 -0.238,-0.007 -0.371,-0.022 v 0.746 c 0.154,-0.013 0.287,-0.02 0.402,-0.02 H -0.352 0 Z" /></g><g
           transform="translate(236.3262,2.6143)"
           id="g170"><path
             id="path172"
             style="fill:#5e5f60;fill-opacity:1;fill-rule:nonzero;stroke:none"
             d="m 0,0 v -0.508 c 0,-0.164 0.008,-0.33 0.021,-0.498 h -0.955 c 0.02,0.329 0.03,0.664 0.03,1.006 v 3.058 c 0,0.172 -0.002,0.341 -0.006,0.503 -0.004,0.161 -0.012,0.328 -0.024,0.502 H 0.021 C 0.008,3.889 0,3.72 0,3.556 V 3.058 Z m 0.063,5.17 h -1.027 v 1.025 h 1.027 z" /></g><g
           transform="translate(238.1074,4.1436)"
           id="g174"><path
             id="path176"
             style="fill:#5e5f60;fill-opacity:1;fill-rule:nonzero;stroke:none"
             d="M 0,0 C 0,-0.235 0.029,-0.468 0.09,-0.699 0.15,-0.931 0.244,-1.141 0.371,-1.328 0.5,-1.516 0.664,-1.667 0.865,-1.78 c 0.201,-0.115 0.442,-0.171 0.723,-0.171 0.283,0 0.521,0.056 0.719,0.171 0.199,0.113 0.365,0.264 0.498,0.452 0.127,0.187 0.222,0.397 0.281,0.629 C 3.148,-0.468 3.178,-0.235 3.178,0 3.178,0.248 3.143,0.489 3.072,0.724 3.002,0.958 2.898,1.166 2.766,1.348 2.631,1.528 2.465,1.674 2.268,1.785 2.07,1.896 1.844,1.951 1.588,1.951 1.334,1.951 1.107,1.896 0.91,1.785 0.711,1.674 0.545,1.528 0.412,1.348 0.277,1.166 0.176,0.958 0.105,0.724 0.035,0.489 0,0.248 0,0 m -0.926,0 c 0,0.389 0.061,0.745 0.182,1.07 0.119,0.326 0.291,0.606 0.512,0.84 0.222,0.236 0.486,0.418 0.795,0.549 0.308,0.13 0.65,0.195 1.025,0.195 0.375,0 0.717,-0.065 1.027,-0.195 C 2.922,2.328 3.188,2.146 3.408,1.91 3.629,1.676 3.801,1.396 3.922,1.07 4.043,0.745 4.102,0.389 4.102,0 4.102,-0.369 4.041,-0.715 3.916,-1.036 3.793,-1.358 3.621,-1.64 3.398,-1.881 3.178,-2.122 2.912,-2.313 2.604,-2.449 2.295,-2.587 1.957,-2.655 1.588,-2.655 c -0.375,0 -0.717,0.068 -1.025,0.206 -0.309,0.136 -0.573,0.327 -0.795,0.568 -0.221,0.241 -0.393,0.523 -0.512,0.845 -0.121,0.321 -0.182,0.667 -0.182,1.036" /></g><g
           transform="translate(243.8496,5.833)"
           id="g178"><path
             id="path180"
             style="fill:#5e5f60;fill-opacity:1;fill-rule:nonzero;stroke:none"
             d="M 0,0 C 0.02,0.066 0.039,0.119 0.055,0.155 0.072,0.192 0.094,0.229 0.121,0.262 0.455,0.73 0.982,0.965 1.699,0.965 2.357,0.965 2.836,0.774 3.137,0.392 3.439,0.01 3.59,-0.523 3.59,-1.207 v -2.012 -0.508 c 0,-0.164 0.006,-0.33 0.021,-0.498 H 2.674 c 0.021,0.329 0.031,0.664 0.031,1.006 V -1.6 c 0,0.624 -0.08,1.083 -0.242,1.378 C 2.303,0.073 2.008,0.234 1.578,0.262 1.324,0.262 1.1,0.209 0.904,0.105 0.711,0.001 0.545,-0.145 0.412,-0.332 0.277,-0.526 0.176,-0.755 0.105,-1.016 0.035,-1.277 0,-1.565 0,-1.881 v -1.338 -0.508 c 0,-0.164 0.006,-0.33 0.02,-0.498 h -0.936 c 0.021,0.329 0.031,0.664 0.031,1.006 v 3.058 c 0,0.174 -0.002,0.342 -0.006,0.503 -0.004,0.161 -0.011,0.328 -0.025,0.503 H 0.02 C 0.014,0.758 0.008,0.693 0.004,0.653 0.002,0.613 0,0.576 0,0.543 Z" /></g></g></g></g></svg>