<svg xmlns="http://www.w3.org/2000/svg" width="18.201" height="22.076" viewBox="0 0 18.201 22.076"><path d="M215.978-1614.942l5.005-5.029a7.136,7.136,0,0,0,0-10.058,7.053,7.053,0,0,0-10.009,0,7.135,7.135,0,0,0,0,10.057Zm0,2.874-6.435-6.466a9.175,9.175,0,0,1,0-12.932,9.071,9.071,0,0,1,12.87,0,9.175,9.175,0,0,1,0,12.932Zm0-10.9A2.027,2.027,0,0,0,218-1625a2.027,2.027,0,0,0-2.022-2.032,2.027,2.027,0,0,0-2.022,2.032A2.027,2.027,0,0,0,215.978-1622.968Zm0,2.032a4.054,4.054,0,0,1-4.044-4.064,4.054,4.054,0,0,1,4.044-4.065,4.054,4.054,0,0,1,4.044,4.065A4.054,4.054,0,0,1,215.978-1620.936Z" transform="translate(-206.878 1634.144)" fill="#fff"/></svg>