<svg width="82" height="82" viewBox="0 0 82 82" fill="none" xmlns="http://www.w3.org/2000/svg">
<path d="M41.412 0.901855C63.442 0.901855 81.301 18.7609 81.301 40.7909C81.301 62.8209 63.442 80.6799 41.412 80.6799C19.382 80.6799 1.52303 62.8209 1.52303 40.7909C1.52303 18.7609 19.382 0.901855 41.412 0.901855Z" fill="white"/>
<g opacity="0.35">
<path d="M32.4101 19.1128C37.9181 19.1128 42.3821 25.8098 42.3821 34.0708C42.3821 42.3328 37.9181 49.0298 32.4101 49.0298C26.9021 49.0298 22.4381 42.3328 22.4381 34.0708C22.4381 25.8098 26.9021 19.1128 32.4101 19.1128Z" fill="#FFBB88"/>
</g>
<g opacity="0.15">
<path fill-rule="evenodd" clip-rule="evenodd" d="M75.1241 61.3959C68.1281 67.4509 59.0071 71.1139 49.0301 71.1139C26.9991 71.1139 9.14108 53.2539 9.14108 31.2249C9.14108 23.8539 11.1401 16.9489 14.6251 11.0259C6.17508 18.3389 0.830078 29.1439 0.830078 41.1969C0.830078 63.2259 18.6891 81.0859 40.7201 81.0859C55.3791 81.0859 68.1921 73.1779 75.1241 61.3959Z" fill="#0055FF"/>
</g>
<path fill-rule="evenodd" clip-rule="evenodd" d="M1.662 40.72C1.662 19.183 19.183 1.662 40.72 1.662C62.257 1.662 79.778 19.183 79.778 40.72C79.778 51.2177 75.6153 60.7612 68.8539 67.7867L68.1289 63.2519C67.4929 59.9289 65.5839 57.0799 62.7539 55.2269C59.9229 53.3739 56.5469 52.7629 53.2479 53.5099L44.3979 55.5109C42.1129 56.0299 39.6969 56.0259 37.4089 55.5059L28.6859 53.5189C25.4189 52.7759 22.0929 53.3919 19.3109 55.2559C16.5289 57.1209 14.6909 59.9669 14.1349 63.3009L13.4397 68.6467C6.17672 61.5503 1.662 51.6525 1.662 40.72ZM14.9279 70.0276C21.8127 76.0938 30.8441 79.778 40.72 79.778C51.0741 79.778 60.5 75.7284 67.497 69.1299C67.4086 69.0202 67.3469 68.8866 67.3229 68.7379L66.4919 63.5389C65.9459 60.6879 64.2939 58.2219 61.8439 56.6169C59.3939 55.0139 56.4699 54.4869 53.6149 55.1319L44.7649 57.1329C42.2379 57.7049 39.5679 57.7029 37.0399 57.1259L28.3159 55.1389C25.4989 54.4999 22.6339 55.0289 20.2369 56.6359C17.8379 58.2439 16.2539 60.6969 15.7779 63.5449L14.9509 69.9129C14.9458 69.9522 14.9381 69.9905 14.9279 70.0276ZM0 40.72C0 63.173 18.267 81.44 40.72 81.44C63.173 81.44 81.44 63.173 81.44 40.72C81.44 18.267 63.173 0 40.72 0C18.267 0 0 18.267 0 40.72ZM41.5511 18.6151C34.0851 18.6151 28.0101 24.6891 28.0101 32.1561V35.0151L27.4101 35.1881C25.9271 35.6161 24.9301 36.8721 24.9301 38.3151C24.9301 40.1221 26.5151 41.5921 28.4621 41.5921H28.9871L29.3131 42.0651C31.5451 46.7661 36.3491 49.8041 41.5511 49.8041C46.7541 49.8041 51.5581 46.7661 53.7891 42.0651L54.0151 41.5901H54.5431C56.5891 41.5901 58.1721 40.1211 58.1721 38.3151C58.1721 36.8721 57.1751 35.6161 55.6921 35.1881L55.0921 35.0151V32.1561C55.0921 24.6891 49.0171 18.6151 41.5511 18.6151ZM41.5511 51.4661C35.8781 51.4661 30.6281 48.2491 28.0351 43.2281C25.3271 42.9861 23.2681 40.8751 23.2681 38.3151C23.2681 36.3301 24.4831 34.5851 26.3481 33.8031V32.1561C26.3481 23.7731 33.1691 16.9531 41.5511 16.9531C49.9331 16.9531 56.7541 23.7731 56.7541 32.1561V33.8031C58.6191 34.5851 59.8341 36.3301 59.8341 38.3151C59.8341 40.9031 57.7291 43.0321 55.0621 43.2371C52.4691 48.2531 47.2211 51.4661 41.5511 51.4661Z" fill="#0044CC"/>
</svg>
