<svg width="77" height="89" viewBox="0 0 77 89" fill="none" xmlns="http://www.w3.org/2000/svg">
<path d="M38.5951 88.088C38.4511 88.088 38.3071 88.051 38.1791 87.977L0.754111 66.37C0.497111 66.222 0.339111 65.948 0.339111 65.651V22.437C0.339111 22.14 0.497111 21.866 0.754111 21.718L38.1791 0.111C38.4351 -0.037 38.7541 -0.037 39.0101 0.111L76.4351 21.718C76.6921 21.866 76.8501 22.14 76.8501 22.437V65.651C76.8501 65.948 76.6921 66.222 76.4351 66.37L39.0101 87.977C38.8821 88.051 38.7381 88.088 38.5951 88.088Z" fill="white"/>
<path d="M2.00111 65.1708L38.5951 86.2988L75.1881 65.1708V22.9187L38.5951 1.79075L2.00111 22.9187V65.1708ZM38.5951 88.0888C38.4511 88.0888 38.3071 88.0518 38.1791 87.9768L0.754111 66.3698C0.497111 66.2228 0.339111 65.9477 0.339111 65.6507V22.4377C0.339111 22.1407 0.497111 21.8668 0.754111 21.7188L38.1791 0.11175C38.4351 -0.03725 38.7541 -0.03725 39.0101 0.11175L76.4351 21.7188C76.6921 21.8668 76.8501 22.1407 76.8501 22.4377V65.6507C76.8501 65.9477 76.6921 66.2228 76.4351 66.3698L39.0101 87.9768C38.8821 88.0518 38.7381 88.0888 38.5951 88.0888Z" fill="#0044CC"/>
<path opacity="0.2" d="M23.41 37.3967H46.679C47.597 37.3967 48.341 38.1407 48.341 39.0587V55.6797C48.341 56.5977 47.597 57.3417 46.679 57.3417H23.41C22.492 57.3417 21.748 56.5977 21.748 55.6797V39.0587C21.748 38.1407 22.492 37.3967 23.41 37.3967Z" fill="#0055FF"/>
<path d="M49.1711 39.0587C56.9731 39.0587 63.2981 45.3837 63.2981 53.1857C63.2981 60.9887 56.9731 67.3137 49.1711 67.3137C41.3691 67.3137 35.0441 60.9887 35.0441 53.1857C35.0441 45.3837 41.3691 39.0587 49.1711 39.0587Z" fill="white"/>
<path d="M33.3819 57.6238H21.7479C18.5399 57.6238 15.9299 55.0138 15.9299 51.8068V25.7628C15.9299 25.3028 16.3019 24.9318 16.7609 24.9318H31.4059C32.6489 24.9318 33.8169 25.4818 34.6099 26.4408L37.7109 30.1938H56.6509C57.1099 30.1938 57.4819 30.5648 57.4819 31.0248V36.5658C57.4819 37.0248 57.1099 37.3968 56.6509 37.3968C56.1909 37.3968 55.8199 37.0248 55.8199 36.5658V31.8558H37.3199C37.0719 31.8558 36.8369 31.7448 36.6789 31.5538L33.3279 27.4988C32.8529 26.9228 32.1519 26.5938 31.4059 26.5938H17.5929V51.8068C17.5929 54.0988 19.4569 55.9618 21.7479 55.9618H33.3819C33.8409 55.9618 34.2129 56.3338 34.2129 56.7928C34.2129 57.2518 33.8409 57.6238 33.3819 57.6238Z" fill="#0044CC"/>
<path d="M29.2271 31.3018H22.0251C21.5661 31.3018 21.1941 30.9298 21.1941 30.4708C21.1941 30.0118 21.5661 29.6398 22.0251 29.6398H29.2271C29.6861 29.6398 30.0581 30.0118 30.0581 30.4708C30.0581 30.9298 29.6861 31.3018 29.2271 31.3018Z" fill="#0044CC"/>
<path d="M48.3651 63.9827C47.9951 63.9827 47.6241 63.9677 47.2531 63.9357C44.1461 63.6907 41.1981 62.3367 38.9591 60.1267C36.7351 57.9107 35.3621 54.9757 35.0901 51.8617C34.8201 48.7487 35.6651 45.6177 37.4711 43.0477C39.2771 40.4807 41.9421 38.6197 44.9761 37.8067C48.0141 36.9987 51.2481 37.2807 54.0871 38.6057C54.5041 38.8007 54.6831 39.2937 54.4891 39.7107C54.2941 40.1277 53.8011 40.3097 53.3841 40.1117C50.8981 38.9497 48.0641 38.7017 45.4051 39.4137C42.7471 40.1247 40.4131 41.7547 38.8301 44.0037C37.2501 46.2537 36.5101 48.9937 36.7461 51.7187C36.9841 54.4417 38.1851 57.0097 40.1301 58.9467C42.0881 60.8797 44.6671 62.0637 47.3901 62.2797C50.1161 62.5167 52.8631 61.7627 55.1281 60.1687C57.3711 58.5907 58.9951 56.2537 59.6981 53.5887C60.2621 51.4527 60.2081 49.2157 59.5421 47.1217C59.4031 46.6857 59.6451 46.2177 60.0821 46.0787C60.5161 45.9417 60.9861 46.1807 61.1261 46.6187C61.8881 49.0147 61.9501 51.5707 61.3051 54.0137C60.5021 57.0557 58.6471 59.7257 56.0841 61.5287C53.8071 63.1287 51.1021 63.9827 48.3651 63.9827Z" fill="#0044CC"/>
<path d="M48.352 41.1407C47.893 41.1407 47.521 40.7687 47.521 40.3097V36.1517C47.521 35.6917 47.893 35.3207 48.352 35.3207C48.811 35.3207 49.183 35.6917 49.183 36.1517V40.3097C49.183 40.7687 48.811 41.1407 48.352 41.1407Z" fill="#0044CC"/>
<path d="M48.352 66.0827C47.893 66.0827 47.521 65.7107 47.521 65.2517V61.0967C47.521 60.6377 47.893 60.2657 48.352 60.2657C48.811 60.2657 49.183 60.6377 49.183 61.0967V65.2517C49.183 65.7107 48.811 66.0827 48.352 66.0827Z" fill="#0044CC"/>
<path d="M62.905 51.5397H58.747C58.287 51.5397 57.916 51.1677 57.916 50.7087C57.916 50.2497 58.287 49.8777 58.747 49.8777H62.905C63.364 49.8777 63.736 50.2497 63.736 50.7087C63.736 51.1677 63.364 51.5397 62.905 51.5397Z" fill="#0044CC"/>
<path d="M37.957 51.5397H33.799C33.339 51.5397 32.968 51.1677 32.968 50.7087C32.968 50.2497 33.339 49.8777 33.799 49.8777H37.957C38.416 49.8777 38.788 50.2497 38.788 50.7087C38.788 51.1677 38.416 51.5397 37.957 51.5397Z" fill="#0044CC"/>
<path d="M48.34 45.9848C45.743 45.9848 43.631 48.0968 43.631 50.6938C43.631 53.2908 45.743 55.4038 48.34 55.4038C50.937 55.4038 53.049 53.2908 53.049 50.6938C53.049 48.0968 50.937 45.9848 48.34 45.9848ZM48.34 57.0658C44.827 57.0658 41.969 54.2078 41.969 50.6938C41.969 47.1808 44.827 44.3228 48.34 44.3228C51.853 44.3228 54.711 47.1808 54.711 50.6938C54.711 54.2078 51.853 57.0658 48.34 57.0658Z" fill="#FF6B00"/>
</svg>
