<svg width="77" height="89" viewBox="0 0 77 89" fill="none" xmlns="http://www.w3.org/2000/svg">
<path d="M38.256 88.0956C38.112 88.0956 37.968 88.0586 37.84 87.9846L0.415 66.3776C0.158 66.2296 0 65.9556 0 65.6586V22.4446C0 22.1476 0.158 21.8736 0.415 21.7256L37.84 0.118629C38.096 -0.0293706 38.415 -0.0293706 38.671 0.118629L76.096 21.7256C76.353 21.8736 76.511 22.1476 76.511 22.4446V65.6586C76.511 65.9556 76.353 66.2296 76.096 66.3776L38.671 87.9846C38.543 88.0586 38.399 88.0956 38.256 88.0956Z" fill="white"/>
<path d="M15.0249 25.7627V51.8067C15.0249 54.5497 17.2569 56.7927 20.0109 56.7927H54.9139V31.0247H35.5829L32.2319 26.9697C31.6009 26.2047 30.6599 25.7627 29.6689 25.7627H15.0249Z" fill="white"/>
<path d="M15.8558 26.5928V51.8058C15.8558 54.0978 17.7198 55.9608 20.0108 55.9608H54.0828V31.8548H35.5828C35.3358 31.8548 35.0998 31.7448 34.9428 31.5528L31.5918 27.4988C31.1158 26.9218 30.4148 26.5928 29.6688 26.5928H15.8558ZM54.9138 57.6228H20.0108C16.8038 57.6228 14.1938 55.0128 14.1938 51.8058V25.7618C14.1938 25.3028 14.5658 24.9308 15.0248 24.9308H29.6688C30.9128 24.9308 32.0798 25.4808 32.8728 26.4398L35.9738 30.1928H54.9138C55.3738 30.1928 55.7448 30.5648 55.7448 31.0238V56.7918C55.7448 57.2518 55.3738 57.6228 54.9138 57.6228Z" fill="#0044CC"/>
<path d="M27.491 31.3018H20.289C19.83 31.3018 19.458 30.9298 19.458 30.4708C19.458 30.0118 19.83 29.6398 20.289 29.6398H27.491C27.95 29.6398 28.322 30.0118 28.322 30.4708C28.322 30.9298 27.95 31.3018 27.491 31.3018Z" fill="#0044CC"/>
<path opacity="0.2" d="M21.674 37.3967H44.943C45.861 37.3967 46.605 38.1407 46.605 39.0587V55.6797C46.605 56.5977 45.861 57.3417 44.943 57.3417H21.674C20.756 57.3417 20.012 56.5977 20.012 55.6797V39.0587C20.012 38.1407 20.756 37.3967 21.674 37.3967Z" fill="#0055FF"/>
<path d="M1.70009 65.1708L38.2941 86.2988L74.8871 65.1708V22.9187L38.2941 1.79075L1.70009 22.9187V65.1708ZM38.2941 88.0888C38.1501 88.0888 38.0061 88.0518 37.8781 87.9768L0.453086 66.3698C0.196086 66.2228 0.0380859 65.9477 0.0380859 65.6507V22.4377C0.0380859 22.1407 0.196086 21.8668 0.453086 21.7188L37.8781 0.11175C38.1351 -0.03725 38.4531 -0.03725 38.7091 0.11175L76.1341 21.7188C76.3911 21.8668 76.5491 22.1407 76.5491 22.4377V65.6507C76.5491 65.9477 76.3911 66.2228 76.1341 66.3698L38.7091 87.9768C38.5811 88.0518 38.4371 88.0888 38.2941 88.0888Z" fill="#0044CC"/>
<path fill-rule="evenodd" clip-rule="evenodd" d="M45.3858 36.0308L50.8038 36.1538L50.7558 38.2168C52.5228 38.5258 54.1748 39.1538 55.6528 40.0398L57.7948 38.0058L61.5508 41.9108L59.7008 43.6678C60.9708 45.3398 61.8788 47.3028 62.3088 49.4308L64.5908 49.4798L64.4678 54.8988L62.3508 54.8488C62.0098 56.6768 61.3168 58.3888 60.3438 59.9008L62.3588 61.9958L58.4298 65.7348L56.5998 63.8238C54.7228 65.1538 52.5098 66.0508 50.1158 66.3668L50.0628 68.6598L44.6458 68.5268L44.7028 66.0338C42.6238 65.5028 40.7288 64.5218 39.1278 63.2088L37.5858 64.6718L33.8298 60.7658L35.6678 59.0208C34.8638 57.5408 34.3128 55.9288 34.0738 54.2008L31.9668 54.1508L32.0898 48.7318L34.3628 48.7818C34.8598 46.8038 35.7728 44.9888 37.0028 43.4368L35.2478 41.6098L39.1768 37.8788L41.1158 39.8968C42.4088 39.1558 43.8298 38.6088 45.3338 38.2978L45.3858 36.0308Z" fill="white"/>
<path d="M44.557 36.0128L44.504 38.2798L46.166 38.3178L46.217 36.0498L44.557 36.0128ZM45.167 37.4858C43.575 37.8148 42.072 38.3908 40.703 39.1758L41.53 40.6178C42.749 39.9198 44.087 39.4048 45.503 39.1128L45.167 37.4858ZM41.715 39.3218L39.775 37.3028L38.577 38.4548L40.517 40.4738L41.715 39.3218ZM38.604 37.2758L34.676 41.0068L35.82 42.2118L39.749 38.4808L38.604 37.2758ZM34.648 42.1858L36.405 44.0118L37.603 42.8608L35.846 41.0338L34.648 42.1858ZM36.351 42.9198C35.05 44.5638 34.083 46.4888 33.558 48.5828L35.17 48.9818C35.637 47.1198 36.496 45.4148 37.654 43.9528L36.351 42.9198ZM32.072 49.5638L34.345 49.6128L34.384 47.9508L32.11 47.9018L32.072 49.5638ZM32.798 54.1678L32.921 48.7488L31.259 48.7158L31.136 54.1338L32.798 54.1678ZM34.094 53.3698L31.985 53.3198L31.949 54.9818L34.056 55.0318L34.094 53.3698ZM33.252 54.3168C33.506 56.1448 34.088 57.8568 34.939 59.4198L36.398 58.6218C35.64 57.2418 35.123 55.7128 34.899 54.0838L33.252 54.3168ZM35.095 58.4218L33.258 60.1678L34.404 61.3638L36.24 59.6188L35.095 58.4218ZM33.232 61.3478L36.986 65.2528L38.185 64.0898L34.43 60.1838L33.232 61.3478ZM38.158 65.2698L39.702 63.8068L38.557 62.6108L37.013 64.0728L38.158 65.2698ZM38.6 63.8408C40.292 65.2368 42.297 66.2838 44.499 66.8318L44.909 65.2368C42.95 64.7378 41.165 63.8068 39.657 62.5608L38.6 63.8408ZM43.874 66.0178L43.816 68.5108L45.478 68.5438L45.534 66.0508L43.874 66.0178ZM44.628 69.3588L50.045 69.4918L50.083 67.8298L44.667 67.6968L44.628 69.3588ZM50.894 68.6768L50.948 66.3838L49.286 66.3498L49.232 68.6438L50.894 68.6768ZM50.221 67.1808C52.754 66.8658 55.096 65.9178 57.082 64.5058L56.118 63.1428C54.35 64.4058 52.266 65.2528 50.01 65.5358L50.221 67.1808ZM56.002 64.4058L57.832 66.3008L59.03 65.1538L57.2 63.2418L56.002 64.4058ZM59.004 66.3338L62.933 62.5938L61.788 61.3978L57.858 65.1198L59.004 66.3338ZM62.959 61.4138L60.945 59.3198L59.747 60.4828L61.761 62.5778L62.959 61.4138ZM61.045 60.3498C62.073 58.7548 62.808 56.9428 63.169 54.9988L61.535 54.6988C61.214 56.4278 60.561 58.0228 59.647 59.4528L61.045 60.3498ZM64.487 54.0678L62.371 54.0178L62.333 55.6798L64.448 55.7298L64.487 54.0678ZM63.76 49.4638L63.637 54.8658L65.299 54.9148L65.422 49.4968L63.76 49.4638ZM62.291 50.2618L64.573 50.3118L64.61 48.6498L62.328 48.5998L62.291 50.2618ZM63.124 49.2648C62.668 47.0038 61.708 44.9348 60.363 43.1648L59.04 44.1698C60.237 45.7408 61.091 47.5858 61.495 49.5968L63.124 49.2648ZM60.273 44.2698L62.123 42.5148L60.978 41.3098L59.128 43.0648L60.273 44.2698ZM62.15 41.3358L58.395 37.4288L57.197 38.5808L60.951 42.4878L62.15 41.3358ZM57.224 37.4018L55.081 39.4388L56.225 40.6428L58.369 38.6068L57.224 37.4018ZM56.08 39.3288C54.518 38.3908 52.769 37.7248 50.899 37.3988L50.614 39.0358C52.277 39.3268 53.835 39.9188 55.226 40.7528L56.08 39.3288ZM51.587 38.2368L51.634 36.1738L49.974 36.1358L49.925 38.1988L51.587 38.2368ZM50.823 35.3228L45.406 35.1998L45.368 36.8618L50.785 36.9848L50.823 35.3228ZM45.335 38.2978L45.503 39.1128C45.883 39.0348 46.158 38.7058 46.166 38.3178L45.335 38.2978ZM41.117 39.8968L40.517 40.4738C40.781 40.7478 41.2 40.8078 41.53 40.6178L41.117 39.8968ZM39.177 37.8788L39.775 37.3028C39.459 36.9738 38.936 36.9618 38.604 37.2758L39.177 37.8788ZM35.248 41.6108L34.676 41.0068C34.515 41.1598 34.422 41.3698 34.417 41.5908C34.412 41.8138 34.495 42.0258 34.648 42.1858L35.248 41.6108ZM37.003 43.4368L37.654 43.9528C37.912 43.6268 37.89 43.1608 37.603 42.8608L37.003 43.4368ZM34.364 48.7818L34.345 49.6128C34.733 49.6298 35.077 49.3638 35.17 48.9818L34.364 48.7818ZM32.09 48.7328L32.11 47.9018C31.651 47.9018 31.271 48.2508 31.259 48.7158L32.09 48.7328ZM31.967 54.1508L31.136 54.1338C31.131 54.3498 31.214 54.5658 31.367 54.7328C31.518 54.8818 31.728 54.9818 31.949 54.9818L31.967 54.1508ZM34.074 54.2008L34.899 54.0838C34.842 53.6848 34.502 53.3858 34.094 53.3698L34.074 54.2008ZM35.668 59.0208L36.24 59.6188C36.513 59.3698 36.578 58.9538 36.398 58.6218L35.668 59.0208ZM33.83 60.7658L33.258 60.1678C33.099 60.3168 33.006 60.5328 33.001 60.7488C32.996 60.9648 33.079 61.1808 33.232 61.3478L33.83 60.7658ZM37.586 64.6718L36.986 65.2528C37.304 65.5858 37.827 65.5858 38.158 65.2698L37.586 64.6718ZM39.129 63.2088L39.657 62.5608C39.333 62.2948 38.861 62.3118 38.557 62.6108L39.129 63.2088ZM44.703 66.0348L45.534 66.0508C45.544 65.6688 45.283 65.3198 44.909 65.2368L44.703 66.0348ZM44.647 68.5278L43.816 68.5108C43.811 68.7268 43.894 68.9428 44.047 69.1088C44.198 69.2588 44.407 69.3588 44.628 69.3588L44.647 68.5278ZM50.063 68.6608L50.045 69.4918C50.504 69.4918 50.884 69.1258 50.894 68.6768L50.063 68.6608ZM50.117 66.3668L50.01 65.5358C49.603 65.5858 49.294 65.9348 49.286 66.3498L50.117 66.3668ZM56.6 63.8238L57.2 63.2418C56.914 62.9428 56.454 62.9098 56.118 63.1428L56.6 63.8238ZM58.43 65.7348L57.832 66.3008C58.149 66.6328 58.671 66.6488 59.004 66.3338L58.43 65.7348ZM62.359 61.9958L62.933 62.5938C63.092 62.4448 63.185 62.2448 63.19 62.0118C63.195 61.7958 63.112 61.5798 62.959 61.4138L62.359 61.9958ZM60.345 59.9018L59.647 59.4528C59.437 59.7688 59.479 60.2008 59.747 60.4828L60.345 59.9018ZM62.351 54.8488L62.371 54.0178C61.962 54.0008 61.608 54.2838 61.535 54.6988L62.351 54.8488ZM64.468 54.8988L64.448 55.7298C64.909 55.7298 65.288 55.3638 65.299 54.9148L64.468 54.8988ZM64.591 49.4808L65.422 49.4968C65.432 49.0318 65.068 48.6498 64.61 48.6498L64.591 49.4808ZM62.309 49.4308L61.495 49.5968C61.571 49.9628 61.902 50.2448 62.291 50.2618L62.309 49.4308ZM59.702 43.6678L59.128 43.0648C58.822 43.3578 58.783 43.8328 59.04 44.1698L59.702 43.6678ZM61.552 41.9118L62.123 42.5148C62.283 42.3618 62.376 42.1528 62.381 41.9298C62.386 41.7088 62.303 41.4958 62.15 41.3358L61.552 41.9118ZM57.795 38.0058L58.395 37.4288C58.078 37.0998 57.554 37.0878 57.224 37.4018L57.795 38.0058ZM55.653 40.0398L55.226 40.7528C55.545 40.9458 55.954 40.9008 56.225 40.6428L55.653 40.0398ZM50.756 38.2168L49.925 38.1988C49.917 38.6088 50.21 38.9658 50.614 39.0358L50.756 38.2168ZM45.386 36.0308L45.406 35.1998C44.948 35.1898 44.567 35.5538 44.557 36.0128L45.386 36.0308ZM50.805 36.1538L51.634 36.1738C51.646 35.7148 51.282 35.3348 50.823 35.3228L50.805 36.1538Z" fill="#0044CC"/>
<path d="M52.435 55.6777H50.73V48.5876H52.435V55.6777ZM48.188 54.3577H44.551V53.0377H48.188V54.3577ZM48.256 55.6777L46.523 50.0776L46.298 48.5876H47.477L50.098 55.6777H48.256ZM46.825 50.0776L45.097 55.6777H43.26L45.866 48.5876H47.03L46.825 50.0776Z" fill="#FF6B00"/>
</svg>
