<svg width="79" height="79" viewBox="0 0 79 79" fill="none" xmlns="http://www.w3.org/2000/svg">
<rect width="78.116" height="78.11" rx="1" fill="white"/>
<path d="M1.66199 76.45H76.4561V1.66003H1.66199V76.45ZM77.286 78.11H0.830994C0.371994 78.11 0 77.74 0 77.28V0.829956C0 0.369956 0.371994 0 0.830994 0H77.286C77.746 0 78.116 0.369956 78.116 0.829956V77.28C78.116 77.74 77.746 78.11 77.286 78.11Z" fill="#0044CC"/>
<g opacity="0.2">
<path d="M14.126 23.367L39.057 10.802L63.988 23.367V42.53C62.231 52.054 56.375 60.348 47.975 65.184L39.057 70.32L28.78 64.752C20.49 60.248 14.992 51.921 14.126 42.53V23.367Z" fill="#0055FF"/>
</g>
<path d="M14.9559 23.879V42.53C15.7939 51.577 21.1109 59.639 29.1759 64.021L39.0439 69.369L47.5599 64.463C55.7609 59.741 61.4509 51.692 63.1689 42.379L63.1549 23.879L39.0559 11.732L14.9559 23.879ZM39.0559 71.152C38.9189 71.152 38.7829 71.118 38.6599 71.051L28.3829 65.482C19.8279 60.835 14.1899 52.283 13.2969 42.606L13.2939 23.368C13.2939 23.054 13.4709 22.767 13.7509 22.626L38.6819 10.06C38.9169 9.93997 39.1949 9.93997 39.4299 10.06L64.3609 22.626C64.6409 22.767 64.8179 23.054 64.8179 23.368V42.53C62.9969 52.475 57.0139 60.939 48.3889 65.904L39.4699 71.041C39.3419 71.114 39.1989 71.152 39.0559 71.152Z" fill="#0044CC"/>
<path d="M20.7761 46.536L17.4521 53.184L19.1141 55.677L24.1001 61.494L34.0721 67.312L39.0591 69.805L42.3831 68.143L54.0172 60.663L59.8341 54.846L59.0032 51.522L55.6791 45.705L50.6931 42.381H45.7071L38.2271 43.212L31.5791 41.55L24.9311 43.212L20.7761 46.536Z" fill="white"/>
<g opacity="0.8">
<path d="M50.546 54.381C50.546 53.982 50.468 53.6 50.312 53.234C50.157 52.869 49.944 52.553 49.677 52.287C49.412 52.021 49.098 51.822 48.734 51.655C48.375 51.506 47.993 51.423 47.586 51.423C47.174 51.423 46.79 51.506 46.431 51.655C46.07 51.822 45.758 52.021 45.488 52.287C45.221 52.553 45.008 52.869 44.852 53.234C44.697 53.6 44.619 53.982 44.619 54.381C44.619 54.797 44.697 55.179 44.852 55.528C45.008 55.894 45.221 56.209 45.488 56.475C45.758 56.741 46.07 56.957 46.431 57.107C46.79 57.256 47.174 57.339 47.586 57.339C47.993 57.339 48.375 57.256 48.734 57.107C49.098 56.957 49.412 56.741 49.677 56.475C49.944 56.209 50.157 55.894 50.312 55.528C50.468 55.179 50.546 54.797 50.546 54.381ZM52.396 54.381C52.396 54.83 52.338 55.245 52.221 55.661C52.108 56.076 51.949 56.459 51.741 56.808C51.533 57.173 51.282 57.489 50.988 57.788C50.694 58.087 50.368 58.337 50.014 58.553C49.658 58.752 49.276 58.918 48.864 59.035C48.453 59.151 48.026 59.201 47.586 59.201C47.144 59.201 46.718 59.151 46.306 59.035C45.899 58.918 45.517 58.752 45.158 58.553C44.802 58.337 44.478 58.087 44.184 57.788C43.89 57.489 43.637 57.173 43.424 56.808C43.216 56.459 43.053 56.076 42.937 55.661C42.824 55.245 42.768 54.83 42.768 54.381C42.768 53.949 42.824 53.517 42.937 53.101C43.053 52.702 43.216 52.32 43.424 51.954C43.637 51.605 43.89 51.273 44.184 50.991C44.478 50.691 44.802 50.442 45.158 50.226C45.517 50.027 45.899 49.86 46.306 49.744C46.718 49.628 47.144 49.578 47.586 49.578C48.026 49.578 48.453 49.628 48.864 49.744C49.276 49.86 49.658 50.027 50.014 50.226C50.368 50.442 50.694 50.691 50.988 50.991C51.282 51.273 51.533 51.605 51.741 51.954C51.949 52.32 52.108 52.702 52.221 53.101C52.338 53.517 52.396 53.949 52.396 54.381ZM36.595 59.002H34.73V49.694H38.458C38.799 49.694 39.128 49.744 39.443 49.827C39.759 49.91 40.055 50.043 40.328 50.209C40.604 50.359 40.855 50.558 41.081 50.791C41.31 51.007 41.504 51.273 41.664 51.539C41.829 51.822 41.955 52.121 42.041 52.437C42.133 52.752 42.178 53.068 42.178 53.417C42.178 53.932 42.08 54.414 41.885 54.863C41.691 55.312 41.425 55.711 41.087 56.043C40.75 56.392 40.353 56.658 39.899 56.841C39.448 57.04 38.968 57.14 38.458 57.14H36.595V59.002ZM36.595 51.556V55.279H38.458C38.712 55.279 38.953 55.229 39.177 55.146C39.404 55.046 39.6 54.913 39.769 54.73C39.937 54.564 40.07 54.364 40.165 54.148C40.265 53.916 40.314 53.666 40.314 53.417C40.314 53.168 40.265 52.918 40.165 52.702C40.07 52.47 39.937 52.27 39.769 52.104C39.6 51.938 39.404 51.805 39.177 51.705C38.953 51.605 38.712 51.556 38.458 51.556H36.595ZM33.646 58.054C33.214 58.42 32.729 58.702 32.192 58.902C31.655 59.101 31.1 59.201 30.523 59.201C30.083 59.201 29.656 59.151 29.245 59.035C28.838 58.918 28.454 58.752 28.095 58.553C27.741 58.337 27.415 58.087 27.121 57.788C26.827 57.489 26.574 57.173 26.361 56.808C26.154 56.459 25.992 56.076 25.874 55.661C25.763 55.245 25.707 54.83 25.707 54.381C25.707 53.949 25.763 53.517 25.874 53.101C25.992 52.702 26.154 52.32 26.361 51.954C26.574 51.605 26.827 51.273 27.121 50.974C27.415 50.675 27.741 50.425 28.095 50.226C28.454 50.01 28.838 49.844 29.245 49.744C29.656 49.628 30.083 49.561 30.523 49.561C31.1 49.561 31.655 49.661 32.192 49.86C32.729 50.06 33.214 50.342 33.646 50.725L32.659 52.337C32.386 52.054 32.064 51.822 31.692 51.672C31.319 51.506 30.93 51.423 30.523 51.423C30.113 51.423 29.727 51.506 29.368 51.655C29.009 51.822 28.695 52.021 28.426 52.287C28.158 52.553 27.945 52.869 27.791 53.234C27.635 53.6 27.556 53.982 27.556 54.381C27.556 54.797 27.635 55.179 27.791 55.528C27.945 55.894 28.158 56.209 28.426 56.475C28.695 56.741 29.009 56.957 29.368 57.107C29.727 57.256 30.113 57.339 30.523 57.339C30.93 57.339 31.319 57.256 31.692 57.107C32.064 56.941 32.386 56.725 32.659 56.425L33.646 58.054Z" fill="#FF6B00"/>
</g>
<path fill-rule="evenodd" clip-rule="evenodd" d="M30.8459 28.984C30.8459 24.447 34.5219 20.774 39.0579 20.774C43.5939 20.774 47.2699 24.447 47.2699 28.984V30.23C48.2889 30.513 49.0299 31.411 49.0299 32.458C49.0299 33.754 47.9139 34.801 46.5369 34.801H46.4729C45.1499 37.56 42.3269 39.472 39.0579 39.472C35.7889 39.472 32.9669 37.56 31.6439 34.801H31.5789C30.2029 34.801 29.0859 33.754 29.0859 32.458C29.0859 31.411 29.8269 30.513 30.8459 30.23V28.984Z" fill="white"/>
<path d="M39.0559 21.605C34.9859 21.605 31.6749 24.916 31.6749 28.985V30.863L31.0649 31.032C30.3879 31.22 29.9149 31.806 29.9149 32.459C29.9149 33.293 30.6609 33.971 31.5769 33.971H32.0999L32.3909 34.444C33.6139 36.994 36.2289 38.641 39.0559 38.641C41.8829 38.641 44.4979 36.994 45.7209 34.444L45.9469 33.971H46.4699C47.4519 33.971 48.1969 33.293 48.1969 32.459C48.1969 31.806 47.7239 31.22 47.0459 31.032L46.4369 30.863V28.985C46.4369 24.916 43.1259 21.605 39.0559 21.605ZM39.0559 40.303C35.7569 40.303 32.6929 38.471 31.1159 35.596C29.4759 35.361 28.2529 34.044 28.2529 32.459C28.2529 31.275 28.9509 30.203 30.0129 29.667V28.985C30.0129 23.999 34.0699 19.943 39.0559 19.943C44.0419 19.943 48.0989 23.999 48.0989 28.985V29.667C49.1609 30.203 49.8589 31.275 49.8589 32.459C49.8589 34.061 48.6099 35.39 46.9919 35.604C45.4149 38.474 42.3519 40.303 39.0559 40.303Z" fill="#0044CC"/>
<path d="M59.8359 53.964C59.4339 53.964 59.0799 53.672 59.0159 53.261L58.9869 53.079C58.4519 49.556 56.4119 46.456 53.3899 44.571C50.3729 42.69 46.6999 42.227 43.3129 43.289C40.5669 44.151 37.5429 44.117 34.7979 43.203C31.3109 42.046 27.5309 42.515 24.4259 44.492C21.3509 46.447 19.3449 49.632 18.9229 53.23C18.8699 53.685 18.4509 54.005 18.0019 53.959C17.5449 53.906 17.2189 53.492 17.2729 53.036C17.7529 48.941 20.0349 45.315 23.5329 43.089C27.0649 40.841 31.3609 40.312 35.3229 41.625C37.7399 42.433 40.4009 42.459 42.8149 41.703C46.6639 40.492 50.8399 41.021 54.2699 43.161C57.7039 45.303 60.0229 48.825 60.6299 52.826L60.6579 53.005C60.7289 53.458 60.4189 53.883 59.9649 53.954C59.9219 53.961 59.8779 53.964 59.8359 53.964Z" fill="#0044CC"/>
<path d="M14.9559 23.879V42.53C15.7939 51.577 21.1109 59.639 29.1759 64.021L39.0439 69.369L47.5599 64.463C55.7609 59.741 61.4509 51.692 63.1689 42.379L63.1549 23.879L39.0559 11.732L14.9559 23.879ZM39.0559 71.152C38.9189 71.152 38.7829 71.118 38.6599 71.051L28.3829 65.482C19.8279 60.835 14.1899 52.283 13.2969 42.606L13.2939 23.368C13.2939 23.054 13.4709 22.767 13.7509 22.626L38.6819 10.06C38.9169 9.93997 39.1949 9.93997 39.4299 10.06L64.3609 22.626C64.6409 22.767 64.8179 23.054 64.8179 23.368V42.53C62.9969 52.475 57.0139 60.939 48.3889 65.904L39.4699 71.041C39.3419 71.114 39.1989 71.152 39.0559 71.152Z" fill="#0044CC"/>
</svg>
