<svg width="82" height="82" viewBox="0 0 82 82" fill="none" xmlns="http://www.w3.org/2000/svg">
<path d="M40.7199 0.831055C62.7499 0.831055 80.6089 18.6901 80.6089 40.7201C80.6089 62.7501 62.7499 80.6091 40.7199 80.6091C18.6899 80.6091 0.830887 62.7501 0.830887 40.7201C0.830887 18.6901 18.6899 0.831055 40.7199 0.831055Z" fill="white"/>
<path d="M40.72 1.662C19.183 1.662 1.662 19.183 1.662 40.72C1.662 62.257 19.183 79.778 40.72 79.778C62.257 79.778 79.778 62.257 79.778 40.72C79.778 19.183 62.257 1.662 40.72 1.662ZM40.72 81.44C18.266 81.44 0 63.173 0 40.72C0 18.267 18.266 0 40.72 0C63.174 0 81.44 18.267 81.44 40.72C81.44 63.173 63.174 81.44 40.72 81.44Z" fill="#0044CC"/>
<g opacity="0.15">
<path d="M7.47998 37.396C7.47998 33.724 10.455 30.748 14.128 30.748H60.666V60.665C60.666 64.336 57.691 67.313 54.017 67.313H14.128C10.455 67.313 7.47998 64.336 7.47998 60.665V37.396Z" fill="#0055FF"/>
</g>
<path d="M14.1199 30.7481C14.1199 27.0761 17.0949 24.1001 20.7679 24.1001H67.3059V54.0171C67.3059 57.6881 64.3309 60.6651 60.6569 60.6651H14.1199V30.7481Z" fill="white"/>
<path d="M14.9599 59.8331H60.6659C63.8739 59.8331 66.4838 57.2231 66.4838 54.0161V24.9301H20.7769C17.5699 24.9301 14.9599 27.5401 14.9599 30.7471V59.8331ZM60.6659 61.4951H14.1289C13.6699 61.4951 13.2979 61.1231 13.2979 60.6641V30.7471C13.2979 26.6231 16.6529 23.2681 20.7769 23.2681H67.3148C67.7738 23.2681 68.1459 23.6401 68.1459 24.0991V54.0161C68.1459 58.1401 64.7909 61.4951 60.6659 61.4951Z" fill="#0044CC"/>
<path d="M44.0396 59.8332C43.6126 59.8332 43.2496 59.5052 43.2136 59.0712L42.6146 51.8782C41.8496 49.8452 39.7236 48.7332 37.6596 49.2462L34.6356 50.0002C33.1486 50.3652 31.5806 50.3622 30.0936 49.9952L27.1346 49.2552C25.0766 48.7422 22.9296 49.8402 22.1406 51.8132L21.6016 59.0612C21.5676 59.5202 21.1616 59.8682 20.7126 59.8312C20.2546 59.7982 19.9106 59.4012 19.9436 58.9432L20.4576 51.7502C20.4866 51.5482 20.5176 51.3452 20.6296 51.1262C21.6956 48.4532 24.6826 46.9292 27.5376 47.6432L30.4966 48.3822C31.7366 48.6902 32.9946 48.6922 34.2346 48.3862L37.2586 47.6332C40.1476 46.9242 43.1076 48.4722 44.1536 51.2412C44.1986 51.3662 44.2736 51.5662 44.2736 51.8092L44.8686 58.9332C44.9076 59.3912 44.5666 59.7922 44.1096 59.8302C44.0866 59.8322 44.0636 59.8332 44.0396 59.8332Z" fill="#0044CC"/>
<path fill-rule="evenodd" clip-rule="evenodd" d="M25.5597 37.592C25.5597 33.812 28.6347 30.748 32.4077 30.748C36.1807 30.748 39.2547 33.812 39.2547 37.592V38.656C40.1027 38.9 40.7177 39.645 40.7177 40.524C40.7177 41.604 39.7867 42.48 38.6397 42.48H38.5897C37.4937 44.792 35.1327 46.391 32.4077 46.391C29.6817 46.391 27.3217 44.792 26.2247 42.48H26.1747C25.0277 42.48 24.0967 41.604 24.0967 40.524C24.0967 39.645 24.7117 38.9 25.5597 38.656V37.592Z" fill="white"/>
<path d="M32.4098 31.579C29.0918 31.579 26.3928 34.277 26.3928 37.593V39.282L25.7928 39.455C25.2768 39.604 24.9308 40.033 24.9308 40.525C24.9308 41.145 25.4908 41.65 26.1768 41.65H26.7028L26.9778 42.124C27.9678 44.212 30.0998 45.56 32.4098 45.56C34.7198 45.56 36.8508 44.212 37.8408 42.124L38.0658 41.65H38.5918C39.3288 41.65 39.8888 41.145 39.8888 40.525C39.8888 40.034 39.5418 39.604 39.0258 39.455L38.4248 39.282V37.593C38.4248 34.277 35.7258 31.579 32.4098 31.579ZM32.4098 47.222C29.6228 47.222 27.0388 45.685 25.6968 43.268C24.3028 43.034 23.2688 41.893 23.2688 40.525C23.2688 39.499 23.8368 38.588 24.7308 38.103V37.593C24.7308 33.36 28.1748 29.917 32.4098 29.917C36.6428 29.917 40.0868 33.36 40.0868 37.593V38.103C40.9828 38.588 41.5508 39.499 41.5508 40.525C41.5508 41.907 40.4958 43.057 39.1178 43.274C37.7738 45.688 35.1938 47.222 32.4098 47.222Z" fill="#0044CC"/>
<g opacity="0.6">
<path d="M60.6598 36.5648H49.0258C48.5658 36.5648 48.1948 36.1928 48.1948 35.7338C48.1948 35.2748 48.5658 34.9028 49.0258 34.9028H60.6598C61.1188 34.9028 61.4908 35.2748 61.4908 35.7338C61.4908 36.1928 61.1188 36.5648 60.6598 36.5648Z" fill="#FF6B00"/>
</g>
<g opacity="0.6">
<path d="M60.6598 42.3822H49.0258C48.5658 42.3822 48.1948 42.0102 48.1948 41.5512C48.1948 41.0922 48.5658 40.7202 49.0258 40.7202H60.6598C61.1188 40.7202 61.4908 41.0922 61.4908 41.5512C61.4908 42.0102 61.1188 42.3822 60.6598 42.3822Z" fill="#FF6B00"/>
</g>
<g opacity="0.6">
<path d="M60.6598 48.1991H49.0258C48.5658 48.1991 48.1948 47.8271 48.1948 47.3681C48.1948 46.9091 48.5658 46.5371 49.0258 46.5371H60.6598C61.1188 46.5371 61.4908 46.9091 61.4908 47.3681C61.4908 47.8271 61.1188 48.1991 60.6598 48.1991Z" fill="#FF6B00"/>
</g>
<g opacity="0.1">
<path d="M27.4197 32.4102C29.2557 32.4102 30.7437 35.3862 30.7437 39.0582C30.7437 42.7302 29.2557 45.7062 27.4197 45.7062C25.5837 45.7062 24.0957 42.7302 24.0957 39.0582C24.0957 35.3862 25.5837 32.4102 27.4197 32.4102Z" fill="#0055FF"/>
</g>
<g opacity="0.1">
<path d="M29.0801 47.3682C33.6701 47.3682 37.3901 50.3452 37.3901 54.0162C37.3901 57.6882 33.6701 60.6652 29.0801 60.6652C24.4901 60.6652 20.7701 57.6882 20.7701 54.0162C20.7701 50.3452 24.4901 47.3682 29.0801 47.3682Z" fill="#0055FF"/>
</g>
</svg>
