<svg width="77" height="89" viewBox="0 0 77 89" fill="none" xmlns="http://www.w3.org/2000/svg">
<path d="M38.3981 88.0956C38.2541 88.0956 38.1101 88.0586 37.9821 87.9846L0.55709 66.3776C0.30009 66.2296 0.14209 65.9556 0.14209 65.6586V22.4446C0.14209 22.1476 0.30009 21.8736 0.55709 21.7256L37.9821 0.118568C38.2381 -0.0294316 38.5571 -0.0294316 38.8131 0.118568L76.2381 21.7256C76.4951 21.8736 76.6531 22.1476 76.6531 22.4446V65.6586C76.6531 65.9556 76.4951 66.2296 76.2381 66.3776L38.8131 87.9846C38.6851 88.0586 38.5411 88.0956 38.3981 88.0956Z" fill="white"/>
<path d="M1.662 65.1708L38.256 86.2988L74.849 65.1708V22.9187L38.256 1.79075L1.662 22.9187V65.1708ZM38.256 88.0888C38.112 88.0888 37.968 88.0518 37.84 87.9768L0.416 66.3698C0.158 66.2228 0 65.9477 0 65.6507V22.4377C0 22.1407 0.158 21.8668 0.416 21.7188L37.84 0.11175C38.097 -0.03725 38.415 -0.03725 38.671 0.11175L76.096 21.7188C76.353 21.8668 76.511 22.1407 76.511 22.4377V65.6507C76.511 65.9477 76.353 66.2228 76.096 66.3698L38.671 87.9768C38.543 88.0518 38.399 88.0888 38.256 88.0888Z" fill="#0044CC"/>
<path fill-rule="evenodd" clip-rule="evenodd" d="M19.7319 28.9887C19.7319 24.4527 23.4099 20.7767 27.9459 20.7767C32.4819 20.7767 36.1579 24.4527 36.1579 28.9887V30.2287C37.1769 30.5227 37.9179 31.4117 37.9179 32.4627C37.9179 33.7537 36.8009 34.8007 35.4249 34.8007C35.4039 34.8007 35.3799 34.8007 35.3589 34.7997C34.0369 37.5647 31.2149 39.4747 27.9459 39.4747C24.6769 39.4747 21.8529 37.5647 20.5319 34.7997C20.5099 34.7997 20.4879 34.8007 20.4669 34.8007C19.0889 34.8007 17.9739 33.7537 17.9739 32.4627C17.9739 31.4117 18.7129 30.5227 19.7319 30.2287V28.9887Z" fill="#BFD4FF"/>
<path d="M27.9422 21.6067C23.8712 21.6067 20.5592 24.9177 20.5592 28.9887V30.8537L19.9592 31.0267C19.2662 31.2267 18.8012 31.8027 18.8012 32.4617C18.8012 33.2927 19.5462 33.9697 20.4632 33.9697H20.9872L21.2782 34.4407C22.4962 36.9937 25.1132 38.6427 27.9422 38.6427C30.7702 38.6427 33.3862 36.9937 34.6062 34.4407L34.8522 33.9277L35.4202 33.9717C36.3372 33.9697 37.0832 33.2927 37.0832 32.4617C37.0832 31.8027 36.6172 31.2267 35.9242 31.0267L35.3242 30.8537V28.9887C35.3242 24.9177 32.0132 21.6067 27.9422 21.6067ZM27.9422 40.3047C24.6402 40.3047 21.5752 38.4707 20.0012 35.5927C18.3612 35.3607 17.1392 34.0447 17.1392 32.4617C17.1392 31.2657 17.8242 30.2057 18.8972 29.6657V28.9887C18.8972 24.0027 22.9552 19.9447 27.9422 19.9447C32.9292 19.9447 36.9862 24.0027 36.9862 28.9887V29.6657C38.0602 30.2057 38.7452 31.2657 38.7452 32.4617C38.7452 34.0627 37.4952 35.3897 35.8772 35.6027C34.3012 38.4737 31.2392 40.3047 27.9422 40.3047Z" fill="#0044CC"/>
<path d="M10.8021 49.7287L10.6971 51.2077L9.99414 63.8557H46.5591V62.4597L45.8561 51.2417L45.8301 50.7927C45.3911 43.6327 38.1781 38.9037 31.4301 41.3617L31.0661 41.4947C28.8171 42.3127 26.3461 42.2747 24.1221 41.3867C18.0001 38.9387 11.2671 43.1587 10.8021 49.7287Z" fill="#BFD4FF"/>
<path d="M10.872 63.0247H45.728V62.4597L45 50.8437C44.807 47.6947 43.182 44.8967 40.541 43.1657C37.901 41.4357 34.684 41.0607 31.713 42.1417L31.351 42.2747C28.907 43.1647 26.228 43.1237 23.813 42.1577C21.145 41.0937 18.217 41.3547 15.781 42.8807C13.346 44.4057 11.834 46.9237 11.63 49.7867L11.525 51.2667L10.872 63.0247ZM46.559 64.6867H9.99401C9.76601 64.6867 9.54801 64.5927 9.39001 64.4267C9.23301 64.2617 9.15201 64.0377 9.16401 63.8107L9.97301 49.6697C10.214 46.2697 12.009 43.2817 14.898 41.4717C17.79 39.6617 21.266 39.3467 24.43 40.6167C26.464 41.4277 28.72 41.4637 30.782 40.7137L31.144 40.5807C34.611 39.3157 38.367 39.7547 41.453 41.7767C44.536 43.7977 46.433 47.0647 46.659 50.7427L47.388 62.4077L47.39 63.8557C47.39 64.3147 47.018 64.6867 46.559 64.6867Z" fill="#0044CC"/>
<path fill-rule="evenodd" clip-rule="evenodd" d="M45.622 28.3458C45.622 24.6248 48.639 21.6078 52.36 21.6078C56.083 21.6078 59.1 24.6248 59.1 28.3458V29.3628C59.936 29.6038 60.542 30.3338 60.542 31.1958C60.542 32.2568 59.627 33.1138 58.498 33.1138H58.443C57.36 35.3828 55.043 36.9498 52.36 36.9498C49.677 36.9498 47.362 35.3828 46.277 33.1138H46.224C45.094 33.1138 44.178 32.2568 44.178 31.1958C44.178 30.3338 44.786 29.6038 45.622 29.3628V28.3458Z" fill="white"/>
<path d="M52.3619 22.4378C49.1039 22.4378 46.4549 25.0888 46.4549 28.3458V29.9868L45.8549 30.1608C45.3489 30.3068 45.0099 30.7218 45.0099 31.1958C45.0099 31.7948 45.5559 32.2818 46.2249 32.2818H46.7489L47.0289 32.7538C48.0059 34.7978 50.0989 36.1188 52.3619 36.1188C54.6249 36.1188 56.7189 34.7978 57.6949 32.7538L57.9199 32.2818H58.4449C59.1689 32.2818 59.7129 31.7948 59.7129 31.1958C59.7129 30.7218 59.3749 30.3068 58.8699 30.1608L58.2699 29.9868V28.3458C58.2699 25.0888 55.6199 22.4378 52.3619 22.4378ZM52.3619 37.7808C49.6249 37.7808 47.0809 36.2728 45.7509 33.8998C44.3709 33.6698 43.3479 32.5448 43.3479 31.1958C43.3479 30.1878 43.9089 29.2908 44.7929 28.8098V28.3458C44.7929 24.1708 48.1879 20.7758 52.3619 20.7758C56.5359 20.7758 59.9319 24.1708 59.9319 28.3458V28.8098C60.8149 29.2908 61.3749 30.1878 61.3749 31.1958C61.3749 32.5598 60.3309 33.6928 58.9679 33.9078C57.6399 36.2768 55.0979 37.7808 52.3619 37.7808Z" fill="#0044CC"/>
<path d="M66.1719 55.6787C65.7349 55.6787 65.3689 55.3377 65.3429 54.8967L64.8319 46.2207C64.6859 43.8267 63.5219 41.8277 61.6309 40.5867C59.7269 39.3387 57.4069 39.0697 55.2649 39.8457C53.4009 40.5237 51.3429 40.5417 49.4739 39.8957L47.9599 39.3697C45.1809 38.4027 42.1219 39.8807 41.1439 42.6587C40.9909 43.0897 40.5179 43.3187 40.0839 43.1667C39.6509 43.0137 39.4229 42.5397 39.5759 42.1067C40.8569 38.4687 44.8659 36.5437 48.5049 37.7987L50.0179 38.3247C51.5279 38.8487 53.1899 38.8327 54.6969 38.2837C57.3349 37.3267 60.1929 37.6577 62.5429 39.1977C64.8769 40.7287 66.3119 43.1967 66.4819 45.9727L67.0019 54.7987C67.0299 55.2567 66.6799 55.6497 66.2219 55.6767C66.2049 55.6787 66.1879 55.6787 66.1719 55.6787Z" fill="#0044CC"/>
<path d="M45.7321 52.3577H26.2821V54.0177H45.7321V52.3577ZM25.6921 52.6077C25.3721 52.9277 25.3721 53.4577 25.6921 53.7677L30.9821 59.0676C31.3121 59.3876 31.8321 59.3876 32.1621 59.0676C32.4821 58.7376 32.4821 58.2077 32.1621 57.8977L27.462 53.1876L32.1621 48.4877C32.4821 48.1677 32.4821 47.6376 32.1621 47.3076C31.8321 46.9876 31.3121 46.9876 30.9821 47.3076L25.6921 52.6077ZM45.7321 54.0177C46.1921 54.0177 46.5621 53.6576 46.5621 53.1876C46.5621 52.7276 46.1921 52.3577 45.7321 52.3577V54.0177Z" fill="#0044CC"/>
<path d="M56.5321 45.7067C58.3691 45.7067 59.8561 47.2027 59.8561 49.0307H61.5181C61.5181 46.2717 59.2861 44.0447 56.5321 44.0447V45.7067ZM59.8561 49.0307C59.8561 50.8587 58.3691 52.3547 56.5321 52.3547V54.0167C59.2861 54.0167 61.5181 51.7897 61.5181 49.0307H59.8561ZM56.5321 52.3547H47.3911V54.0167H56.5321V52.3547ZM51.5461 45.7067H56.5321V44.0447H51.5461V45.7067ZM47.3911 52.3547C46.9321 52.3547 46.5601 52.7207 46.5601 53.1857C46.5601 53.6517 46.9321 54.0167 47.3911 54.0167V52.3547ZM51.5461 44.0447C51.0871 44.0447 50.7151 44.4167 50.7151 44.8757C50.7151 45.3347 51.0871 45.7067 51.5461 45.7067V44.0447Z" fill="#FF6B00"/>
</svg>
