<svg width="80" height="79" viewBox="0 0 80 79" fill="none" xmlns="http://www.w3.org/2000/svg">
<rect x="1" width="78.116" height="78.11" rx="1" fill="white"/>
<path d="M19.918 59.317V25.096L25.901 18.78L26.925 17.866C27.229 17.6 27.622 17.45 28.029 17.45H53.159V52.669C53.159 56.326 50.182 59.317 46.511 59.317H19.918Z" fill="white"/>
<g opacity="0.2">
<path d="M13.27 65.151V27.522L19.852 20.575L21.025 19.528C21.329 19.262 21.722 19.112 22.129 19.112H49.835V58.503C49.835 62.176 46.858 65.151 43.187 65.151H13.27Z" fill="#0055FF"/>
</g>
<path d="M19.918 59.317V25.096L25.901 18.78L26.925 17.866C27.229 17.6 27.622 17.45 28.029 17.45H53.159V52.669C53.159 56.326 50.182 59.317 46.511 59.317H19.918Z" fill="white"/>
<path d="M2.46692 76.45H77.2589V1.66003H2.46692V76.45ZM78.0899 78.11H1.63593C1.17593 78.11 0.804932 77.74 0.804932 77.28V0.829956C0.804932 0.369956 1.17593 0 1.63593 0H78.0899C78.5499 0 78.9209 0.369956 78.9209 0.829956V77.28C78.9209 77.74 78.5499 78.11 78.0899 78.11Z" fill="#0044CC"/>
<g opacity="0.2">
<path d="M34.877 34.835L49.835 27.422L64.794 34.835V46.17C63.742 51.788 60.225 56.625 55.212 59.384L49.835 62.325L43.631 59.118C38.695 56.575 35.396 51.688 34.877 46.17V34.835Z" fill="#0055FF"/>
</g>
<path d="M35.7079 35.351V46.171C36.1999 51.361 39.3049 55.955 44.0119 58.379L49.8239 61.384L54.8129 58.655C59.6289 56.005 62.9699 51.399 63.9769 46.018L63.9639 35.351L49.8349 28.349L35.7079 35.351ZM49.8349 63.156C49.7049 63.156 49.5729 63.125 49.4539 63.064L43.2499 59.856C38.0379 57.17 34.5979 52.084 34.0489 46.248L34.0459 34.835C34.0459 34.518 34.2249 34.231 34.5079 34.09L49.4659 26.677C49.6999 26.564 49.9709 26.564 50.2049 26.677L65.1629 34.09C65.4459 34.231 65.6249 34.518 65.6249 34.835V46.171C64.5109 52.194 60.8679 57.221 55.6129 60.113L50.2339 63.054C50.1099 63.122 49.9729 63.156 49.8349 63.156Z" fill="#0044CC"/>
<path d="M19.9179 60.15H37.3699V58.49H19.9179V60.15ZM20.7489 32.23H19.0869V59.3201H20.7489V32.23ZM20.5219 25.66L26.5049 19.35L25.2979 18.22L19.3149 24.53L20.5219 25.66ZM29.4649 24.72H23.9069V26.38H29.4649V24.72ZM28.6339 25.55H30.2959V17.4501H28.6339V25.55ZM53.1589 16.62H29.4649V18.28H53.1589V16.62ZM53.9899 17.4501H52.3279V25.03H53.9899V17.4501ZM19.0869 32.23H20.7489V25.1H19.0869V32.23ZM37.3699 60.15C37.8289 60.15 38.2009 59.7701 38.2009 59.3201C38.2009 58.8601 37.8289 58.49 37.3699 58.49V60.15ZM19.9179 59.3201H19.0869C19.0869 59.7701 19.4599 60.15 19.9179 60.15V59.3201ZM26.5049 19.35C26.8209 19.02 26.8059 18.5001 26.4739 18.1801C26.1389 17.8701 25.6139 17.89 25.2979 18.22L26.5049 19.35ZM23.9069 24.72C23.4489 24.72 23.0759 25.1 23.0759 25.55C23.0759 26.01 23.4489 26.38 23.9069 26.38V24.72ZM29.4649 25.55V26.38C29.9239 26.38 30.2959 26.01 30.2959 25.55H29.4649ZM53.1589 17.4501H53.9899C53.9899 16.9901 53.6179 16.62 53.1589 16.62V17.4501ZM52.3279 25.03C52.3279 25.48 52.7009 25.86 53.1589 25.86C53.6179 25.86 53.9899 25.48 53.9899 25.03H52.3279ZM19.9179 25.1L19.3149 24.53L19.0869 24.77V25.1H19.9179ZM29.4649 16.62H28.6339V17.4501H29.4649V16.62Z" fill="#0044CC"/>
<path d="M49.8348 35.732C54.8838 35.732 58.9758 39.825 58.9758 44.873C58.9758 49.922 54.8838 54.015 49.8348 54.015C44.7858 54.015 40.6938 49.922 40.6938 44.873C40.6938 39.825 44.7858 35.732 49.8348 35.732Z" fill="white"/>
<path d="M49.8348 36.563C45.2528 36.563 41.5248 40.291 41.5248 44.873C41.5248 49.455 45.2528 53.184 49.8348 53.184C54.4168 53.184 58.1448 49.455 58.1448 44.873C58.1448 40.291 54.4168 36.563 49.8348 36.563ZM49.8348 54.846C44.3358 54.846 39.8628 50.372 39.8628 44.873C39.8628 39.374 44.3358 34.901 49.8348 34.901C55.3338 34.901 59.8068 39.374 59.8068 44.873C59.8068 50.372 55.3338 54.846 49.8348 54.846Z" fill="#0044CC"/>
<path d="M30.7219 42.381C34.6149 43.328 36.7979 43.378 40.6939 42.381V48.049C36.8079 49.345 34.6109 49.362 30.7219 48.049V42.381Z" fill="white"/>
<path d="M31.5529 47.446C34.7049 48.444 36.6719 48.443 39.8629 47.444V43.435C36.8519 44.112 34.7119 44.109 31.5529 43.426V47.446ZM35.6909 49.861C34.0829 49.861 32.4809 49.519 30.4559 48.835C30.1179 48.722 29.8909 48.405 29.8909 48.048V42.38C29.8909 42.125 30.0079 41.884 30.2079 41.726C30.4099 41.569 30.6699 41.512 30.9179 41.574C34.7719 42.51 36.8289 42.51 40.4879 41.575C40.7339 41.51 40.9989 41.566 41.2039 41.725C41.4069 41.882 41.5249 42.124 41.5249 42.38V48.048C41.5249 48.405 41.2959 48.723 40.9569 48.837C38.9099 49.52 37.2969 49.861 35.6909 49.861Z" fill="#0044CC"/>
<path d="M68.9491 42.381C65.0561 43.328 62.8731 43.378 58.9771 42.381V48.049C62.8631 49.345 65.0601 49.362 68.9491 48.049V42.381Z" fill="white"/>
<path d="M59.808 47.444C62.999 48.444 64.965 48.442 68.118 47.446V43.425C64.961 44.109 62.82 44.112 59.808 43.435V47.444ZM63.98 49.861C62.373 49.861 60.762 49.52 58.714 48.837C58.375 48.723 58.146 48.405 58.146 48.048V42.38C58.146 42.124 58.264 41.882 58.467 41.724C58.671 41.565 58.935 41.512 59.183 41.575C62.842 42.512 64.898 42.512 68.753 41.573C69 41.512 69.262 41.568 69.463 41.726C69.663 41.883 69.78 42.125 69.78 42.38V48.048C69.78 48.405 69.553 48.721 69.215 48.835C67.19 49.518 65.588 49.861 63.98 49.861Z" fill="#0044CC"/>
<g opacity="0.8">
<path d="M48.29 49.86H46.427V40.553H50.153C50.496 40.553 50.825 40.603 51.14 40.685C51.456 40.769 51.75 40.902 52.023 41.068C52.3 41.217 52.551 41.417 52.777 41.65C53.007 41.865 53.201 42.131 53.361 42.397C53.525 42.68 53.652 42.979 53.738 43.295C53.828 43.611 53.874 43.927 53.874 44.276C53.874 44.791 53.776 45.273 53.582 45.722C53.387 46.17 53.122 46.569 52.783 46.902C52.445 47.251 52.05 47.516 51.596 47.699C51.145 47.899 50.665 47.999 50.153 47.999H48.29V49.86ZM48.29 42.414V46.137H50.153C50.409 46.137 50.65 46.087 50.874 46.004C51.099 45.904 51.297 45.771 51.464 45.589C51.634 45.422 51.765 45.223 51.862 45.007C51.961 44.774 52.011 44.525 52.011 44.276C52.011 44.026 51.961 43.777 51.862 43.561C51.765 43.328 51.634 43.129 51.464 42.963C51.297 42.796 51.099 42.663 50.874 42.564C50.65 42.464 50.409 42.414 50.153 42.414H48.29Z" fill="#FF6B00"/>
</g>
</svg>
