<svg width="77" height="89" viewBox="0 0 77 89" fill="none" xmlns="http://www.w3.org/2000/svg">
<path d="M38.3678 88.0956C38.2238 88.0956 38.0798 88.0586 37.9518 87.9846L0.526816 66.3776C0.269816 66.2296 0.111816 65.9556 0.111816 65.6586V22.4446C0.111816 22.1476 0.269816 21.8736 0.526816 21.7256L37.9518 0.118568C38.2078 -0.0294316 38.5268 -0.0294316 38.7828 0.118568L76.2078 21.7256C76.4648 21.8736 76.6228 22.1476 76.6228 22.4446V65.6586C76.6228 65.9556 76.4648 66.2296 76.2078 66.3776L38.7828 87.9846C38.6548 88.0586 38.5108 88.0956 38.3678 88.0956Z" fill="white"/>
<path d="M1.662 65.1708L38.256 86.2988L74.849 65.1708V22.9187L38.256 1.79075L1.662 22.9187V65.1708ZM38.256 88.0888C38.112 88.0888 37.968 88.0518 37.84 87.9768L0.415 66.3698C0.158 66.2228 0 65.9477 0 65.6507V22.4377C0 22.1407 0.158 21.8668 0.415 21.7188L37.84 0.11175C38.096 -0.03725 38.415 -0.03725 38.671 0.11175L76.096 21.7188C76.353 21.8668 76.511 22.1407 76.511 22.4377V65.6507C76.511 65.9477 76.353 66.2228 76.096 66.3698L38.671 87.9768C38.543 88.0518 38.399 88.0888 38.256 88.0888Z" fill="#0044CC"/>
<path fill-rule="evenodd" clip-rule="evenodd" d="M16.0519 30.8387C16.0519 27.1177 19.0689 24.1007 22.7919 24.1007C26.5129 24.1007 29.5299 27.1177 29.5299 30.8387V31.8557C30.3659 32.0967 30.9739 32.8267 30.9739 33.6887C30.9739 34.7497 30.0579 35.6067 28.9279 35.6067H28.8749C27.7889 37.8757 25.4729 39.4427 22.7919 39.4427C20.1089 39.4427 17.7919 37.8757 16.7079 35.6067H16.6539C15.5249 35.6067 14.6089 34.7497 14.6089 33.6887C14.6089 32.8267 15.2159 32.0967 16.0519 31.8557V30.8387Z" fill="#BFD4FF"/>
<path d="M22.7921 24.9308C19.5341 24.9308 16.8841 27.5818 16.8841 30.8388V32.4798L16.2841 32.6538C15.7791 32.7998 15.4411 33.2148 15.4411 33.6888C15.4411 34.2878 15.9851 34.7748 16.6541 34.7748H17.1781L17.4591 35.2468C18.4351 37.2908 20.5291 38.6118 22.7921 38.6118C25.0551 38.6118 27.1481 37.2908 28.1251 35.2468L28.3521 34.7748H28.8751C29.5981 34.7748 30.1441 34.2878 30.1441 33.6888C30.1441 33.2148 29.8051 32.7998 29.2991 32.6538L28.6991 32.4798V30.8388C28.6991 27.5818 26.0501 24.9308 22.7921 24.9308ZM22.7921 40.2738C20.0531 40.2738 17.5101 38.7658 16.1821 36.3928C14.8011 36.1628 13.7791 35.0378 13.7791 33.6888C13.7791 32.6808 14.3391 31.7838 15.2221 31.3028V30.8388C15.2221 26.6648 18.6181 23.2688 22.7921 23.2688C26.9661 23.2688 30.3611 26.6648 30.3611 30.8388V31.3028C31.2451 31.7838 31.8061 32.6808 31.8061 33.6888C31.8061 35.0508 30.7621 36.1858 29.3991 36.3998C28.0691 38.7698 25.5271 40.2738 22.7921 40.2738Z" fill="#0044CC"/>
<path d="M10.5919 47.5848L10.5169 48.6488L10.0049 57.8558H36.5979V56.8258L36.0859 48.6648L36.0679 48.3498C35.7489 43.1408 30.5019 39.7018 25.5939 41.4898L25.3289 41.5848C23.6939 42.1818 21.8969 42.1528 20.2799 41.5068C15.8269 39.7268 10.9309 42.7968 10.5919 47.5848Z" fill="#BFD4FF"/>
<path d="M10.8819 57.0257H35.7649V56.8257L35.2369 48.3957C35.1009 46.1817 33.9559 44.2117 32.0969 42.9927C30.2339 41.7717 27.9669 41.5107 25.8749 42.2707L25.6109 42.3657C23.7819 43.0347 21.7779 43.0007 19.9699 42.2787C18.0979 41.5287 16.0429 41.7117 14.3339 42.7867C12.6239 43.8577 11.5609 45.6287 11.4179 47.6427L11.3439 48.7077L10.8819 57.0257ZM36.5959 58.6877H10.0029C9.77495 58.6877 9.55595 58.5937 9.39895 58.4277C9.24295 58.2627 9.16095 58.0387 9.17395 57.8117L9.76095 47.5257C9.94095 44.9747 11.2869 42.7347 13.4509 41.3777C15.6169 40.0217 18.2149 39.7857 20.5869 40.7367C22.0159 41.3057 23.5979 41.3307 25.0439 40.8047L25.3079 40.7087C27.8959 39.7637 30.7029 40.0917 33.0079 41.6027C35.3099 43.1107 36.7269 45.5517 36.8949 48.2987L37.4269 57.8567C37.4269 58.3157 37.0549 58.6877 36.5959 58.6877Z" fill="#0044CC"/>
<path fill-rule="evenodd" clip-rule="evenodd" d="M45.9621 30.8387C45.9621 27.1177 48.9791 24.1007 52.7001 24.1007C56.4211 24.1007 59.4381 27.1177 59.4381 30.8387V31.8557C60.2741 32.0967 60.8821 32.8267 60.8821 33.6887C60.8821 34.7497 59.9671 35.6067 58.8361 35.6067H58.7831C57.6991 37.8757 55.3831 39.4427 52.7001 39.4427C50.0171 39.4427 47.7021 37.8757 46.6171 35.6067H46.5641C45.4341 35.6067 44.5181 34.7497 44.5181 33.6887C44.5181 32.8267 45.1261 32.0967 45.9621 31.8557V30.8387Z" fill="white"/>
<path d="M52.702 24.9308C49.445 24.9308 46.796 27.5818 46.796 30.8388V32.4798L46.196 32.6538C45.69 32.7998 45.351 33.2148 45.351 33.6888C45.351 34.2878 45.896 34.7748 46.566 34.7748H47.089L47.369 35.2468C48.346 37.2908 50.439 38.6118 52.702 38.6118C54.966 38.6118 57.06 37.2908 58.035 35.2468L58.261 34.7748H58.785C59.509 34.7748 60.054 34.2878 60.054 33.6888C60.054 33.2148 59.715 32.7998 59.209 32.6538L58.609 32.4798V30.8388C58.609 27.5818 55.96 24.9308 52.702 24.9308ZM52.702 40.2738C49.965 40.2738 47.421 38.7658 46.092 36.3928C44.712 36.1628 43.689 35.0378 43.689 33.6888C43.689 32.6808 44.25 31.7838 45.134 31.3028V30.8388C45.134 26.6648 48.529 23.2688 52.702 23.2688C56.876 23.2688 60.271 26.6648 60.271 30.8388V31.3028C61.155 31.7838 61.716 32.6808 61.716 33.6888C61.716 35.0508 60.673 36.1858 59.309 36.3998C57.98 38.7678 55.439 40.2738 52.702 40.2738Z" fill="#0044CC"/>
<path d="M39.9222 58.6878C39.9062 58.6878 39.8912 58.6878 39.8752 58.6858C39.4162 58.6618 39.0662 58.2688 39.0922 57.8118L39.6792 47.5258C39.8602 44.9738 41.2052 42.7348 43.3692 41.3778C45.5332 40.0218 48.1322 39.7848 50.5052 40.7368C51.9342 41.3058 53.5162 41.3308 54.9622 40.8048L55.2262 40.7088C57.8142 39.7638 60.6222 40.0918 62.9262 41.6028C65.2292 43.1108 66.6452 45.5518 66.8132 48.2988L67.3432 57.2918C67.3712 57.7498 67.0212 58.1428 66.5632 58.1698C66.1202 58.2118 65.7112 57.8468 65.6852 57.3898L65.1552 48.3958C65.0192 46.1818 63.8742 44.2118 62.0152 42.9928C60.1522 41.7718 57.8842 41.5108 55.7932 42.2698L55.5292 42.3658C53.7012 43.0348 51.6972 43.0008 49.8882 42.2778C48.0162 41.5288 45.9612 41.7118 44.2522 42.7868C42.5422 43.8578 41.4792 45.6288 41.3362 47.6428L41.2622 48.7078L40.7502 57.9018C40.7262 58.3448 40.3592 58.6878 39.9222 58.6878Z" fill="#0044CC"/>
<path d="M56.4819 52.0557C56.4819 52.4377 56.4089 52.8037 56.2609 53.1357C56.1129 53.4847 55.9119 53.7677 55.6579 54.0337C55.4069 54.2827 55.1119 54.4827 54.7749 54.6317C54.4359 54.7817 54.0749 54.8477 53.6899 54.8477H49.9629V52.9867H53.6899C53.8189 52.9867 53.9409 52.9537 54.0539 52.9197C54.1669 52.8697 54.2629 52.8037 54.3459 52.7207C54.4329 52.6377 54.4989 52.5377 54.5469 52.4217C54.5939 52.3047 54.6189 52.1887 54.6189 52.0557C54.6189 51.9227 54.5939 51.8067 54.5469 51.6897C54.4989 51.5737 54.4329 51.4907 54.3459 51.4077C54.2629 51.3077 54.1669 51.2417 54.0539 51.1917C53.9409 51.1587 53.8189 51.1247 53.6899 51.1247H51.1519V49.2637H53.6899C53.8189 49.2637 53.9409 49.2467 54.0539 49.1967C54.1669 49.1467 54.2629 49.0807 54.3459 48.9977C54.4329 48.9147 54.4989 48.8147 54.5469 48.6987C54.5939 48.5817 54.6189 48.4657 54.6189 48.3327C54.6189 48.1997 54.5939 48.0837 54.5469 47.9667C54.4989 47.8507 54.4329 47.7507 54.3459 47.6677C54.2629 47.5847 54.1669 47.5187 54.0539 47.4687C53.9409 47.4187 53.8189 47.4017 53.6899 47.4017H49.9629V45.5367H53.6899C54.0749 45.5367 54.4359 45.6117 54.7749 45.7567C55.1119 45.9057 55.4069 46.1057 55.6579 46.3547C55.9119 46.6207 56.1129 46.9037 56.2609 47.2527C56.4089 47.5847 56.4819 47.9507 56.4819 48.3327C56.4819 48.6647 56.4189 48.9977 56.2939 49.3297C56.1679 49.6457 55.9899 49.9447 55.7609 50.1947C55.9899 50.4437 56.1679 50.7427 56.2939 51.0587C56.4189 51.3907 56.4819 51.7067 56.4819 52.0557Z" fill="#0044CC"/>
<path d="M49.8918 62.3278H10.0018V63.9878H49.8918V62.3278ZM10.0018 62.3278C9.54183 62.3278 9.17188 62.6877 9.17188 63.1577C9.17188 63.6277 9.54183 63.9878 10.0018 63.9878V62.3278ZM50.4818 63.7378C50.8018 63.4278 50.8018 62.8878 50.4818 62.5778L45.1918 57.2777C44.8618 56.9577 44.3418 56.9577 44.0118 57.2777C43.6918 57.6077 43.6918 58.1378 44.0118 58.4578L48.7218 63.1577L44.0118 67.8578C43.6918 68.1778 43.6918 68.7077 44.0118 69.0377C44.3418 69.3577 44.8618 69.3577 45.1918 69.0377L50.4818 63.7378Z" fill="#FF6B00"/>
</svg>
