<svg width="79" height="79" viewBox="0 0 79 79" fill="none" xmlns="http://www.w3.org/2000/svg">
<rect width="78.12" height="78.11" rx="1" fill="white"/>
<path d="M1.67004 76.45H76.46V1.66003H1.67004V76.45ZM77.29 78.11H0.839966C0.379966 78.11 0 77.74 0 77.28V0.829956C0 0.369956 0.379966 0 0.839966 0H77.29C77.75 0 78.12 0.369956 78.12 0.829956V77.28C78.12 77.74 77.75 78.11 77.29 78.11Z" fill="#0044CC"/>
<path d="M39.06 25.261C31.701 25.261 25.713 31.249 25.713 38.608V42.164C25.713 49.523 31.701 55.511 39.06 55.511C46.419 55.511 52.405 49.523 52.405 42.164V38.608C52.405 31.249 46.419 25.261 39.06 25.261ZM39.06 57.173C30.784 57.173 24.051 50.44 24.051 42.164V38.608C24.051 30.332 30.784 23.599 39.06 23.599C47.335 23.599 54.067 30.332 54.067 38.608V42.164C54.067 50.44 47.335 57.173 39.06 57.173Z" fill="#0044CC"/>
<g opacity="0.1">
<path d="M25.77 32.408C25.77 28.735 28.745 25.76 32.418 25.76C36.091 25.76 39.067 28.735 39.067 32.408V49.029C39.067 52.702 36.091 55.677 32.418 55.677C28.745 55.677 25.77 52.702 25.77 49.029V32.408Z" fill="#0055FF"/>
</g>
<path d="M39.0601 50.691C43.6501 50.691 47.3701 53.668 47.3701 57.339C47.3701 61.011 43.6501 63.987 39.0601 63.987C34.4701 63.987 30.7501 61.011 30.7501 57.339C30.7501 53.668 34.4701 50.691 39.0601 50.691Z" fill="white"/>
<g opacity="0.8">
<path d="M20.6501 50.874H18.6051C14.7651 50.874 11.6421 47.749 11.6421 43.909C11.6421 40.069 14.7651 36.946 18.6051 36.946H20.6501C21.1091 36.946 21.4811 37.318 21.4811 37.777C21.4811 38.237 21.1091 38.608 20.6501 38.608H18.6051C15.6821 38.608 13.3041 40.986 13.3041 43.909C13.3041 46.832 15.6821 49.212 18.6051 49.212H20.6501C21.1091 49.212 21.4811 49.584 21.4811 50.043C21.4811 50.502 21.1091 50.874 20.6501 50.874Z" fill="#FF6B00"/>
</g>
<g opacity="0.8">
<path d="M59.52 50.874H57.475C57.016 50.874 56.644 50.502 56.644 50.043C56.644 49.584 57.016 49.212 57.475 49.212H59.52C62.443 49.212 64.823 46.832 64.823 43.909C64.823 40.986 62.443 38.608 59.52 38.608H57.475C57.016 38.608 56.644 38.237 56.644 37.777C56.644 37.318 57.016 36.946 57.475 36.946H59.52C63.36 36.946 66.485 40.069 66.485 43.909C66.485 47.749 63.36 50.874 59.52 50.874Z" fill="#FF6B00"/>
</g>
<path d="M45.8798 61.095H44.0518C43.5928 61.095 43.2208 60.723 43.2208 60.264C43.2208 59.805 43.5928 59.433 44.0518 59.433H45.8798C51.8188 59.433 56.6488 54.603 56.6488 48.664V37.528C56.6488 27.831 48.7608 19.943 39.0658 19.943C29.3698 19.943 21.4818 27.831 21.4818 37.528V48.664C21.4818 49.123 21.1098 49.495 20.6508 49.495C20.1908 49.495 19.8198 49.123 19.8198 48.664V37.528C19.8198 26.914 28.4528 18.281 39.0658 18.281C49.6778 18.281 58.3108 26.914 58.3108 37.528V48.664C58.3108 55.518 52.7338 61.095 45.8798 61.095Z" fill="#0044CC"/>
<path d="M35.26 57.472C35.26 55.926 36.523 54.663 38.069 54.663H42.872V60.264H38.069C36.523 60.264 35.26 59.018 35.26 57.472Z" fill="white"/>
<g opacity="0.8">
<path d="M38.0599 53.832C36.0489 53.832 34.4199 55.461 34.4199 57.472H36.0819C36.0819 56.375 36.9629 55.494 38.0599 55.494V53.832ZM38.0599 59.433C36.9629 59.433 36.0819 58.552 36.0819 57.472H34.4199C34.4199 59.466 36.0489 61.095 38.0599 61.095V59.433ZM42.8629 59.433H38.0599V61.095H42.8629V59.433ZM42.0319 60.264H43.6939V54.663H42.0319V60.264ZM38.0599 55.494H42.8629V53.832H38.0599V55.494ZM42.8629 61.095H43.6939V60.264H42.8629V61.095ZM42.8629 54.663H43.6939C43.6939 54.214 43.3119 53.832 42.8629 53.832V54.663Z" fill="#FF6B00"/>
</g>
<path d="M38.9601 47.891C37.1701 47.891 35.4141 47.11 33.2571 45.547C32.8851 45.278 32.8001 44.758 33.0701 44.387C33.3411 44.01 33.8641 43.936 34.2301 44.2C37.9931 46.925 39.8921 46.917 43.9121 44.187C44.2891 43.932 44.8061 44.025 45.0661 44.406C45.3241 44.786 45.2271 45.302 44.8471 45.56C42.5631 47.114 40.7461 47.891 38.9601 47.891Z" fill="#0044CC"/>
</svg>
