<svg width="77" height="89" viewBox="0 0 77 89" fill="none" xmlns="http://www.w3.org/2000/svg">
<path d="M38.256 88.088C38.112 88.088 37.968 88.051 37.84 87.977L0.415 66.37C0.158 66.222 0 65.948 0 65.651V22.437C0 22.14 0.158 21.866 0.415 21.718L37.84 0.111C38.096 -0.037 38.415 -0.037 38.671 0.111L76.096 21.718C76.353 21.866 76.511 22.14 76.511 22.437V65.651C76.511 65.948 76.353 66.222 76.096 66.37L38.671 87.977C38.543 88.051 38.399 88.088 38.256 88.088Z" fill="white"/>
<path d="M1.662 65.1708L38.261 86.2988L74.859 65.1708V22.9187L38.261 1.79075L1.662 22.9187V65.1708ZM38.261 88.0888C38.118 88.0888 37.974 88.0518 37.846 87.9768L0.415 66.3698C0.159 66.2228 0 65.9477 0 65.6507V22.4377C0 22.1407 0.159 21.8668 0.415 21.7188L37.846 0.11175C38.102 -0.03725 38.42 -0.03725 38.677 0.11175L76.105 21.7188C76.362 21.8668 76.521 22.1407 76.521 22.4377V65.6507C76.521 65.9477 76.362 66.2228 76.105 66.3698L38.677 87.9768C38.548 88.0518 38.404 88.0888 38.261 88.0888Z" fill="#0044CC"/>
<path d="M28.2821 37.3967H36.5921C37.5101 37.3967 38.2541 38.1407 38.2541 39.0587V60.6657C38.2541 61.5837 37.5101 62.3277 36.5921 62.3277H28.2821C27.3641 62.3277 26.6201 61.5837 26.6201 60.6657V39.0587C26.6201 38.1407 27.3641 37.3967 28.2821 37.3967Z" fill="#CCDDFF"/>
<path d="M44.8219 30.1087C44.4519 30.1087 44.1159 29.8607 44.0189 29.4867L43.5359 27.6367C43.2489 26.5327 42.2539 25.7617 41.1159 25.7617H35.4649C34.3239 25.7617 33.3369 26.5297 33.0639 27.6287L32.5789 29.4867C32.4639 29.9297 32.0139 30.2047 31.5659 30.0807C31.1209 29.9657 30.8549 29.5127 30.9719 29.0687L31.4539 27.2177C31.9089 25.3857 33.5589 24.0997 35.4649 24.0997H41.1159C43.0109 24.0997 44.6679 25.3827 45.1449 27.2177L45.6249 29.0687C45.7419 29.5127 45.4759 29.9657 45.0309 30.0807C44.9619 30.1007 44.8899 30.1087 44.8219 30.1087Z" fill="#FF6B00"/>
<path d="M26.1622 35.2877L28.0222 59.5707C28.1212 60.8867 29.1942 61.8787 30.5172 61.8787H46.0902C47.4022 61.8787 48.4682 60.8867 48.5672 59.5707L50.4432 35.2877H26.1622ZM46.0902 63.5407H30.5172C28.3162 63.5407 26.5302 61.8887 26.3632 59.6977L24.4352 34.5197C24.4192 34.2897 24.4972 34.0627 24.6542 33.8917C24.8122 33.7217 25.0322 33.6257 25.2642 33.6257H51.3412C51.5732 33.6257 51.7942 33.7227 51.9512 33.8917C52.1092 34.0627 52.1872 34.2897 52.1692 34.5197L50.2242 59.6977C50.0602 61.8527 48.2442 63.5407 46.0902 63.5407Z" fill="#0044CC"/>
<path d="M53.2219 32.9868C52.7629 32.9868 52.3909 32.6148 52.3909 32.1558V31.3248C52.3909 30.8668 52.0179 30.4938 51.5599 30.4938H24.9669C24.5089 30.4938 24.1359 30.8668 24.1359 31.3248V32.1558C24.1359 32.6148 23.7639 32.9868 23.3049 32.9868C22.8459 32.9868 22.4739 32.6148 22.4739 32.1558V31.3248C22.4739 29.9498 23.5919 28.8318 24.9669 28.8318H51.5599C52.9349 28.8318 54.0529 29.9498 54.0529 31.3248V32.1558C54.0529 32.6148 53.6809 32.9868 53.2219 32.9868Z" fill="#0044CC"/>
<path d="M38.0119 52.9307C37.5529 52.9307 37.1809 52.5587 37.1809 52.0997V42.8947C37.1809 42.4357 37.5529 42.0637 38.0119 42.0637C38.4709 42.0637 38.8429 42.4357 38.8429 42.8947V52.0997C38.8429 52.5587 38.4709 52.9307 38.0119 52.9307Z" fill="#0044CC"/>
<path d="M32.0219 55.0978C31.5629 55.0978 31.1909 54.7258 31.1909 54.2668V40.7208C31.1909 40.2608 31.5629 39.8898 32.0219 39.8898C32.4809 39.8898 32.8529 40.2608 32.8529 40.7208V54.2668C32.8529 54.7258 32.4809 55.0978 32.0219 55.0978Z" fill="#0044CC"/>
<path d="M43.9919 55.0978C43.5329 55.0978 43.1609 54.7258 43.1609 54.2668V40.7208C43.1609 40.2608 43.5329 39.8898 43.9919 39.8898C44.4509 39.8898 44.8229 40.2608 44.8229 40.7208V54.2668C44.8229 54.7258 44.4509 55.0978 43.9919 55.0978Z" fill="#0044CC"/>
</svg>
