<svg width="79" height="79" viewBox="0 0 79 79" fill="none" xmlns="http://www.w3.org/2000/svg">
<rect width="78.116" height="78.11" rx="1" fill="white"/>
<g opacity="0.2">
<path d="M12.4651 65.151V27.522L19.0471 20.575L20.2201 19.528C20.5241 19.262 20.9171 19.112 21.3241 19.112H49.0301V58.503C49.0301 62.176 46.0531 65.151 42.3821 65.151H12.4651Z" fill="#0055FF"/>
</g>
<path d="M19.113 59.317V25.096L25.096 18.78L26.12 17.866C26.424 17.6 26.817 17.45 27.224 17.45H52.354V52.669C52.354 56.326 49.377 59.317 45.706 59.317H19.113Z" fill="white"/>
<path d="M1.662 76.45H76.454V1.66003H1.662V76.45ZM77.285 78.11H0.831009C0.372009 78.11 0 77.74 0 77.28V0.829956C0 0.369956 0.372009 0 0.831009 0H77.285C77.745 0 78.116 0.369956 78.116 0.829956V77.28C78.116 77.74 77.745 78.11 77.285 78.11Z" fill="#0044CC"/>
<path d="M51.523 52.669C51.523 55.877 48.919 58.486 45.706 58.486V60.148C49.836 60.148 53.185 56.791 53.185 52.669H51.523ZM19.944 32.226H18.282V59.317H19.944V32.226ZM45.706 58.486H19.113V60.148H45.706V58.486ZM51.523 52.669H53.185V26.691H51.523V52.669ZM19.716 25.661L25.7 19.345L24.493 18.215L18.51 24.531L19.716 25.661ZM28.66 24.713H23.102V26.375H28.66V24.713ZM27.829 25.544H29.491V17.45H27.829V25.544ZM52.354 16.619H28.66V18.281H52.354V16.619ZM53.185 17.45H51.523V26.691H53.185V17.45ZM18.282 32.226H19.944V25.096H18.282V32.226ZM19.113 59.317H18.282C18.282 59.766 18.654 60.148 19.113 60.148V59.317ZM25.7 19.345C26.015 19.012 26.001 18.497 25.668 18.181C25.334 17.866 24.809 17.882 24.493 18.215L25.7 19.345ZM23.102 24.713C22.643 24.713 22.271 25.096 22.271 25.544C22.271 26.01 22.643 26.375 23.102 26.375V24.713ZM28.66 25.544V26.375C29.119 26.375 29.491 26.01 29.491 25.544H28.66ZM52.354 17.45H53.185C53.185 16.985 52.813 16.619 52.354 16.619V17.45ZM19.113 25.096L18.51 24.531L18.282 24.763V25.096H19.113ZM28.66 16.619H27.829V17.45H28.66V16.619Z" fill="#0044CC"/>
<g opacity="0.6">
<path d="M37.3961 33.239H28.2551C27.7951 33.239 27.4241 32.867 27.4241 32.408C27.4241 31.949 27.7951 31.577 28.2551 31.577H37.3961C37.8551 31.577 38.2271 31.949 38.2271 32.408C38.2271 32.867 37.8551 33.239 37.3961 33.239Z" fill="#FF6B00"/>
</g>
<g opacity="0.6">
<path d="M37.3961 43.211H28.2551C27.7951 43.211 27.4241 42.839 27.4241 42.38C27.4241 41.921 27.7951 41.549 28.2551 41.549H37.3961C37.8551 41.549 38.2271 41.921 38.2271 42.38C38.2271 42.839 37.8551 43.211 37.3961 43.211Z" fill="#FF6B00"/>
</g>
<g opacity="0.6">
<path d="M41.5511 38.225H28.2551C27.7951 38.225 27.4241 37.853 27.4241 37.394C27.4241 36.935 27.7951 36.563 28.2551 36.563H41.5511C42.0101 36.563 42.3821 36.935 42.3821 37.394C42.3821 37.853 42.0101 38.225 41.5511 38.225Z" fill="#FF6B00"/>
</g>
<path d="M60.223 25.561C61.893 23.832 64.647 23.783 66.376 25.461C68.103 27.123 68.149 29.882 66.479 31.611L53.543 44.99C51.256 47.351 48.343 49.013 45.143 49.777L42.186 50.475L42.788 47.5C43.44 44.276 45.002 41.317 47.287 38.941L60.223 25.561Z" fill="white"/>
<path d="M63.3509 25.063H63.2939C62.3539 25.078 61.4749 25.459 60.8199 26.137L47.8849 39.518C45.7019 41.787 44.2209 44.605 43.6029 47.663L43.2579 49.367L44.9519 48.968C47.9979 48.239 50.7629 46.663 52.9459 44.412L65.8809 31.033C66.5359 30.356 66.8869 29.463 66.8699 28.52C66.8529 27.58 66.4729 26.707 65.7989 26.06C65.1359 25.415 64.2689 25.063 63.3509 25.063ZM42.1859 51.305C41.9719 51.305 41.7649 51.222 41.6079 51.072C41.4039 50.874 41.3149 50.586 41.3709 50.309L41.9729 47.334C42.6549 43.966 44.2849 40.864 46.6879 38.364L59.6249 24.982C60.5889 23.985 61.8829 23.424 63.2669 23.401C64.6499 23.42 65.9599 23.899 66.9539 24.865C67.9459 25.818 68.5069 27.106 68.5319 28.489C68.5569 29.877 68.0399 31.19 67.0759 32.188L54.1399 45.568C51.7359 48.048 48.6919 49.783 45.3359 50.585L42.3769 51.282C42.3129 51.299 42.2489 51.305 42.1859 51.305Z" fill="#0044CC"/>
</svg>
