<svg width="79" height="79" viewBox="0 0 79 79" fill="none" xmlns="http://www.w3.org/2000/svg">
<rect width="78.116" height="78.11" rx="1" fill="white"/>
<g opacity="0.2">
<path d="M12.4651 65.151V27.522L19.0471 20.575L20.2201 19.528C20.5241 19.262 20.9171 19.112 21.3241 19.112H49.0301V58.503C49.0301 62.176 46.0531 65.151 42.3821 65.151H12.4651Z" fill="#0055FF"/>
</g>
<path d="M19.113 59.317V25.096L25.096 18.78L26.12 17.866C26.424 17.6 26.817 17.45 27.224 17.45H52.354V52.669C52.354 56.326 49.377 59.317 45.706 59.317H19.113Z" fill="white"/>
<path d="M1.66199 76.45H76.454V1.66003H1.66199V76.45ZM77.285 78.11H0.830994C0.370994 78.11 0 77.74 0 77.28V0.829956C0 0.369956 0.370994 0 0.830994 0H77.285C77.744 0 78.116 0.369956 78.116 0.829956V77.28C78.116 77.74 77.744 78.11 77.285 78.11Z" fill="#0044CC"/>
<path d="M51.523 36.5701H53.185V17.4501H51.523V36.5701ZM19.113 60.15H35.734V58.49H19.113V60.15ZM19.944 32.23H18.282V59.3201H19.944V32.23ZM19.717 25.66L25.7 19.35L24.493 18.22L18.51 24.53L19.717 25.66ZM28.66 24.72H23.102V26.38H28.66V24.72ZM27.829 25.55H29.491V17.4501H27.829V25.55ZM52.354 16.62H28.66V18.28H52.354V16.62ZM18.282 32.23H19.944V25.1H18.282V32.23ZM51.523 36.5701C51.523 37.0301 51.896 37.4 52.354 37.4C52.813 37.4 53.185 37.0301 53.185 36.5701H51.523ZM35.734 60.15C36.193 60.15 36.565 59.7701 36.565 59.3201C36.565 58.8601 36.193 58.49 35.734 58.49V60.15ZM19.113 59.3201H18.282C18.282 59.7701 18.655 60.15 19.113 60.15V59.3201ZM25.7 19.35C26.016 19.02 26.001 18.5001 25.668 18.1801C25.334 17.8701 24.809 17.89 24.493 18.22L25.7 19.35ZM23.102 24.72C22.643 24.72 22.271 25.1 22.271 25.55C22.271 26.01 22.643 26.38 23.102 26.38V24.72ZM28.66 25.55V26.38C29.119 26.38 29.491 26.01 29.491 25.55H28.66ZM52.354 17.4501H53.185C53.185 16.9901 52.813 16.62 52.354 16.62V17.4501ZM19.113 25.1L18.51 24.53L18.282 24.77V25.1H19.113ZM28.66 16.62H27.829V17.4501H28.66V16.62Z" fill="#0044CC"/>
<g opacity="0.6">
<path d="M37.3961 33.239H28.2551C27.7951 33.239 27.4241 32.867 27.4241 32.408C27.4241 31.949 27.7951 31.577 28.2551 31.577H37.3961C37.8551 31.577 38.2271 31.949 38.2271 32.408C38.2271 32.867 37.8551 33.239 37.3961 33.239Z" fill="#FF6B00"/>
</g>
<g opacity="0.6">
<path d="M37.3961 43.211H28.2551C27.7951 43.211 27.4241 42.839 27.4241 42.38C27.4241 41.921 27.7951 41.549 28.2551 41.549H37.3961C37.8551 41.549 38.2271 41.921 38.2271 42.38C38.2271 42.839 37.8551 43.211 37.3961 43.211Z" fill="#FF6B00"/>
</g>
<g opacity="0.6">
<path d="M41.5511 38.225H28.2551C27.7951 38.225 27.4241 37.853 27.4241 37.394C27.4241 36.935 27.7951 36.563 28.2551 36.563H41.5511C42.0101 36.563 42.3821 36.935 42.3821 37.394C42.3821 37.853 42.0101 38.225 41.5511 38.225Z" fill="#FF6B00"/>
</g>
<path d="M40.6699 51.439C40.6289 51.439 40.5859 51.436 40.5429 51.429C40.0899 51.359 39.7779 50.936 39.8479 50.481C40.2589 47.802 41.4859 45.383 43.3989 43.486C45.7799 41.105 48.9489 39.792 52.3209 39.792C55.6919 39.792 58.8609 41.105 61.2439 43.489C62.1049 44.349 62.8309 45.313 63.3989 46.354C63.6189 46.756 63.4699 47.261 63.0679 47.48C62.6639 47.703 62.1599 47.553 61.9399 47.149C61.4479 46.25 60.8189 45.412 60.0689 44.664C57.9999 42.595 55.2479 41.454 52.3209 41.454C49.3929 41.454 46.6409 42.595 44.5719 44.664C42.9109 46.312 41.8469 48.409 41.4899 50.735C41.4279 51.145 41.0729 51.439 40.6699 51.439Z" fill="#0044CC"/>
<path d="M63.4339 47.915H57.2949C56.8349 47.915 56.4639 47.543 56.4639 47.084C56.4639 46.625 56.8349 46.253 57.2949 46.253H62.6029V40.934C62.6029 40.475 62.9749 40.103 63.4339 40.103C63.8929 40.103 64.2649 40.475 64.2649 40.934V47.084C64.2649 47.543 63.8929 47.915 63.4339 47.915Z" fill="#0044CC"/>
<path d="M52.3879 64.492C49.1559 64.492 45.9249 63.263 43.4639 60.803C42.5919 59.913 41.8699 58.944 41.3099 57.92C41.0899 57.518 41.2379 57.013 41.6409 56.794C42.0429 56.571 42.5499 56.721 42.7689 57.125C43.2549 58.014 43.8859 58.858 44.6459 59.634C48.9119 63.899 55.8659 63.898 60.1369 59.627C61.7959 57.966 62.8629 55.86 63.2189 53.539C63.2889 53.086 63.7079 52.775 64.1659 52.845C64.6199 52.914 64.9309 53.338 64.8619 53.793C64.4519 56.464 63.2239 58.887 61.3129 60.803C58.8519 63.262 55.6199 64.492 52.3879 64.492Z" fill="#0044CC"/>
<path d="M41.2751 64.17C40.8161 64.17 40.4441 63.798 40.4441 63.339V57.189C40.4441 56.73 40.8161 56.358 41.2751 56.358H47.4141C47.8741 56.358 48.2451 56.73 48.2451 57.189C48.2451 57.648 47.8741 58.02 47.4141 58.02H42.1061V63.339C42.1061 63.798 41.7341 64.17 41.2751 64.17Z" fill="#0044CC"/>
</svg>
