<svg width="79" height="79" viewBox="0 0 79 79" fill="none" xmlns="http://www.w3.org/2000/svg">
<rect width="78.1201" height="78.11" rx="1" fill="white"/>
<path d="M1.66003 76.45H76.4501V1.66003H1.66003V76.45ZM77.28 78.11H0.830078C0.370078 78.11 0 77.74 0 77.28V0.829956C0 0.369956 0.370078 0 0.830078 0H77.28C77.74 0 78.1201 0.369956 78.1201 0.829956V77.28C78.1201 77.74 77.74 78.11 77.28 78.11Z" fill="#0044CC"/>
<path d="M16.62 24.58V41.765C17.381 49.959 22.491 57.383 29.952 61.066L39.046 65.549L46.849 61.457C54.573 57.409 59.916 50.176 61.51 41.613L61.495 24.58L39.058 13.392L16.62 24.58ZM39.058 67.311C38.933 67.311 38.806 67.282 38.691 67.225L29.217 62.556C21.241 58.62 15.779 50.683 14.961 41.842L14.958 24.065C14.958 23.751 15.136 23.462 15.419 23.322L38.688 11.72C38.918 11.603 39.197 11.603 39.428 11.72L62.697 23.322C62.979 23.462 63.157 23.751 63.157 24.065V41.765C61.456 50.985 55.798 58.642 47.621 62.927L39.444 67.215C39.322 67.279 39.191 67.311 39.058 67.311Z" fill="#0044CC"/>
<g opacity="0.1">
<path fill-rule="evenodd" clip-rule="evenodd" d="M55.68 39.888C55.68 40.42 55.647 40.952 55.58 41.467C55.115 39.157 52.855 37.395 50.145 37.395C47.386 37.395 45.109 39.19 44.677 41.55H44.528C44.079 39.19 41.802 37.395 39.059 37.395C36.317 37.395 34.04 39.19 33.591 41.55H33.442C33.01 39.19 30.716 37.395 27.973 37.395C25.264 37.395 23.004 39.157 22.539 41.467C22.472 40.952 22.439 40.42 22.439 39.888C22.439 31.628 29.885 24.93 39.059 24.93C48.234 24.93 55.68 31.628 55.68 39.888Z" fill="#0055FF"/>
</g>
<path d="M56.5099 39.888C56.5099 31.096 48.6149 24.099 39.0579 24.099V25.761C47.8669 25.761 54.8479 32.159 54.8479 39.888H56.5099ZM39.0579 24.099C29.5019 24.099 21.6069 31.096 21.6069 39.888H23.2689C23.2689 32.159 30.2499 25.761 39.0579 25.761V24.099ZM21.6069 39.888C21.6069 40.453 21.6399 41.018 21.7069 41.567L23.3519 41.367C23.3019 40.885 23.2689 40.387 23.2689 39.888H21.6069ZM23.3359 41.633C23.7339 39.755 25.6129 38.226 27.9729 38.226V36.564C24.9309 36.564 22.2879 38.542 21.7229 41.301L23.3359 41.633ZM27.9729 38.226C30.3829 38.226 32.2609 39.788 32.6259 41.7L34.2549 41.401C33.7399 38.592 31.0639 36.564 27.9729 36.564V38.226ZM33.4409 42.381H33.5909V40.719H33.4409V42.381ZM34.4049 41.7C34.7699 39.788 36.6489 38.226 39.0579 38.226V36.564C35.9669 36.564 33.2909 38.592 32.7759 41.401L34.4049 41.7ZM39.0579 38.226C41.4519 38.226 43.3469 39.788 43.6959 41.7L45.3409 41.401C44.8089 38.592 42.1499 36.564 39.0579 36.564V38.226ZM44.5269 42.381H44.6769V40.719H44.5269V42.381ZM45.4909 41.7C45.8559 39.788 47.7339 38.226 50.1439 38.226V36.564C47.0529 36.564 44.3769 38.592 43.8619 41.401L45.4909 41.7ZM50.1439 38.226C52.5039 38.226 54.3829 39.755 54.7649 41.633L56.3939 41.301C55.8449 38.542 53.2029 36.564 50.1439 36.564V38.226ZM56.4099 41.567C56.4769 41.018 56.5099 40.453 56.5099 39.888H54.8479C54.8479 40.387 54.8149 40.885 54.7649 41.384L56.4099 41.567ZM22.5379 41.467L21.7069 41.567C21.7559 41.966 22.0889 42.281 22.4879 42.298C22.9029 42.315 23.2689 42.032 23.3359 41.633L22.5379 41.467ZM33.4409 41.55L32.6259 41.7C32.6929 42.098 33.0419 42.381 33.4409 42.381V41.55ZM33.5899 41.55L33.5909 42.381C33.9899 42.381 34.3379 42.098 34.4049 41.7L33.5899 41.55ZM44.5269 41.55L43.6959 41.7C43.7789 42.098 44.1279 42.381 44.5269 42.381V41.55ZM44.6759 41.55L44.6769 42.381C45.0759 42.381 45.4239 42.098 45.4909 41.7L44.6759 41.55ZM55.5789 41.467L54.7649 41.633C54.8479 42.032 55.2139 42.315 55.6289 42.298C56.0279 42.281 56.3599 41.982 56.4099 41.567L55.5789 41.467Z" fill="#0044CC"/>
<path d="M39.06 25.76C38.601 25.76 38.229 25.388 38.229 24.929V22.436C38.229 21.977 38.601 21.605 39.06 21.605C39.519 21.605 39.891 21.977 39.891 22.436V24.929C39.891 25.388 39.519 25.76 39.06 25.76Z" fill="#0044CC"/>
<g opacity="0.8">
<path d="M40.57 56.508C40.111 56.508 39.739 56.136 39.739 55.677V48.93C39.739 48.47 40.111 48.099 40.57 48.099C41.029 48.099 41.401 48.47 41.401 48.93V55.677C41.401 56.136 41.029 56.508 40.57 56.508Z" fill="#FF6B00"/>
</g>
<g opacity="0.8">
<path d="M40.5702 49.76H37.7622C37.3032 49.76 36.9312 49.388 36.9312 48.929C36.9312 48.47 37.3032 48.098 37.7622 48.098H40.5702C41.0292 48.098 41.4012 48.47 41.4012 48.929C41.4012 49.388 41.0292 49.76 40.5702 49.76Z" fill="#FF6B00"/>
</g>
<g opacity="0.8">
<path d="M43.3802 56.508H37.7622C37.3032 56.508 36.9312 56.136 36.9312 55.677C36.9312 55.218 37.3032 54.846 37.7622 54.846H43.3802C43.8392 54.846 44.2112 55.218 44.2112 55.677C44.2112 56.136 43.8392 56.508 43.3802 56.508Z" fill="#FF6B00"/>
</g>
<path d="M39.2701 42.389C40.3031 42.389 41.1401 43.226 41.1401 44.259C41.1401 45.292 40.3031 46.129 39.2701 46.129C38.2371 46.129 37.4001 45.292 37.4001 44.259C37.4001 43.226 38.2371 42.389 39.2701 42.389Z" fill="white"/>
<g opacity="0.8">
<path d="M39.2698 43.219C38.6968 43.219 38.2308 43.685 38.2308 44.258C38.2308 44.831 38.6968 45.297 39.2698 45.297C39.8428 45.297 40.3088 44.831 40.3088 44.258C40.3088 43.685 39.8428 43.219 39.2698 43.219ZM39.2698 46.959C37.7798 46.959 36.5688 45.748 36.5688 44.258C36.5688 42.768 37.7798 41.557 39.2698 41.557C40.7598 41.557 41.9708 42.768 41.9708 44.258C41.9708 45.748 40.7598 46.959 39.2698 46.959Z" fill="#FF6B00"/>
</g>
</svg>
