<svg width="79" height="79" viewBox="0 0 79 79" fill="none" xmlns="http://www.w3.org/2000/svg">
<rect width="78.12" height="78.11" rx="1" fill="white"/>
<path d="M1.67004 76.45H76.46V1.66003H1.67004V76.45ZM77.29 78.11H0.839966C0.379966 78.11 0 77.74 0 77.28V0.829956C0 0.369956 0.379966 0 0.839966 0H77.29C77.75 0 78.12 0.369956 78.12 0.829956V77.28C78.12 77.74 77.75 78.11 77.29 78.11Z" fill="#0044CC"/>
<path fill-rule="evenodd" clip-rule="evenodd" d="M38.26 35.234H60.664V57.655L54.498 50.99H44.908C41.235 50.99 38.26 48.015 38.26 44.342V35.234Z" fill="white"/>
<path d="M39.0901 44.34H37.4302V35.23H39.0901V44.34ZM39.0901 44.34C39.0901 47.55 41.7002 50.1499 44.9102 50.1499V51.8199C40.7702 51.8199 37.4302 48.46 37.4302 44.34H39.0901ZM44.9102 50.1499H54.5001V51.8199H44.9102V50.1499ZM55.1201 50.4199L61.2802 57.08L60.0502 58.2L53.9001 51.5499L55.1201 50.4199ZM59.8401 50.99H61.5001V57.6499H59.8401V50.99ZM59.8401 49.77H61.5001V50.99H59.8401V49.77ZM59.8401 35.23H61.5001V49.77H59.8401V35.23ZM60.6702 36.0599H38.2601V34.3999H60.6702V36.0599ZM54.5001 50.99V50.1499C54.7401 50.1499 54.9701 50.2499 55.1201 50.4199L54.5001 50.99ZM60.6702 57.6499H61.5001C61.5001 57.9799 61.2801 58.2999 60.9701 58.4099C60.6501 58.5499 60.2902 58.46 60.0502 58.2L60.6702 57.6499ZM38.2601 35.23H37.4302C37.4302 34.78 37.8001 34.3999 38.2601 34.3999V35.23ZM60.6702 35.23V34.3999C61.1302 34.3999 61.5001 34.78 61.5001 35.23H60.6702Z" fill="#0044CC"/>
<g opacity="0.1">
<path fill-rule="evenodd" clip-rule="evenodd" d="M37.3999 35.732H59.8039V58.136L53.6379 51.472H44.0479C40.3749 51.472 37.3999 48.497 37.3999 44.823V35.732Z" fill="#0055FF"/>
</g>
<path fill-rule="evenodd" clip-rule="evenodd" d="M24.1001 22.436C20.4271 22.436 17.4521 25.411 17.4521 29.084V54.447L26.2611 44.924H42.8151C46.4881 44.924 49.4632 41.948 49.4632 38.275V22.436H24.1001Z" fill="white"/>
<path d="M24.1001 23.27H49.4701V21.6H24.1001V23.27ZM48.6401 38.2799H50.3002V22.4399H48.6401V38.2799ZM48.6401 38.2799C48.6401 41.4999 46.0201 44.09 42.8201 44.09V45.76C46.9401 45.76 50.3002 42.4099 50.3002 38.2799H48.6401ZM42.8201 44.09H26.2601V45.76H42.8201V44.09ZM25.6501 44.36L16.8401 53.88L18.0701 55.01L26.8601 45.49L25.6501 44.36ZM18.2902 44.9199H16.6201V54.45H18.2902V44.9199ZM18.2902 43.2H16.6201V44.9199H18.2902V43.2ZM18.2902 29.08H16.6201V43.2H18.2902V29.08ZM18.2902 29.08C18.2902 25.88 20.9001 23.27 24.1001 23.27V21.6C19.9601 21.6 16.6201 24.95 16.6201 29.08H18.2902ZM49.4701 22.4399H50.3002C50.3002 21.9699 49.9301 21.6 49.4701 21.6V22.4399ZM26.2601 44.9199V44.09C26.0301 44.09 25.8001 44.19 25.6501 44.36L26.2601 44.9199ZM17.4601 54.45H16.6201C16.6201 54.8 16.8402 55.09 17.1602 55.21C17.4702 55.34 17.8401 55.26 18.0701 55.01L17.4601 54.45Z" fill="#0044CC"/>
<g opacity="0.8">
<path d="M27.6891 32.032C28.4851 32.032 29.1301 32.677 29.1301 33.472C29.1301 34.268 28.4851 34.913 27.6891 34.913C26.8931 34.913 26.2491 34.268 26.2491 33.472C26.2491 32.677 26.8931 32.032 27.6891 32.032Z" fill="#FF6B00"/>
</g>
<g opacity="0.8">
<path d="M34.091 32.032C34.886 32.032 35.531 32.677 35.531 33.472C35.531 34.268 34.886 34.913 34.091 34.913C33.295 34.913 32.65 34.268 32.65 33.472C32.65 32.677 33.295 32.032 34.091 32.032Z" fill="#FF6B00"/>
</g>
<g opacity="0.8">
<path d="M40.509 32.032C41.305 32.032 41.95 32.677 41.95 33.472C41.95 34.268 41.305 34.913 40.509 34.913C39.713 34.913 39.069 34.268 39.069 33.472C39.069 32.677 39.713 32.032 40.509 32.032Z" fill="#FF6B00"/>
</g>
</svg>
