<svg width="77" height="89" viewBox="0 0 77 89" fill="none" xmlns="http://www.w3.org/2000/svg">
<path d="M38.256 88.088C38.112 88.088 37.968 88.051 37.84 87.977L0.415 66.37C0.158 66.222 0 65.948 0 65.651V22.437C0 22.14 0.158 21.866 0.415 21.718L37.84 0.111C38.096 -0.037 38.415 -0.037 38.671 0.111L76.096 21.718C76.353 21.866 76.511 22.14 76.511 22.437V65.651C76.511 65.948 76.353 66.222 76.096 66.37L38.671 87.977C38.543 88.051 38.399 88.088 38.256 88.088Z" fill="white"/>
<path d="M1.66176 65.1708L38.2555 86.2988L74.8482 65.1708V22.9187L38.2555 1.79075L1.66176 22.9187V65.1708ZM38.2555 88.0888C38.1125 88.0888 37.9685 88.0518 37.8406 87.9768L0.41494 66.3698C0.158977 66.2228 0 65.9477 0 65.6507V22.4377C0 22.1407 0.158977 21.8668 0.41494 21.7188L37.8406 0.11175C38.0965 -0.03725 38.4145 -0.03725 38.6714 0.11175L76.0941 21.7188C76.351 21.8668 76.51 22.1407 76.51 22.4377V65.6507C76.51 65.9477 76.351 66.2228 76.0941 66.3698L38.6714 87.9768C38.5425 88.0518 38.3985 88.0888 38.2555 88.0888Z" fill="#0044CC"/>
<g opacity="0.2">
<path d="M21.6421 40.7207C21.6421 39.8037 22.3901 39.0587 23.3041 39.0587H46.5731C47.4871 39.0587 48.2351 39.8037 48.2351 40.7207V53.3187C48.2351 54.9807 44.8611 56.9587 43.1991 56.8257C38.7941 56.4767 32.0131 57.5907 23.5201 58.7537C22.5231 58.8867 21.6421 58.1057 21.6421 57.1087V40.7207Z" fill="#0055FF"/>
</g>
<path d="M48.2319 37.3967C56.4929 37.3967 63.1899 44.0937 63.1899 52.3547C63.1899 60.6167 56.4929 67.3137 48.2319 67.3137C39.9709 67.3137 33.2739 60.6167 33.2739 52.3547C33.2739 44.0937 39.9709 37.3967 48.2319 37.3967Z" fill="white"/>
<path d="M33.2718 59.2858H21.6378C18.4298 59.2858 15.8198 56.6758 15.8198 53.4688V27.4247C15.8198 26.9647 16.1918 26.5938 16.6518 26.5938H29.6308C30.8728 26.5938 32.0398 27.1437 32.8318 28.1027L35.9388 31.8558H56.5408C56.9998 31.8558 57.3718 32.2267 57.3718 32.6867V38.2277C57.3718 38.6867 56.9998 39.0588 56.5408 39.0588C56.0808 39.0588 55.7098 38.6867 55.7098 38.2277V33.5177H35.5478C35.2988 33.5177 35.0658 33.4068 34.9078 33.2158L31.5518 29.1628C31.0738 28.5847 30.3748 28.2557 29.6308 28.2557H17.4828V53.4688C17.4828 55.7608 19.3458 57.6238 21.6378 57.6238H33.2718C33.7308 57.6238 34.1028 57.9958 34.1028 58.4548C34.1028 58.9138 33.7308 59.2858 33.2718 59.2858Z" fill="#0044CC"/>
<path d="M29.1222 32.9638H21.9252C21.4662 32.9638 21.0942 32.5918 21.0942 32.1328C21.0942 31.6738 21.4662 31.3018 21.9252 31.3018H29.1222C29.5812 31.3018 29.9532 31.6738 29.9532 32.1328C29.9532 32.5918 29.5812 32.9638 29.1222 32.9638Z" fill="#0044CC"/>
<path d="M39.8919 61.1147C39.0279 60.3007 38.3129 59.3857 37.7649 58.4057L36.3189 59.2537C36.9669 60.3497 37.7649 61.3977 38.7449 62.3277L39.8919 61.1147ZM36.1359 52.5217C36.0859 49.4707 37.1989 46.3967 39.4759 44.0087L38.2629 42.8617C35.6869 45.5777 34.4239 49.0767 34.4739 52.5547L36.1359 52.5217ZM56.5789 43.5947C61.4159 48.2037 61.5989 55.8627 56.9949 60.6987L58.2079 61.8457C63.4429 56.3447 63.2269 47.6337 57.7259 42.3917L56.5789 43.5947ZM39.4759 44.0087C44.0799 39.1707 51.7419 38.9847 56.5789 43.5947L57.7259 42.3917C52.2249 37.1477 43.5149 37.3587 38.2629 42.8617L39.4759 44.0087ZM56.9949 60.6987C52.3909 65.5357 44.7289 65.7187 39.8919 61.1147L38.7449 62.3277C44.2469 67.5637 52.9559 67.3477 58.2079 61.8457L56.9949 60.6987ZM37.2489 58.0237C36.8009 57.9067 36.3519 58.1727 36.2359 58.6217L34.3079 65.8347C34.1909 66.2837 34.4569 66.7327 34.8889 66.8657C35.3379 66.9817 35.7869 66.7157 35.9029 66.2667L37.6319 59.8517L44.0469 61.5637C44.4959 61.6797 44.9449 61.4137 45.0609 60.9647C45.1769 60.5327 44.9279 60.0677 44.4789 59.9517L37.2489 58.0237ZM34.4739 52.5547C34.4739 53.0037 34.8559 53.3697 35.3209 53.3697C35.7699 53.3697 36.1359 52.9877 36.1359 52.5217L34.4739 52.5547Z" fill="#0044CC"/>
<path d="M47.2501 39.0177H48.9121V42.3417H47.2501V39.0177Z" fill="#0044CC"/>
<path d="M47.2501 62.6577H48.9121V65.9817H47.2501V62.6577Z" fill="#0044CC"/>
<path d="M58.0581 51.4877H61.3821V53.1497H58.0581V51.4877Z" fill="#0044CC"/>
<path d="M48.0821 54.9147C47.8731 54.9147 47.6701 54.8347 47.5141 54.6907L42.3461 49.8617C42.0121 49.5487 41.9941 49.0227 42.3071 48.6867C42.6221 48.3537 43.1461 48.3367 43.4821 48.6477L47.9731 52.8457L54.0661 44.7277C54.3411 44.3627 54.8631 44.2847 55.2291 44.5627C55.5971 44.8367 55.6701 45.3577 55.3941 45.7247L48.7461 54.5817C48.6051 54.7717 48.3901 54.8907 48.1551 54.9117C48.1311 54.9127 48.1061 54.9147 48.0821 54.9147Z" fill="#FF6B00"/>
<path d="M48.232 51.6907C49.15 51.6907 49.894 52.4347 49.894 53.3527C49.894 54.2707 49.15 55.0147 48.232 55.0147C47.314 55.0147 46.57 54.2707 46.57 53.3527C46.57 52.4347 47.314 51.6907 48.232 51.6907Z" fill="white"/>
<path d="M48.232 52.5217C47.774 52.5217 47.401 52.8947 47.401 53.3527C47.401 53.8107 47.774 54.1837 48.232 54.1837C48.69 54.1837 49.063 53.8107 49.063 53.3527C49.063 52.8947 48.69 52.5217 48.232 52.5217ZM48.232 55.8457C46.857 55.8457 45.739 54.7277 45.739 53.3527C45.739 51.9777 46.857 50.8597 48.232 50.8597C49.607 50.8597 50.725 51.9777 50.725 53.3527C50.725 54.7277 49.607 55.8457 48.232 55.8457Z" fill="#FF6B00"/>
</svg>
